M48
; DRILL file {KiCad 5.1.5+dfsg1-2build2} date 2021年02月08日 17時23分37秒
; FORMAT={-:-/ absolute / metric / decimal}
; #@! TF.CreationDate,2021-02-08T17:23:37+09:00
; #@! TF.GenerationSoftware,Kicad,Pcbnew,5.1.5+dfsg1-2build2
FMAT,2
METRIC
T1C0.400
T2C1.000
T3C3.200
%
G90
G05
T1
X67.335Y-59.614
X69.215Y-50.292
X69.469Y-52.959
X69.563Y-47.785
X70.104Y-51.308
X74.803Y-54.102
X75.856Y-54.864
X76.581Y-55.753
X77.089Y-57.658
T2
X81.28Y-55.88
X83.82Y-55.88
X86.36Y-55.88
X81.28Y-43.18
X83.82Y-43.18
X86.36Y-43.18
X53.34Y-50.8
X55.88Y-50.8
X58.42Y-50.8
X81.28Y-45.72
X83.82Y-45.72
X86.36Y-45.72
X53.34Y-43.18
X55.88Y-43.18
X58.42Y-43.18
X81.28Y-53.34
X83.82Y-53.34
X86.36Y-53.34
X81.28Y-48.26
X83.82Y-48.26
X86.36Y-48.26
X81.28Y-50.8
X83.82Y-50.8
X86.36Y-50.8
X53.34Y-53.34
X55.88Y-53.34
X58.42Y-53.34
X53.34Y-48.26
X55.88Y-48.26
X58.42Y-48.26
X53.34Y-55.88
X55.88Y-55.88
X58.42Y-55.88
X53.34Y-45.72
X55.88Y-45.72
X58.42Y-45.72
T3
X50.0Y-39.0
X50.0Y-60.0
X90.0Y-39.0
X90.0Y-60.0
T0
M30
