G04 #@! TF.GenerationSoftware,KiCad,Pcbnew,5.1.5+dfsg1-2build2*
G04 #@! TF.CreationDate,2021-02-08T17:23:34+09:00*
G04 #@! TF.ProjectId,v3-pwm-buffer,76332d70-776d-42d6-9275-666665722e6b,rev?*
G04 #@! TF.SameCoordinates,Original*
G04 #@! TF.FileFunction,Copper,L2,Bot*
G04 #@! TF.FilePolarity,Positive*
%FSLAX46Y46*%
G04 Gerber Fmt 4.6, Leading zero omitted, Abs format (unit mm)*
G04 Created by KiCad (PCBNEW 5.1.5+dfsg1-2build2) date 2021-02-08 17:23:34*
%MOMM*%
%LPD*%
G04 APERTURE LIST*
%ADD10O,1.700000X1.700000*%
%ADD11R,1.700000X1.700000*%
%ADD12C,3.350000*%
%ADD13C,0.800000*%
%ADD14C,0.250000*%
%ADD15C,0.254000*%
G04 APERTURE END LIST*
D10*
X81280000Y-55880000D03*
X83820000Y-55880000D03*
D11*
X86360000Y-55880000D03*
D10*
X81280000Y-53340000D03*
X83820000Y-53340000D03*
D11*
X86360000Y-53340000D03*
D10*
X81280000Y-50800000D03*
X83820000Y-50800000D03*
D11*
X86360000Y-50800000D03*
D10*
X81280000Y-48260000D03*
X83820000Y-48260000D03*
D11*
X86360000Y-48260000D03*
D10*
X81280000Y-45720000D03*
X83820000Y-45720000D03*
D11*
X86360000Y-45720000D03*
D10*
X81280000Y-43180000D03*
X83820000Y-43180000D03*
D11*
X86360000Y-43180000D03*
D10*
X58420000Y-55880000D03*
X55880000Y-55880000D03*
D11*
X53340000Y-55880000D03*
D10*
X58420000Y-53340000D03*
X55880000Y-53340000D03*
D11*
X53340000Y-53340000D03*
D10*
X58420000Y-50800000D03*
X55880000Y-50800000D03*
D11*
X53340000Y-50800000D03*
D10*
X58420000Y-48260000D03*
X55880000Y-48260000D03*
D11*
X53340000Y-48260000D03*
D10*
X58420000Y-45720000D03*
X55880000Y-45720000D03*
D11*
X53340000Y-45720000D03*
D10*
X58420000Y-43180000D03*
X55880000Y-43180000D03*
D11*
X53340000Y-43180000D03*
D12*
X90000000Y-39000000D03*
X90000000Y-60000000D03*
X50000000Y-39000000D03*
X50000000Y-60000000D03*
D13*
X67335400Y-59613800D03*
X70104000Y-51308000D03*
X77089000Y-57658000D03*
X69562999Y-47785001D03*
X69215000Y-50292000D03*
X69469000Y-52959000D03*
X74803000Y-54102000D03*
X75856000Y-54864000D03*
X76581000Y-55753000D03*
D14*
X60452000Y-51308000D02*
X58420000Y-53340000D01*
X70104000Y-51308000D02*
X60452000Y-51308000D01*
X75311000Y-55880000D02*
X58420000Y-55880000D01*
X77089000Y-57658000D02*
X75311000Y-55880000D01*
X74168000Y-43180000D02*
X69562999Y-47785001D01*
X81280000Y-43180000D02*
X74168000Y-43180000D01*
X76708000Y-50292000D02*
X81280000Y-45720000D01*
X69215000Y-50292000D02*
X76708000Y-50292000D01*
X76581000Y-52959000D02*
X81280000Y-48260000D01*
X69469000Y-52959000D02*
X76581000Y-52959000D01*
X80430001Y-51649999D02*
X81280000Y-50800000D01*
X78377999Y-53702001D02*
X80430001Y-51649999D01*
X75202999Y-53702001D02*
X78377999Y-53702001D01*
X74803000Y-54102000D02*
X75202999Y-53702001D01*
X79756000Y-54864000D02*
X81280000Y-53340000D01*
X75856000Y-54864000D02*
X79756000Y-54864000D01*
X81153000Y-55753000D02*
X81280000Y-55880000D01*
X76581000Y-55753000D02*
X81153000Y-55753000D01*
D15*
G36*
X91259659Y-36688625D02*
G01*
X91509429Y-36764035D01*
X91739792Y-36886522D01*
X91941980Y-37051422D01*
X92108286Y-37252450D01*
X92232378Y-37481954D01*
X92309531Y-37731195D01*
X92340000Y-38021089D01*
X92340001Y-60967711D01*
X92311375Y-61259660D01*
X92235965Y-61509429D01*
X92113477Y-61739794D01*
X91948579Y-61941979D01*
X91747546Y-62108288D01*
X91518046Y-62232378D01*
X91268805Y-62309531D01*
X90978911Y-62340000D01*
X49032279Y-62340000D01*
X48740340Y-62311375D01*
X48490571Y-62235965D01*
X48260206Y-62113477D01*
X48058021Y-61948579D01*
X47891712Y-61747546D01*
X47767622Y-61518046D01*
X47690469Y-61268805D01*
X47660000Y-60978911D01*
X47660000Y-59772485D01*
X47690000Y-59772485D01*
X47690000Y-60227515D01*
X47778772Y-60673802D01*
X47952905Y-61094195D01*
X48205706Y-61472539D01*
X48527461Y-61794294D01*
X48905805Y-62047095D01*
X49326198Y-62221228D01*
X49772485Y-62310000D01*
X50227515Y-62310000D01*
X50673802Y-62221228D01*
X51094195Y-62047095D01*
X51472539Y-61794294D01*
X51794294Y-61472539D01*
X52047095Y-61094195D01*
X52221228Y-60673802D01*
X52310000Y-60227515D01*
X52310000Y-59772485D01*
X87690000Y-59772485D01*
X87690000Y-60227515D01*
X87778772Y-60673802D01*
X87952905Y-61094195D01*
X88205706Y-61472539D01*
X88527461Y-61794294D01*
X88905805Y-62047095D01*
X89326198Y-62221228D01*
X89772485Y-62310000D01*
X90227515Y-62310000D01*
X90673802Y-62221228D01*
X91094195Y-62047095D01*
X91472539Y-61794294D01*
X91794294Y-61472539D01*
X92047095Y-61094195D01*
X92221228Y-60673802D01*
X92310000Y-60227515D01*
X92310000Y-59772485D01*
X92221228Y-59326198D01*
X92047095Y-58905805D01*
X91794294Y-58527461D01*
X91472539Y-58205706D01*
X91094195Y-57952905D01*
X90673802Y-57778772D01*
X90227515Y-57690000D01*
X89772485Y-57690000D01*
X89326198Y-57778772D01*
X88905805Y-57952905D01*
X88527461Y-58205706D01*
X88205706Y-58527461D01*
X87952905Y-58905805D01*
X87778772Y-59326198D01*
X87690000Y-59772485D01*
X52310000Y-59772485D01*
X52221228Y-59326198D01*
X52047095Y-58905805D01*
X51794294Y-58527461D01*
X51472539Y-58205706D01*
X51094195Y-57952905D01*
X50673802Y-57778772D01*
X50227515Y-57690000D01*
X49772485Y-57690000D01*
X49326198Y-57778772D01*
X48905805Y-57952905D01*
X48527461Y-58205706D01*
X48205706Y-58527461D01*
X47952905Y-58905805D01*
X47778772Y-59326198D01*
X47690000Y-59772485D01*
X47660000Y-59772485D01*
X47660000Y-56730000D01*
X51851928Y-56730000D01*
X51864188Y-56854482D01*
X51900498Y-56974180D01*
X51959463Y-57084494D01*
X52038815Y-57181185D01*
X52135506Y-57260537D01*
X52245820Y-57319502D01*
X52365518Y-57355812D01*
X52490000Y-57368072D01*
X53054250Y-57365000D01*
X53213000Y-57206250D01*
X53213000Y-56007000D01*
X52013750Y-56007000D01*
X51855000Y-56165750D01*
X51851928Y-56730000D01*
X47660000Y-56730000D01*
X47660000Y-54190000D01*
X51851928Y-54190000D01*
X51864188Y-54314482D01*
X51900498Y-54434180D01*
X51959463Y-54544494D01*
X52013222Y-54610000D01*
X51959463Y-54675506D01*
X51900498Y-54785820D01*
X51864188Y-54905518D01*
X51851928Y-55030000D01*
X51855000Y-55594250D01*
X52013750Y-55753000D01*
X53213000Y-55753000D01*
X53213000Y-53467000D01*
X52013750Y-53467000D01*
X51855000Y-53625750D01*
X51851928Y-54190000D01*
X47660000Y-54190000D01*
X47660000Y-51650000D01*
X51851928Y-51650000D01*
X51864188Y-51774482D01*
X51900498Y-51894180D01*
X51959463Y-52004494D01*
X52013222Y-52070000D01*
X51959463Y-52135506D01*
X51900498Y-52245820D01*
X51864188Y-52365518D01*
X51851928Y-52490000D01*
X51855000Y-53054250D01*
X52013750Y-53213000D01*
X53213000Y-53213000D01*
X53213000Y-50927000D01*
X52013750Y-50927000D01*
X51855000Y-51085750D01*
X51851928Y-51650000D01*
X47660000Y-51650000D01*
X47660000Y-49110000D01*
X51851928Y-49110000D01*
X51864188Y-49234482D01*
X51900498Y-49354180D01*
X51959463Y-49464494D01*
X52013222Y-49530000D01*
X51959463Y-49595506D01*
X51900498Y-49705820D01*
X51864188Y-49825518D01*
X51851928Y-49950000D01*
X51855000Y-50514250D01*
X52013750Y-50673000D01*
X53213000Y-50673000D01*
X53213000Y-48387000D01*
X52013750Y-48387000D01*
X51855000Y-48545750D01*
X51851928Y-49110000D01*
X47660000Y-49110000D01*
X47660000Y-46570000D01*
X51851928Y-46570000D01*
X51864188Y-46694482D01*
X51900498Y-46814180D01*
X51959463Y-46924494D01*
X52013222Y-46990000D01*
X51959463Y-47055506D01*
X51900498Y-47165820D01*
X51864188Y-47285518D01*
X51851928Y-47410000D01*
X51855000Y-47974250D01*
X52013750Y-48133000D01*
X53213000Y-48133000D01*
X53213000Y-45847000D01*
X52013750Y-45847000D01*
X51855000Y-46005750D01*
X51851928Y-46570000D01*
X47660000Y-46570000D01*
X47660000Y-44030000D01*
X51851928Y-44030000D01*
X51864188Y-44154482D01*
X51900498Y-44274180D01*
X51959463Y-44384494D01*
X52013222Y-44450000D01*
X51959463Y-44515506D01*
X51900498Y-44625820D01*
X51864188Y-44745518D01*
X51851928Y-44870000D01*
X51855000Y-45434250D01*
X52013750Y-45593000D01*
X53213000Y-45593000D01*
X53213000Y-43307000D01*
X52013750Y-43307000D01*
X51855000Y-43465750D01*
X51851928Y-44030000D01*
X47660000Y-44030000D01*
X47660000Y-42330000D01*
X51851928Y-42330000D01*
X51855000Y-42894250D01*
X52013750Y-43053000D01*
X53213000Y-43053000D01*
X53213000Y-41853750D01*
X53467000Y-41853750D01*
X53467000Y-43053000D01*
X53487000Y-43053000D01*
X53487000Y-43307000D01*
X53467000Y-43307000D01*
X53467000Y-45593000D01*
X53487000Y-45593000D01*
X53487000Y-45847000D01*
X53467000Y-45847000D01*
X53467000Y-48133000D01*
X53487000Y-48133000D01*
X53487000Y-48387000D01*
X53467000Y-48387000D01*
X53467000Y-50673000D01*
X53487000Y-50673000D01*
X53487000Y-50927000D01*
X53467000Y-50927000D01*
X53467000Y-53213000D01*
X53487000Y-53213000D01*
X53487000Y-53467000D01*
X53467000Y-53467000D01*
X53467000Y-55753000D01*
X53487000Y-55753000D01*
X53487000Y-56007000D01*
X53467000Y-56007000D01*
X53467000Y-57206250D01*
X53625750Y-57365000D01*
X54190000Y-57368072D01*
X54314482Y-57355812D01*
X54434180Y-57319502D01*
X54544494Y-57260537D01*
X54641185Y-57181185D01*
X54720537Y-57084494D01*
X54779502Y-56974180D01*
X54801513Y-56901620D01*
X54933368Y-57033475D01*
X55176589Y-57195990D01*
X55446842Y-57307932D01*
X55733740Y-57365000D01*
X56026260Y-57365000D01*
X56313158Y-57307932D01*
X56583411Y-57195990D01*
X56826632Y-57033475D01*
X57033475Y-56826632D01*
X57150000Y-56652240D01*
X57266525Y-56826632D01*
X57473368Y-57033475D01*
X57716589Y-57195990D01*
X57986842Y-57307932D01*
X58273740Y-57365000D01*
X58566260Y-57365000D01*
X58853158Y-57307932D01*
X59123411Y-57195990D01*
X59366632Y-57033475D01*
X59573475Y-56826632D01*
X59698178Y-56640000D01*
X74996199Y-56640000D01*
X76054000Y-57697802D01*
X76054000Y-57759939D01*
X76093774Y-57959898D01*
X76171795Y-58148256D01*
X76285063Y-58317774D01*
X76429226Y-58461937D01*
X76598744Y-58575205D01*
X76787102Y-58653226D01*
X76987061Y-58693000D01*
X77190939Y-58693000D01*
X77390898Y-58653226D01*
X77579256Y-58575205D01*
X77748774Y-58461937D01*
X77892937Y-58317774D01*
X78006205Y-58148256D01*
X78084226Y-57959898D01*
X78124000Y-57759939D01*
X78124000Y-57556061D01*
X78084226Y-57356102D01*
X78006205Y-57167744D01*
X77892937Y-56998226D01*
X77748774Y-56854063D01*
X77579256Y-56740795D01*
X77390898Y-56662774D01*
X77190939Y-56623000D01*
X77141903Y-56623000D01*
X77240774Y-56556937D01*
X77284711Y-56513000D01*
X79934845Y-56513000D01*
X79964010Y-56583411D01*
X80126525Y-56826632D01*
X80333368Y-57033475D01*
X80576589Y-57195990D01*
X80846842Y-57307932D01*
X81133740Y-57365000D01*
X81426260Y-57365000D01*
X81713158Y-57307932D01*
X81983411Y-57195990D01*
X82226632Y-57033475D01*
X82433475Y-56826632D01*
X82550000Y-56652240D01*
X82666525Y-56826632D01*
X82873368Y-57033475D01*
X83116589Y-57195990D01*
X83386842Y-57307932D01*
X83673740Y-57365000D01*
X83966260Y-57365000D01*
X84253158Y-57307932D01*
X84523411Y-57195990D01*
X84766632Y-57033475D01*
X84898487Y-56901620D01*
X84920498Y-56974180D01*
X84979463Y-57084494D01*
X85058815Y-57181185D01*
X85155506Y-57260537D01*
X85265820Y-57319502D01*
X85385518Y-57355812D01*
X85510000Y-57368072D01*
X86074250Y-57365000D01*
X86233000Y-57206250D01*
X86233000Y-56007000D01*
X86487000Y-56007000D01*
X86487000Y-57206250D01*
X86645750Y-57365000D01*
X87210000Y-57368072D01*
X87334482Y-57355812D01*
X87454180Y-57319502D01*
X87564494Y-57260537D01*
X87661185Y-57181185D01*
X87740537Y-57084494D01*
X87799502Y-56974180D01*
X87835812Y-56854482D01*
X87848072Y-56730000D01*
X87845000Y-56165750D01*
X87686250Y-56007000D01*
X86487000Y-56007000D01*
X86233000Y-56007000D01*
X86213000Y-56007000D01*
X86213000Y-55753000D01*
X86233000Y-55753000D01*
X86233000Y-53467000D01*
X86487000Y-53467000D01*
X86487000Y-55753000D01*
X87686250Y-55753000D01*
X87845000Y-55594250D01*
X87848072Y-55030000D01*
X87835812Y-54905518D01*
X87799502Y-54785820D01*
X87740537Y-54675506D01*
X87686778Y-54610000D01*
X87740537Y-54544494D01*
X87799502Y-54434180D01*
X87835812Y-54314482D01*
X87848072Y-54190000D01*
X87845000Y-53625750D01*
X87686250Y-53467000D01*
X86487000Y-53467000D01*
X86233000Y-53467000D01*
X86213000Y-53467000D01*
X86213000Y-53213000D01*
X86233000Y-53213000D01*
X86233000Y-50927000D01*
X86487000Y-50927000D01*
X86487000Y-53213000D01*
X87686250Y-53213000D01*
X87845000Y-53054250D01*
X87848072Y-52490000D01*
X87835812Y-52365518D01*
X87799502Y-52245820D01*
X87740537Y-52135506D01*
X87686778Y-52070000D01*
X87740537Y-52004494D01*
X87799502Y-51894180D01*
X87835812Y-51774482D01*
X87848072Y-51650000D01*
X87845000Y-51085750D01*
X87686250Y-50927000D01*
X86487000Y-50927000D01*
X86233000Y-50927000D01*
X86213000Y-50927000D01*
X86213000Y-50673000D01*
X86233000Y-50673000D01*
X86233000Y-48387000D01*
X86487000Y-48387000D01*
X86487000Y-50673000D01*
X87686250Y-50673000D01*
X87845000Y-50514250D01*
X87848072Y-49950000D01*
X87835812Y-49825518D01*
X87799502Y-49705820D01*
X87740537Y-49595506D01*
X87686778Y-49530000D01*
X87740537Y-49464494D01*
X87799502Y-49354180D01*
X87835812Y-49234482D01*
X87848072Y-49110000D01*
X87845000Y-48545750D01*
X87686250Y-48387000D01*
X86487000Y-48387000D01*
X86233000Y-48387000D01*
X86213000Y-48387000D01*
X86213000Y-48133000D01*
X86233000Y-48133000D01*
X86233000Y-45847000D01*
X86487000Y-45847000D01*
X86487000Y-48133000D01*
X87686250Y-48133000D01*
X87845000Y-47974250D01*
X87848072Y-47410000D01*
X87835812Y-47285518D01*
X87799502Y-47165820D01*
X87740537Y-47055506D01*
X87686778Y-46990000D01*
X87740537Y-46924494D01*
X87799502Y-46814180D01*
X87835812Y-46694482D01*
X87848072Y-46570000D01*
X87845000Y-46005750D01*
X87686250Y-45847000D01*
X86487000Y-45847000D01*
X86233000Y-45847000D01*
X86213000Y-45847000D01*
X86213000Y-45593000D01*
X86233000Y-45593000D01*
X86233000Y-43307000D01*
X86487000Y-43307000D01*
X86487000Y-45593000D01*
X87686250Y-45593000D01*
X87845000Y-45434250D01*
X87848072Y-44870000D01*
X87835812Y-44745518D01*
X87799502Y-44625820D01*
X87740537Y-44515506D01*
X87686778Y-44450000D01*
X87740537Y-44384494D01*
X87799502Y-44274180D01*
X87835812Y-44154482D01*
X87848072Y-44030000D01*
X87845000Y-43465750D01*
X87686250Y-43307000D01*
X86487000Y-43307000D01*
X86233000Y-43307000D01*
X86213000Y-43307000D01*
X86213000Y-43053000D01*
X86233000Y-43053000D01*
X86233000Y-41853750D01*
X86487000Y-41853750D01*
X86487000Y-43053000D01*
X87686250Y-43053000D01*
X87845000Y-42894250D01*
X87848072Y-42330000D01*
X87835812Y-42205518D01*
X87799502Y-42085820D01*
X87740537Y-41975506D01*
X87661185Y-41878815D01*
X87564494Y-41799463D01*
X87454180Y-41740498D01*
X87334482Y-41704188D01*
X87210000Y-41691928D01*
X86645750Y-41695000D01*
X86487000Y-41853750D01*
X86233000Y-41853750D01*
X86074250Y-41695000D01*
X85510000Y-41691928D01*
X85385518Y-41704188D01*
X85265820Y-41740498D01*
X85155506Y-41799463D01*
X85058815Y-41878815D01*
X84979463Y-41975506D01*
X84920498Y-42085820D01*
X84898487Y-42158380D01*
X84766632Y-42026525D01*
X84523411Y-41864010D01*
X84253158Y-41752068D01*
X83966260Y-41695000D01*
X83673740Y-41695000D01*
X83386842Y-41752068D01*
X83116589Y-41864010D01*
X82873368Y-42026525D01*
X82666525Y-42233368D01*
X82550000Y-42407760D01*
X82433475Y-42233368D01*
X82226632Y-42026525D01*
X81983411Y-41864010D01*
X81713158Y-41752068D01*
X81426260Y-41695000D01*
X81133740Y-41695000D01*
X80846842Y-41752068D01*
X80576589Y-41864010D01*
X80333368Y-42026525D01*
X80126525Y-42233368D01*
X80001822Y-42420000D01*
X74205323Y-42420000D01*
X74168000Y-42416324D01*
X74130677Y-42420000D01*
X74130667Y-42420000D01*
X74019014Y-42430997D01*
X73875753Y-42474454D01*
X73743724Y-42545026D01*
X73627999Y-42639999D01*
X73604201Y-42668997D01*
X69523198Y-46750001D01*
X69461060Y-46750001D01*
X69261101Y-46789775D01*
X69072743Y-46867796D01*
X68903225Y-46981064D01*
X68759062Y-47125227D01*
X68645794Y-47294745D01*
X68567773Y-47483103D01*
X68527999Y-47683062D01*
X68527999Y-47886940D01*
X68567773Y-48086899D01*
X68645794Y-48275257D01*
X68759062Y-48444775D01*
X68903225Y-48588938D01*
X69072743Y-48702206D01*
X69261101Y-48780227D01*
X69461060Y-48820001D01*
X69664938Y-48820001D01*
X69864897Y-48780227D01*
X70053255Y-48702206D01*
X70222773Y-48588938D01*
X70366936Y-48444775D01*
X70480204Y-48275257D01*
X70558225Y-48086899D01*
X70597999Y-47886940D01*
X70597999Y-47824802D01*
X74482802Y-43940000D01*
X80001822Y-43940000D01*
X80126525Y-44126632D01*
X80333368Y-44333475D01*
X80507760Y-44450000D01*
X80333368Y-44566525D01*
X80126525Y-44773368D01*
X79964010Y-45016589D01*
X79852068Y-45286842D01*
X79795000Y-45573740D01*
X79795000Y-45866260D01*
X79838790Y-46086407D01*
X76393199Y-49532000D01*
X69918711Y-49532000D01*
X69874774Y-49488063D01*
X69705256Y-49374795D01*
X69516898Y-49296774D01*
X69316939Y-49257000D01*
X69113061Y-49257000D01*
X68913102Y-49296774D01*
X68724744Y-49374795D01*
X68555226Y-49488063D01*
X68411063Y-49632226D01*
X68297795Y-49801744D01*
X68219774Y-49990102D01*
X68180000Y-50190061D01*
X68180000Y-50393939D01*
X68210644Y-50548000D01*
X60489323Y-50548000D01*
X60452000Y-50544324D01*
X60414677Y-50548000D01*
X60414667Y-50548000D01*
X60303014Y-50558997D01*
X60187959Y-50593898D01*
X60159753Y-50602454D01*
X60027723Y-50673026D01*
X59944083Y-50741668D01*
X59911999Y-50767999D01*
X59905000Y-50776527D01*
X59905000Y-50653740D01*
X59847932Y-50366842D01*
X59735990Y-50096589D01*
X59573475Y-49853368D01*
X59366632Y-49646525D01*
X59192240Y-49530000D01*
X59366632Y-49413475D01*
X59573475Y-49206632D01*
X59735990Y-48963411D01*
X59847932Y-48693158D01*
X59905000Y-48406260D01*
X59905000Y-48113740D01*
X59847932Y-47826842D01*
X59735990Y-47556589D01*
X59573475Y-47313368D01*
X59366632Y-47106525D01*
X59192240Y-46990000D01*
X59366632Y-46873475D01*
X59573475Y-46666632D01*
X59735990Y-46423411D01*
X59847932Y-46153158D01*
X59905000Y-45866260D01*
X59905000Y-45573740D01*
X59847932Y-45286842D01*
X59735990Y-45016589D01*
X59573475Y-44773368D01*
X59366632Y-44566525D01*
X59192240Y-44450000D01*
X59366632Y-44333475D01*
X59573475Y-44126632D01*
X59735990Y-43883411D01*
X59847932Y-43613158D01*
X59905000Y-43326260D01*
X59905000Y-43033740D01*
X59847932Y-42746842D01*
X59735990Y-42476589D01*
X59573475Y-42233368D01*
X59366632Y-42026525D01*
X59123411Y-41864010D01*
X58853158Y-41752068D01*
X58566260Y-41695000D01*
X58273740Y-41695000D01*
X57986842Y-41752068D01*
X57716589Y-41864010D01*
X57473368Y-42026525D01*
X57266525Y-42233368D01*
X57150000Y-42407760D01*
X57033475Y-42233368D01*
X56826632Y-42026525D01*
X56583411Y-41864010D01*
X56313158Y-41752068D01*
X56026260Y-41695000D01*
X55733740Y-41695000D01*
X55446842Y-41752068D01*
X55176589Y-41864010D01*
X54933368Y-42026525D01*
X54801513Y-42158380D01*
X54779502Y-42085820D01*
X54720537Y-41975506D01*
X54641185Y-41878815D01*
X54544494Y-41799463D01*
X54434180Y-41740498D01*
X54314482Y-41704188D01*
X54190000Y-41691928D01*
X53625750Y-41695000D01*
X53467000Y-41853750D01*
X53213000Y-41853750D01*
X53054250Y-41695000D01*
X52490000Y-41691928D01*
X52365518Y-41704188D01*
X52245820Y-41740498D01*
X52135506Y-41799463D01*
X52038815Y-41878815D01*
X51959463Y-41975506D01*
X51900498Y-42085820D01*
X51864188Y-42205518D01*
X51851928Y-42330000D01*
X47660000Y-42330000D01*
X47660000Y-38772485D01*
X47690000Y-38772485D01*
X47690000Y-39227515D01*
X47778772Y-39673802D01*
X47952905Y-40094195D01*
X48205706Y-40472539D01*
X48527461Y-40794294D01*
X48905805Y-41047095D01*
X49326198Y-41221228D01*
X49772485Y-41310000D01*
X50227515Y-41310000D01*
X50673802Y-41221228D01*
X51094195Y-41047095D01*
X51472539Y-40794294D01*
X51794294Y-40472539D01*
X52047095Y-40094195D01*
X52221228Y-39673802D01*
X52310000Y-39227515D01*
X52310000Y-38772485D01*
X87690000Y-38772485D01*
X87690000Y-39227515D01*
X87778772Y-39673802D01*
X87952905Y-40094195D01*
X88205706Y-40472539D01*
X88527461Y-40794294D01*
X88905805Y-41047095D01*
X89326198Y-41221228D01*
X89772485Y-41310000D01*
X90227515Y-41310000D01*
X90673802Y-41221228D01*
X91094195Y-41047095D01*
X91472539Y-40794294D01*
X91794294Y-40472539D01*
X92047095Y-40094195D01*
X92221228Y-39673802D01*
X92310000Y-39227515D01*
X92310000Y-38772485D01*
X92221228Y-38326198D01*
X92047095Y-37905805D01*
X91794294Y-37527461D01*
X91472539Y-37205706D01*
X91094195Y-36952905D01*
X90673802Y-36778772D01*
X90227515Y-36690000D01*
X89772485Y-36690000D01*
X89326198Y-36778772D01*
X88905805Y-36952905D01*
X88527461Y-37205706D01*
X88205706Y-37527461D01*
X87952905Y-37905805D01*
X87778772Y-38326198D01*
X87690000Y-38772485D01*
X52310000Y-38772485D01*
X52221228Y-38326198D01*
X52047095Y-37905805D01*
X51794294Y-37527461D01*
X51472539Y-37205706D01*
X51094195Y-36952905D01*
X50673802Y-36778772D01*
X50227515Y-36690000D01*
X49772485Y-36690000D01*
X49326198Y-36778772D01*
X48905805Y-36952905D01*
X48527461Y-37205706D01*
X48205706Y-37527461D01*
X47952905Y-37905805D01*
X47778772Y-38326198D01*
X47690000Y-38772485D01*
X47660000Y-38772485D01*
X47660000Y-38032279D01*
X47688625Y-37740341D01*
X47764035Y-37490571D01*
X47886522Y-37260208D01*
X48051422Y-37058020D01*
X48252450Y-36891714D01*
X48481954Y-36767622D01*
X48731195Y-36690469D01*
X49021088Y-36660000D01*
X90967721Y-36660000D01*
X91259659Y-36688625D01*
G37*
X91259659Y-36688625D02*
X91509429Y-36764035D01*
X91739792Y-36886522D01*
X91941980Y-37051422D01*
X92108286Y-37252450D01*
X92232378Y-37481954D01*
X92309531Y-37731195D01*
X92340000Y-38021089D01*
X92340001Y-60967711D01*
X92311375Y-61259660D01*
X92235965Y-61509429D01*
X92113477Y-61739794D01*
X91948579Y-61941979D01*
X91747546Y-62108288D01*
X91518046Y-62232378D01*
X91268805Y-62309531D01*
X90978911Y-62340000D01*
X49032279Y-62340000D01*
X48740340Y-62311375D01*
X48490571Y-62235965D01*
X48260206Y-62113477D01*
X48058021Y-61948579D01*
X47891712Y-61747546D01*
X47767622Y-61518046D01*
X47690469Y-61268805D01*
X47660000Y-60978911D01*
X47660000Y-59772485D01*
X47690000Y-59772485D01*
X47690000Y-60227515D01*
X47778772Y-60673802D01*
X47952905Y-61094195D01*
X48205706Y-61472539D01*
X48527461Y-61794294D01*
X48905805Y-62047095D01*
X49326198Y-62221228D01*
X49772485Y-62310000D01*
X50227515Y-62310000D01*
X50673802Y-62221228D01*
X51094195Y-62047095D01*
X51472539Y-61794294D01*
X51794294Y-61472539D01*
X52047095Y-61094195D01*
X52221228Y-60673802D01*
X52310000Y-60227515D01*
X52310000Y-59772485D01*
X87690000Y-59772485D01*
X87690000Y-60227515D01*
X87778772Y-60673802D01*
X87952905Y-61094195D01*
X88205706Y-61472539D01*
X88527461Y-61794294D01*
X88905805Y-62047095D01*
X89326198Y-62221228D01*
X89772485Y-62310000D01*
X90227515Y-62310000D01*
X90673802Y-62221228D01*
X91094195Y-62047095D01*
X91472539Y-61794294D01*
X91794294Y-61472539D01*
X92047095Y-61094195D01*
X92221228Y-60673802D01*
X92310000Y-60227515D01*
X92310000Y-59772485D01*
X92221228Y-59326198D01*
X92047095Y-58905805D01*
X91794294Y-58527461D01*
X91472539Y-58205706D01*
X91094195Y-57952905D01*
X90673802Y-57778772D01*
X90227515Y-57690000D01*
X89772485Y-57690000D01*
X89326198Y-57778772D01*
X88905805Y-57952905D01*
X88527461Y-58205706D01*
X88205706Y-58527461D01*
X87952905Y-58905805D01*
X87778772Y-59326198D01*
X87690000Y-59772485D01*
X52310000Y-59772485D01*
X52221228Y-59326198D01*
X52047095Y-58905805D01*
X51794294Y-58527461D01*
X51472539Y-58205706D01*
X51094195Y-57952905D01*
X50673802Y-57778772D01*
X50227515Y-57690000D01*
X49772485Y-57690000D01*
X49326198Y-57778772D01*
X48905805Y-57952905D01*
X48527461Y-58205706D01*
X48205706Y-58527461D01*
X47952905Y-58905805D01*
X47778772Y-59326198D01*
X47690000Y-59772485D01*
X47660000Y-59772485D01*
X47660000Y-56730000D01*
X51851928Y-56730000D01*
X51864188Y-56854482D01*
X51900498Y-56974180D01*
X51959463Y-57084494D01*
X52038815Y-57181185D01*
X52135506Y-57260537D01*
X52245820Y-57319502D01*
X52365518Y-57355812D01*
X52490000Y-57368072D01*
X53054250Y-57365000D01*
X53213000Y-57206250D01*
X53213000Y-56007000D01*
X52013750Y-56007000D01*
X51855000Y-56165750D01*
X51851928Y-56730000D01*
X47660000Y-56730000D01*
X47660000Y-54190000D01*
X51851928Y-54190000D01*
X51864188Y-54314482D01*
X51900498Y-54434180D01*
X51959463Y-54544494D01*
X52013222Y-54610000D01*
X51959463Y-54675506D01*
X51900498Y-54785820D01*
X51864188Y-54905518D01*
X51851928Y-55030000D01*
X51855000Y-55594250D01*
X52013750Y-55753000D01*
X53213000Y-55753000D01*
X53213000Y-53467000D01*
X52013750Y-53467000D01*
X51855000Y-53625750D01*
X51851928Y-54190000D01*
X47660000Y-54190000D01*
X47660000Y-51650000D01*
X51851928Y-51650000D01*
X51864188Y-51774482D01*
X51900498Y-51894180D01*
X51959463Y-52004494D01*
X52013222Y-52070000D01*
X51959463Y-52135506D01*
X51900498Y-52245820D01*
X51864188Y-52365518D01*
X51851928Y-52490000D01*
X51855000Y-53054250D01*
X52013750Y-53213000D01*
X53213000Y-53213000D01*
X53213000Y-50927000D01*
X52013750Y-50927000D01*
X51855000Y-51085750D01*
X51851928Y-51650000D01*
X47660000Y-51650000D01*
X47660000Y-49110000D01*
X51851928Y-49110000D01*
X51864188Y-49234482D01*
X51900498Y-49354180D01*
X51959463Y-49464494D01*
X52013222Y-49530000D01*
X51959463Y-49595506D01*
X51900498Y-49705820D01*
X51864188Y-49825518D01*
X51851928Y-49950000D01*
X51855000Y-50514250D01*
X52013750Y-50673000D01*
X53213000Y-50673000D01*
X53213000Y-48387000D01*
X52013750Y-48387000D01*
X51855000Y-48545750D01*
X51851928Y-49110000D01*
X47660000Y-49110000D01*
X47660000Y-46570000D01*
X51851928Y-46570000D01*
X51864188Y-46694482D01*
X51900498Y-46814180D01*
X51959463Y-46924494D01*
X52013222Y-46990000D01*
X51959463Y-47055506D01*
X51900498Y-47165820D01*
X51864188Y-47285518D01*
X51851928Y-47410000D01*
X51855000Y-47974250D01*
X52013750Y-48133000D01*
X53213000Y-48133000D01*
X53213000Y-45847000D01*
X52013750Y-45847000D01*
X51855000Y-46005750D01*
X51851928Y-46570000D01*
X47660000Y-46570000D01*
X47660000Y-44030000D01*
X51851928Y-44030000D01*
X51864188Y-44154482D01*
X51900498Y-44274180D01*
X51959463Y-44384494D01*
X52013222Y-44450000D01*
X51959463Y-44515506D01*
X51900498Y-44625820D01*
X51864188Y-44745518D01*
X51851928Y-44870000D01*
X51855000Y-45434250D01*
X52013750Y-45593000D01*
X53213000Y-45593000D01*
X53213000Y-43307000D01*
X52013750Y-43307000D01*
X51855000Y-43465750D01*
X51851928Y-44030000D01*
X47660000Y-44030000D01*
X47660000Y-42330000D01*
X51851928Y-42330000D01*
X51855000Y-42894250D01*
X52013750Y-43053000D01*
X53213000Y-43053000D01*
X53213000Y-41853750D01*
X53467000Y-41853750D01*
X53467000Y-43053000D01*
X53487000Y-43053000D01*
X53487000Y-43307000D01*
X53467000Y-43307000D01*
X53467000Y-45593000D01*
X53487000Y-45593000D01*
X53487000Y-45847000D01*
X53467000Y-45847000D01*
X53467000Y-48133000D01*
X53487000Y-48133000D01*
X53487000Y-48387000D01*
X53467000Y-48387000D01*
X53467000Y-50673000D01*
X53487000Y-50673000D01*
X53487000Y-50927000D01*
X53467000Y-50927000D01*
X53467000Y-53213000D01*
X53487000Y-53213000D01*
X53487000Y-53467000D01*
X53467000Y-53467000D01*
X53467000Y-55753000D01*
X53487000Y-55753000D01*
X53487000Y-56007000D01*
X53467000Y-56007000D01*
X53467000Y-57206250D01*
X53625750Y-57365000D01*
X54190000Y-57368072D01*
X54314482Y-57355812D01*
X54434180Y-57319502D01*
X54544494Y-57260537D01*
X54641185Y-57181185D01*
X54720537Y-57084494D01*
X54779502Y-56974180D01*
X54801513Y-56901620D01*
X54933368Y-57033475D01*
X55176589Y-57195990D01*
X55446842Y-57307932D01*
X55733740Y-57365000D01*
X56026260Y-57365000D01*
X56313158Y-57307932D01*
X56583411Y-57195990D01*
X56826632Y-57033475D01*
X57033475Y-56826632D01*
X57150000Y-56652240D01*
X57266525Y-56826632D01*
X57473368Y-57033475D01*
X57716589Y-57195990D01*
X57986842Y-57307932D01*
X58273740Y-57365000D01*
X58566260Y-57365000D01*
X58853158Y-57307932D01*
X59123411Y-57195990D01*
X59366632Y-57033475D01*
X59573475Y-56826632D01*
X59698178Y-56640000D01*
X74996199Y-56640000D01*
X76054000Y-57697802D01*
X76054000Y-57759939D01*
X76093774Y-57959898D01*
X76171795Y-58148256D01*
X76285063Y-58317774D01*
X76429226Y-58461937D01*
X76598744Y-58575205D01*
X76787102Y-58653226D01*
X76987061Y-58693000D01*
X77190939Y-58693000D01*
X77390898Y-58653226D01*
X77579256Y-58575205D01*
X77748774Y-58461937D01*
X77892937Y-58317774D01*
X78006205Y-58148256D01*
X78084226Y-57959898D01*
X78124000Y-57759939D01*
X78124000Y-57556061D01*
X78084226Y-57356102D01*
X78006205Y-57167744D01*
X77892937Y-56998226D01*
X77748774Y-56854063D01*
X77579256Y-56740795D01*
X77390898Y-56662774D01*
X77190939Y-56623000D01*
X77141903Y-56623000D01*
X77240774Y-56556937D01*
X77284711Y-56513000D01*
X79934845Y-56513000D01*
X79964010Y-56583411D01*
X80126525Y-56826632D01*
X80333368Y-57033475D01*
X80576589Y-57195990D01*
X80846842Y-57307932D01*
X81133740Y-57365000D01*
X81426260Y-57365000D01*
X81713158Y-57307932D01*
X81983411Y-57195990D01*
X82226632Y-57033475D01*
X82433475Y-56826632D01*
X82550000Y-56652240D01*
X82666525Y-56826632D01*
X82873368Y-57033475D01*
X83116589Y-57195990D01*
X83386842Y-57307932D01*
X83673740Y-57365000D01*
X83966260Y-57365000D01*
X84253158Y-57307932D01*
X84523411Y-57195990D01*
X84766632Y-57033475D01*
X84898487Y-56901620D01*
X84920498Y-56974180D01*
X84979463Y-57084494D01*
X85058815Y-57181185D01*
X85155506Y-57260537D01*
X85265820Y-57319502D01*
X85385518Y-57355812D01*
X85510000Y-57368072D01*
X86074250Y-57365000D01*
X86233000Y-57206250D01*
X86233000Y-56007000D01*
X86487000Y-56007000D01*
X86487000Y-57206250D01*
X86645750Y-57365000D01*
X87210000Y-57368072D01*
X87334482Y-57355812D01*
X87454180Y-57319502D01*
X87564494Y-57260537D01*
X87661185Y-57181185D01*
X87740537Y-57084494D01*
X87799502Y-56974180D01*
X87835812Y-56854482D01*
X87848072Y-56730000D01*
X87845000Y-56165750D01*
X87686250Y-56007000D01*
X86487000Y-56007000D01*
X86233000Y-56007000D01*
X86213000Y-56007000D01*
X86213000Y-55753000D01*
X86233000Y-55753000D01*
X86233000Y-53467000D01*
X86487000Y-53467000D01*
X86487000Y-55753000D01*
X87686250Y-55753000D01*
X87845000Y-55594250D01*
X87848072Y-55030000D01*
X87835812Y-54905518D01*
X87799502Y-54785820D01*
X87740537Y-54675506D01*
X87686778Y-54610000D01*
X87740537Y-54544494D01*
X87799502Y-54434180D01*
X87835812Y-54314482D01*
X87848072Y-54190000D01*
X87845000Y-53625750D01*
X87686250Y-53467000D01*
X86487000Y-53467000D01*
X86233000Y-53467000D01*
X86213000Y-53467000D01*
X86213000Y-53213000D01*
X86233000Y-53213000D01*
X86233000Y-50927000D01*
X86487000Y-50927000D01*
X86487000Y-53213000D01*
X87686250Y-53213000D01*
X87845000Y-53054250D01*
X87848072Y-52490000D01*
X87835812Y-52365518D01*
X87799502Y-52245820D01*
X87740537Y-52135506D01*
X87686778Y-52070000D01*
X87740537Y-52004494D01*
X87799502Y-51894180D01*
X87835812Y-51774482D01*
X87848072Y-51650000D01*
X87845000Y-51085750D01*
X87686250Y-50927000D01*
X86487000Y-50927000D01*
X86233000Y-50927000D01*
X86213000Y-50927000D01*
X86213000Y-50673000D01*
X86233000Y-50673000D01*
X86233000Y-48387000D01*
X86487000Y-48387000D01*
X86487000Y-50673000D01*
X87686250Y-50673000D01*
X87845000Y-50514250D01*
X87848072Y-49950000D01*
X87835812Y-49825518D01*
X87799502Y-49705820D01*
X87740537Y-49595506D01*
X87686778Y-49530000D01*
X87740537Y-49464494D01*
X87799502Y-49354180D01*
X87835812Y-49234482D01*
X87848072Y-49110000D01*
X87845000Y-48545750D01*
X87686250Y-48387000D01*
X86487000Y-48387000D01*
X86233000Y-48387000D01*
X86213000Y-48387000D01*
X86213000Y-48133000D01*
X86233000Y-48133000D01*
X86233000Y-45847000D01*
X86487000Y-45847000D01*
X86487000Y-48133000D01*
X87686250Y-48133000D01*
X87845000Y-47974250D01*
X87848072Y-47410000D01*
X87835812Y-47285518D01*
X87799502Y-47165820D01*
X87740537Y-47055506D01*
X87686778Y-46990000D01*
X87740537Y-46924494D01*
X87799502Y-46814180D01*
X87835812Y-46694482D01*
X87848072Y-46570000D01*
X87845000Y-46005750D01*
X87686250Y-45847000D01*
X86487000Y-45847000D01*
X86233000Y-45847000D01*
X86213000Y-45847000D01*
X86213000Y-45593000D01*
X86233000Y-45593000D01*
X86233000Y-43307000D01*
X86487000Y-43307000D01*
X86487000Y-45593000D01*
X87686250Y-45593000D01*
X87845000Y-45434250D01*
X87848072Y-44870000D01*
X87835812Y-44745518D01*
X87799502Y-44625820D01*
X87740537Y-44515506D01*
X87686778Y-44450000D01*
X87740537Y-44384494D01*
X87799502Y-44274180D01*
X87835812Y-44154482D01*
X87848072Y-44030000D01*
X87845000Y-43465750D01*
X87686250Y-43307000D01*
X86487000Y-43307000D01*
X86233000Y-43307000D01*
X86213000Y-43307000D01*
X86213000Y-43053000D01*
X86233000Y-43053000D01*
X86233000Y-41853750D01*
X86487000Y-41853750D01*
X86487000Y-43053000D01*
X87686250Y-43053000D01*
X87845000Y-42894250D01*
X87848072Y-42330000D01*
X87835812Y-42205518D01*
X87799502Y-42085820D01*
X87740537Y-41975506D01*
X87661185Y-41878815D01*
X87564494Y-41799463D01*
X87454180Y-41740498D01*
X87334482Y-41704188D01*
X87210000Y-41691928D01*
X86645750Y-41695000D01*
X86487000Y-41853750D01*
X86233000Y-41853750D01*
X86074250Y-41695000D01*
X85510000Y-41691928D01*
X85385518Y-41704188D01*
X85265820Y-41740498D01*
X85155506Y-41799463D01*
X85058815Y-41878815D01*
X84979463Y-41975506D01*
X84920498Y-42085820D01*
X84898487Y-42158380D01*
X84766632Y-42026525D01*
X84523411Y-41864010D01*
X84253158Y-41752068D01*
X83966260Y-41695000D01*
X83673740Y-41695000D01*
X83386842Y-41752068D01*
X83116589Y-41864010D01*
X82873368Y-42026525D01*
X82666525Y-42233368D01*
X82550000Y-42407760D01*
X82433475Y-42233368D01*
X82226632Y-42026525D01*
X81983411Y-41864010D01*
X81713158Y-41752068D01*
X81426260Y-41695000D01*
X81133740Y-41695000D01*
X80846842Y-41752068D01*
X80576589Y-41864010D01*
X80333368Y-42026525D01*
X80126525Y-42233368D01*
X80001822Y-42420000D01*
X74205323Y-42420000D01*
X74168000Y-42416324D01*
X74130677Y-42420000D01*
X74130667Y-42420000D01*
X74019014Y-42430997D01*
X73875753Y-42474454D01*
X73743724Y-42545026D01*
X73627999Y-42639999D01*
X73604201Y-42668997D01*
X69523198Y-46750001D01*
X69461060Y-46750001D01*
X69261101Y-46789775D01*
X69072743Y-46867796D01*
X68903225Y-46981064D01*
X68759062Y-47125227D01*
X68645794Y-47294745D01*
X68567773Y-47483103D01*
X68527999Y-47683062D01*
X68527999Y-47886940D01*
X68567773Y-48086899D01*
X68645794Y-48275257D01*
X68759062Y-48444775D01*
X68903225Y-48588938D01*
X69072743Y-48702206D01*
X69261101Y-48780227D01*
X69461060Y-48820001D01*
X69664938Y-48820001D01*
X69864897Y-48780227D01*
X70053255Y-48702206D01*
X70222773Y-48588938D01*
X70366936Y-48444775D01*
X70480204Y-48275257D01*
X70558225Y-48086899D01*
X70597999Y-47886940D01*
X70597999Y-47824802D01*
X74482802Y-43940000D01*
X80001822Y-43940000D01*
X80126525Y-44126632D01*
X80333368Y-44333475D01*
X80507760Y-44450000D01*
X80333368Y-44566525D01*
X80126525Y-44773368D01*
X79964010Y-45016589D01*
X79852068Y-45286842D01*
X79795000Y-45573740D01*
X79795000Y-45866260D01*
X79838790Y-46086407D01*
X76393199Y-49532000D01*
X69918711Y-49532000D01*
X69874774Y-49488063D01*
X69705256Y-49374795D01*
X69516898Y-49296774D01*
X69316939Y-49257000D01*
X69113061Y-49257000D01*
X68913102Y-49296774D01*
X68724744Y-49374795D01*
X68555226Y-49488063D01*
X68411063Y-49632226D01*
X68297795Y-49801744D01*
X68219774Y-49990102D01*
X68180000Y-50190061D01*
X68180000Y-50393939D01*
X68210644Y-50548000D01*
X60489323Y-50548000D01*
X60452000Y-50544324D01*
X60414677Y-50548000D01*
X60414667Y-50548000D01*
X60303014Y-50558997D01*
X60187959Y-50593898D01*
X60159753Y-50602454D01*
X60027723Y-50673026D01*
X59944083Y-50741668D01*
X59911999Y-50767999D01*
X59905000Y-50776527D01*
X59905000Y-50653740D01*
X59847932Y-50366842D01*
X59735990Y-50096589D01*
X59573475Y-49853368D01*
X59366632Y-49646525D01*
X59192240Y-49530000D01*
X59366632Y-49413475D01*
X59573475Y-49206632D01*
X59735990Y-48963411D01*
X59847932Y-48693158D01*
X59905000Y-48406260D01*
X59905000Y-48113740D01*
X59847932Y-47826842D01*
X59735990Y-47556589D01*
X59573475Y-47313368D01*
X59366632Y-47106525D01*
X59192240Y-46990000D01*
X59366632Y-46873475D01*
X59573475Y-46666632D01*
X59735990Y-46423411D01*
X59847932Y-46153158D01*
X59905000Y-45866260D01*
X59905000Y-45573740D01*
X59847932Y-45286842D01*
X59735990Y-45016589D01*
X59573475Y-44773368D01*
X59366632Y-44566525D01*
X59192240Y-44450000D01*
X59366632Y-44333475D01*
X59573475Y-44126632D01*
X59735990Y-43883411D01*
X59847932Y-43613158D01*
X59905000Y-43326260D01*
X59905000Y-43033740D01*
X59847932Y-42746842D01*
X59735990Y-42476589D01*
X59573475Y-42233368D01*
X59366632Y-42026525D01*
X59123411Y-41864010D01*
X58853158Y-41752068D01*
X58566260Y-41695000D01*
X58273740Y-41695000D01*
X57986842Y-41752068D01*
X57716589Y-41864010D01*
X57473368Y-42026525D01*
X57266525Y-42233368D01*
X57150000Y-42407760D01*
X57033475Y-42233368D01*
X56826632Y-42026525D01*
X56583411Y-41864010D01*
X56313158Y-41752068D01*
X56026260Y-41695000D01*
X55733740Y-41695000D01*
X55446842Y-41752068D01*
X55176589Y-41864010D01*
X54933368Y-42026525D01*
X54801513Y-42158380D01*
X54779502Y-42085820D01*
X54720537Y-41975506D01*
X54641185Y-41878815D01*
X54544494Y-41799463D01*
X54434180Y-41740498D01*
X54314482Y-41704188D01*
X54190000Y-41691928D01*
X53625750Y-41695000D01*
X53467000Y-41853750D01*
X53213000Y-41853750D01*
X53054250Y-41695000D01*
X52490000Y-41691928D01*
X52365518Y-41704188D01*
X52245820Y-41740498D01*
X52135506Y-41799463D01*
X52038815Y-41878815D01*
X51959463Y-41975506D01*
X51900498Y-42085820D01*
X51864188Y-42205518D01*
X51851928Y-42330000D01*
X47660000Y-42330000D01*
X47660000Y-38772485D01*
X47690000Y-38772485D01*
X47690000Y-39227515D01*
X47778772Y-39673802D01*
X47952905Y-40094195D01*
X48205706Y-40472539D01*
X48527461Y-40794294D01*
X48905805Y-41047095D01*
X49326198Y-41221228D01*
X49772485Y-41310000D01*
X50227515Y-41310000D01*
X50673802Y-41221228D01*
X51094195Y-41047095D01*
X51472539Y-40794294D01*
X51794294Y-40472539D01*
X52047095Y-40094195D01*
X52221228Y-39673802D01*
X52310000Y-39227515D01*
X52310000Y-38772485D01*
X87690000Y-38772485D01*
X87690000Y-39227515D01*
X87778772Y-39673802D01*
X87952905Y-40094195D01*
X88205706Y-40472539D01*
X88527461Y-40794294D01*
X88905805Y-41047095D01*
X89326198Y-41221228D01*
X89772485Y-41310000D01*
X90227515Y-41310000D01*
X90673802Y-41221228D01*
X91094195Y-41047095D01*
X91472539Y-40794294D01*
X91794294Y-40472539D01*
X92047095Y-40094195D01*
X92221228Y-39673802D01*
X92310000Y-39227515D01*
X92310000Y-38772485D01*
X92221228Y-38326198D01*
X92047095Y-37905805D01*
X91794294Y-37527461D01*
X91472539Y-37205706D01*
X91094195Y-36952905D01*
X90673802Y-36778772D01*
X90227515Y-36690000D01*
X89772485Y-36690000D01*
X89326198Y-36778772D01*
X88905805Y-36952905D01*
X88527461Y-37205706D01*
X88205706Y-37527461D01*
X87952905Y-37905805D01*
X87778772Y-38326198D01*
X87690000Y-38772485D01*
X52310000Y-38772485D01*
X52221228Y-38326198D01*
X52047095Y-37905805D01*
X51794294Y-37527461D01*
X51472539Y-37205706D01*
X51094195Y-36952905D01*
X50673802Y-36778772D01*
X50227515Y-36690000D01*
X49772485Y-36690000D01*
X49326198Y-36778772D01*
X48905805Y-36952905D01*
X48527461Y-37205706D01*
X48205706Y-37527461D01*
X47952905Y-37905805D01*
X47778772Y-38326198D01*
X47690000Y-38772485D01*
X47660000Y-38772485D01*
X47660000Y-38032279D01*
X47688625Y-37740341D01*
X47764035Y-37490571D01*
X47886522Y-37260208D01*
X48051422Y-37058020D01*
X48252450Y-36891714D01*
X48481954Y-36767622D01*
X48731195Y-36690469D01*
X49021088Y-36660000D01*
X90967721Y-36660000D01*
X91259659Y-36688625D01*
M02*
