G04 #@! TF.GenerationSoftware,KiCad,Pcbnew,5.1.5+dfsg1-2build2*
G04 #@! TF.CreationDate,2021-02-08T17:23:34+09:00*
G04 #@! TF.ProjectId,v3-pwm-buffer,76332d70-776d-42d6-9275-666665722e6b,rev?*
G04 #@! TF.SameCoordinates,Original*
G04 #@! TF.FileFunction,Copper,L1,Top*
G04 #@! TF.FilePolarity,Positive*
%FSLAX46Y46*%
G04 Gerber Fmt 4.6, Leading zero omitted, Abs format (unit mm)*
G04 Created by KiCad (PCBNEW 5.1.5+dfsg1-2build2) date 2021-02-08 17:23:34*
%MOMM*%
%LPD*%
G04 APERTURE LIST*
%ADD10O,1.700000X1.700000*%
%ADD11R,1.700000X1.700000*%
%ADD12C,0.100000*%
%ADD13C,3.350000*%
%ADD14C,0.800000*%
%ADD15C,0.250000*%
%ADD16C,0.254000*%
G04 APERTURE END LIST*
D10*
X81280000Y-55880000D03*
X83820000Y-55880000D03*
D11*
X86360000Y-55880000D03*
D10*
X81280000Y-53340000D03*
X83820000Y-53340000D03*
D11*
X86360000Y-53340000D03*
D10*
X81280000Y-50800000D03*
X83820000Y-50800000D03*
D11*
X86360000Y-50800000D03*
D10*
X81280000Y-48260000D03*
X83820000Y-48260000D03*
D11*
X86360000Y-48260000D03*
D10*
X81280000Y-45720000D03*
X83820000Y-45720000D03*
D11*
X86360000Y-45720000D03*
D10*
X81280000Y-43180000D03*
X83820000Y-43180000D03*
D11*
X86360000Y-43180000D03*
D10*
X58420000Y-55880000D03*
X55880000Y-55880000D03*
D11*
X53340000Y-55880000D03*
D10*
X58420000Y-53340000D03*
X55880000Y-53340000D03*
D11*
X53340000Y-53340000D03*
D10*
X58420000Y-50800000D03*
X55880000Y-50800000D03*
D11*
X53340000Y-50800000D03*
D10*
X58420000Y-48260000D03*
X55880000Y-48260000D03*
D11*
X53340000Y-48260000D03*
D10*
X58420000Y-45720000D03*
X55880000Y-45720000D03*
D11*
X53340000Y-45720000D03*
D10*
X58420000Y-43180000D03*
X55880000Y-43180000D03*
D11*
X53340000Y-43180000D03*
G04 #@! TA.AperFunction,SMDPad,CuDef*
D12*
G36*
X73079704Y-46215723D02*
G01*
X73094265Y-46217883D01*
X73108544Y-46221460D01*
X73122404Y-46226419D01*
X73135711Y-46232713D01*
X73148337Y-46240281D01*
X73160160Y-46249049D01*
X73171067Y-46258935D01*
X73180953Y-46269842D01*
X73189721Y-46281665D01*
X73197289Y-46294291D01*
X73203583Y-46307598D01*
X73208542Y-46321458D01*
X73212119Y-46335737D01*
X73214279Y-46350298D01*
X73215001Y-46365001D01*
X73215001Y-46665001D01*
X73214279Y-46679704D01*
X73212119Y-46694265D01*
X73208542Y-46708544D01*
X73203583Y-46722404D01*
X73197289Y-46735711D01*
X73189721Y-46748337D01*
X73180953Y-46760160D01*
X73171067Y-46771067D01*
X73160160Y-46780953D01*
X73148337Y-46789721D01*
X73135711Y-46797289D01*
X73122404Y-46803583D01*
X73108544Y-46808542D01*
X73094265Y-46812119D01*
X73079704Y-46814279D01*
X73065001Y-46815001D01*
X71415001Y-46815001D01*
X71400298Y-46814279D01*
X71385737Y-46812119D01*
X71371458Y-46808542D01*
X71357598Y-46803583D01*
X71344291Y-46797289D01*
X71331665Y-46789721D01*
X71319842Y-46780953D01*
X71308935Y-46771067D01*
X71299049Y-46760160D01*
X71290281Y-46748337D01*
X71282713Y-46735711D01*
X71276419Y-46722404D01*
X71271460Y-46708544D01*
X71267883Y-46694265D01*
X71265723Y-46679704D01*
X71265001Y-46665001D01*
X71265001Y-46365001D01*
X71265723Y-46350298D01*
X71267883Y-46335737D01*
X71271460Y-46321458D01*
X71276419Y-46307598D01*
X71282713Y-46294291D01*
X71290281Y-46281665D01*
X71299049Y-46269842D01*
X71308935Y-46258935D01*
X71319842Y-46249049D01*
X71331665Y-46240281D01*
X71344291Y-46232713D01*
X71357598Y-46226419D01*
X71371458Y-46221460D01*
X71385737Y-46217883D01*
X71400298Y-46215723D01*
X71415001Y-46215001D01*
X73065001Y-46215001D01*
X73079704Y-46215723D01*
G37*
G04 #@! TD.AperFunction*
G04 #@! TA.AperFunction,SMDPad,CuDef*
G36*
X73079704Y-47485723D02*
G01*
X73094265Y-47487883D01*
X73108544Y-47491460D01*
X73122404Y-47496419D01*
X73135711Y-47502713D01*
X73148337Y-47510281D01*
X73160160Y-47519049D01*
X73171067Y-47528935D01*
X73180953Y-47539842D01*
X73189721Y-47551665D01*
X73197289Y-47564291D01*
X73203583Y-47577598D01*
X73208542Y-47591458D01*
X73212119Y-47605737D01*
X73214279Y-47620298D01*
X73215001Y-47635001D01*
X73215001Y-47935001D01*
X73214279Y-47949704D01*
X73212119Y-47964265D01*
X73208542Y-47978544D01*
X73203583Y-47992404D01*
X73197289Y-48005711D01*
X73189721Y-48018337D01*
X73180953Y-48030160D01*
X73171067Y-48041067D01*
X73160160Y-48050953D01*
X73148337Y-48059721D01*
X73135711Y-48067289D01*
X73122404Y-48073583D01*
X73108544Y-48078542D01*
X73094265Y-48082119D01*
X73079704Y-48084279D01*
X73065001Y-48085001D01*
X71415001Y-48085001D01*
X71400298Y-48084279D01*
X71385737Y-48082119D01*
X71371458Y-48078542D01*
X71357598Y-48073583D01*
X71344291Y-48067289D01*
X71331665Y-48059721D01*
X71319842Y-48050953D01*
X71308935Y-48041067D01*
X71299049Y-48030160D01*
X71290281Y-48018337D01*
X71282713Y-48005711D01*
X71276419Y-47992404D01*
X71271460Y-47978544D01*
X71267883Y-47964265D01*
X71265723Y-47949704D01*
X71265001Y-47935001D01*
X71265001Y-47635001D01*
X71265723Y-47620298D01*
X71267883Y-47605737D01*
X71271460Y-47591458D01*
X71276419Y-47577598D01*
X71282713Y-47564291D01*
X71290281Y-47551665D01*
X71299049Y-47539842D01*
X71308935Y-47528935D01*
X71319842Y-47519049D01*
X71331665Y-47510281D01*
X71344291Y-47502713D01*
X71357598Y-47496419D01*
X71371458Y-47491460D01*
X71385737Y-47487883D01*
X71400298Y-47485723D01*
X71415001Y-47485001D01*
X73065001Y-47485001D01*
X73079704Y-47485723D01*
G37*
G04 #@! TD.AperFunction*
G04 #@! TA.AperFunction,SMDPad,CuDef*
G36*
X73079704Y-48755723D02*
G01*
X73094265Y-48757883D01*
X73108544Y-48761460D01*
X73122404Y-48766419D01*
X73135711Y-48772713D01*
X73148337Y-48780281D01*
X73160160Y-48789049D01*
X73171067Y-48798935D01*
X73180953Y-48809842D01*
X73189721Y-48821665D01*
X73197289Y-48834291D01*
X73203583Y-48847598D01*
X73208542Y-48861458D01*
X73212119Y-48875737D01*
X73214279Y-48890298D01*
X73215001Y-48905001D01*
X73215001Y-49205001D01*
X73214279Y-49219704D01*
X73212119Y-49234265D01*
X73208542Y-49248544D01*
X73203583Y-49262404D01*
X73197289Y-49275711D01*
X73189721Y-49288337D01*
X73180953Y-49300160D01*
X73171067Y-49311067D01*
X73160160Y-49320953D01*
X73148337Y-49329721D01*
X73135711Y-49337289D01*
X73122404Y-49343583D01*
X73108544Y-49348542D01*
X73094265Y-49352119D01*
X73079704Y-49354279D01*
X73065001Y-49355001D01*
X71415001Y-49355001D01*
X71400298Y-49354279D01*
X71385737Y-49352119D01*
X71371458Y-49348542D01*
X71357598Y-49343583D01*
X71344291Y-49337289D01*
X71331665Y-49329721D01*
X71319842Y-49320953D01*
X71308935Y-49311067D01*
X71299049Y-49300160D01*
X71290281Y-49288337D01*
X71282713Y-49275711D01*
X71276419Y-49262404D01*
X71271460Y-49248544D01*
X71267883Y-49234265D01*
X71265723Y-49219704D01*
X71265001Y-49205001D01*
X71265001Y-48905001D01*
X71265723Y-48890298D01*
X71267883Y-48875737D01*
X71271460Y-48861458D01*
X71276419Y-48847598D01*
X71282713Y-48834291D01*
X71290281Y-48821665D01*
X71299049Y-48809842D01*
X71308935Y-48798935D01*
X71319842Y-48789049D01*
X71331665Y-48780281D01*
X71344291Y-48772713D01*
X71357598Y-48766419D01*
X71371458Y-48761460D01*
X71385737Y-48757883D01*
X71400298Y-48755723D01*
X71415001Y-48755001D01*
X73065001Y-48755001D01*
X73079704Y-48755723D01*
G37*
G04 #@! TD.AperFunction*
G04 #@! TA.AperFunction,SMDPad,CuDef*
G36*
X73079704Y-50025723D02*
G01*
X73094265Y-50027883D01*
X73108544Y-50031460D01*
X73122404Y-50036419D01*
X73135711Y-50042713D01*
X73148337Y-50050281D01*
X73160160Y-50059049D01*
X73171067Y-50068935D01*
X73180953Y-50079842D01*
X73189721Y-50091665D01*
X73197289Y-50104291D01*
X73203583Y-50117598D01*
X73208542Y-50131458D01*
X73212119Y-50145737D01*
X73214279Y-50160298D01*
X73215001Y-50175001D01*
X73215001Y-50475001D01*
X73214279Y-50489704D01*
X73212119Y-50504265D01*
X73208542Y-50518544D01*
X73203583Y-50532404D01*
X73197289Y-50545711D01*
X73189721Y-50558337D01*
X73180953Y-50570160D01*
X73171067Y-50581067D01*
X73160160Y-50590953D01*
X73148337Y-50599721D01*
X73135711Y-50607289D01*
X73122404Y-50613583D01*
X73108544Y-50618542D01*
X73094265Y-50622119D01*
X73079704Y-50624279D01*
X73065001Y-50625001D01*
X71415001Y-50625001D01*
X71400298Y-50624279D01*
X71385737Y-50622119D01*
X71371458Y-50618542D01*
X71357598Y-50613583D01*
X71344291Y-50607289D01*
X71331665Y-50599721D01*
X71319842Y-50590953D01*
X71308935Y-50581067D01*
X71299049Y-50570160D01*
X71290281Y-50558337D01*
X71282713Y-50545711D01*
X71276419Y-50532404D01*
X71271460Y-50518544D01*
X71267883Y-50504265D01*
X71265723Y-50489704D01*
X71265001Y-50475001D01*
X71265001Y-50175001D01*
X71265723Y-50160298D01*
X71267883Y-50145737D01*
X71271460Y-50131458D01*
X71276419Y-50117598D01*
X71282713Y-50104291D01*
X71290281Y-50091665D01*
X71299049Y-50079842D01*
X71308935Y-50068935D01*
X71319842Y-50059049D01*
X71331665Y-50050281D01*
X71344291Y-50042713D01*
X71357598Y-50036419D01*
X71371458Y-50031460D01*
X71385737Y-50027883D01*
X71400298Y-50025723D01*
X71415001Y-50025001D01*
X73065001Y-50025001D01*
X73079704Y-50025723D01*
G37*
G04 #@! TD.AperFunction*
G04 #@! TA.AperFunction,SMDPad,CuDef*
G36*
X73079704Y-51295723D02*
G01*
X73094265Y-51297883D01*
X73108544Y-51301460D01*
X73122404Y-51306419D01*
X73135711Y-51312713D01*
X73148337Y-51320281D01*
X73160160Y-51329049D01*
X73171067Y-51338935D01*
X73180953Y-51349842D01*
X73189721Y-51361665D01*
X73197289Y-51374291D01*
X73203583Y-51387598D01*
X73208542Y-51401458D01*
X73212119Y-51415737D01*
X73214279Y-51430298D01*
X73215001Y-51445001D01*
X73215001Y-51745001D01*
X73214279Y-51759704D01*
X73212119Y-51774265D01*
X73208542Y-51788544D01*
X73203583Y-51802404D01*
X73197289Y-51815711D01*
X73189721Y-51828337D01*
X73180953Y-51840160D01*
X73171067Y-51851067D01*
X73160160Y-51860953D01*
X73148337Y-51869721D01*
X73135711Y-51877289D01*
X73122404Y-51883583D01*
X73108544Y-51888542D01*
X73094265Y-51892119D01*
X73079704Y-51894279D01*
X73065001Y-51895001D01*
X71415001Y-51895001D01*
X71400298Y-51894279D01*
X71385737Y-51892119D01*
X71371458Y-51888542D01*
X71357598Y-51883583D01*
X71344291Y-51877289D01*
X71331665Y-51869721D01*
X71319842Y-51860953D01*
X71308935Y-51851067D01*
X71299049Y-51840160D01*
X71290281Y-51828337D01*
X71282713Y-51815711D01*
X71276419Y-51802404D01*
X71271460Y-51788544D01*
X71267883Y-51774265D01*
X71265723Y-51759704D01*
X71265001Y-51745001D01*
X71265001Y-51445001D01*
X71265723Y-51430298D01*
X71267883Y-51415737D01*
X71271460Y-51401458D01*
X71276419Y-51387598D01*
X71282713Y-51374291D01*
X71290281Y-51361665D01*
X71299049Y-51349842D01*
X71308935Y-51338935D01*
X71319842Y-51329049D01*
X71331665Y-51320281D01*
X71344291Y-51312713D01*
X71357598Y-51306419D01*
X71371458Y-51301460D01*
X71385737Y-51297883D01*
X71400298Y-51295723D01*
X71415001Y-51295001D01*
X73065001Y-51295001D01*
X73079704Y-51295723D01*
G37*
G04 #@! TD.AperFunction*
G04 #@! TA.AperFunction,SMDPad,CuDef*
G36*
X73079704Y-52565723D02*
G01*
X73094265Y-52567883D01*
X73108544Y-52571460D01*
X73122404Y-52576419D01*
X73135711Y-52582713D01*
X73148337Y-52590281D01*
X73160160Y-52599049D01*
X73171067Y-52608935D01*
X73180953Y-52619842D01*
X73189721Y-52631665D01*
X73197289Y-52644291D01*
X73203583Y-52657598D01*
X73208542Y-52671458D01*
X73212119Y-52685737D01*
X73214279Y-52700298D01*
X73215001Y-52715001D01*
X73215001Y-53015001D01*
X73214279Y-53029704D01*
X73212119Y-53044265D01*
X73208542Y-53058544D01*
X73203583Y-53072404D01*
X73197289Y-53085711D01*
X73189721Y-53098337D01*
X73180953Y-53110160D01*
X73171067Y-53121067D01*
X73160160Y-53130953D01*
X73148337Y-53139721D01*
X73135711Y-53147289D01*
X73122404Y-53153583D01*
X73108544Y-53158542D01*
X73094265Y-53162119D01*
X73079704Y-53164279D01*
X73065001Y-53165001D01*
X71415001Y-53165001D01*
X71400298Y-53164279D01*
X71385737Y-53162119D01*
X71371458Y-53158542D01*
X71357598Y-53153583D01*
X71344291Y-53147289D01*
X71331665Y-53139721D01*
X71319842Y-53130953D01*
X71308935Y-53121067D01*
X71299049Y-53110160D01*
X71290281Y-53098337D01*
X71282713Y-53085711D01*
X71276419Y-53072404D01*
X71271460Y-53058544D01*
X71267883Y-53044265D01*
X71265723Y-53029704D01*
X71265001Y-53015001D01*
X71265001Y-52715001D01*
X71265723Y-52700298D01*
X71267883Y-52685737D01*
X71271460Y-52671458D01*
X71276419Y-52657598D01*
X71282713Y-52644291D01*
X71290281Y-52631665D01*
X71299049Y-52619842D01*
X71308935Y-52608935D01*
X71319842Y-52599049D01*
X71331665Y-52590281D01*
X71344291Y-52582713D01*
X71357598Y-52576419D01*
X71371458Y-52571460D01*
X71385737Y-52567883D01*
X71400298Y-52565723D01*
X71415001Y-52565001D01*
X73065001Y-52565001D01*
X73079704Y-52565723D01*
G37*
G04 #@! TD.AperFunction*
G04 #@! TA.AperFunction,SMDPad,CuDef*
G36*
X73079704Y-53835723D02*
G01*
X73094265Y-53837883D01*
X73108544Y-53841460D01*
X73122404Y-53846419D01*
X73135711Y-53852713D01*
X73148337Y-53860281D01*
X73160160Y-53869049D01*
X73171067Y-53878935D01*
X73180953Y-53889842D01*
X73189721Y-53901665D01*
X73197289Y-53914291D01*
X73203583Y-53927598D01*
X73208542Y-53941458D01*
X73212119Y-53955737D01*
X73214279Y-53970298D01*
X73215001Y-53985001D01*
X73215001Y-54285001D01*
X73214279Y-54299704D01*
X73212119Y-54314265D01*
X73208542Y-54328544D01*
X73203583Y-54342404D01*
X73197289Y-54355711D01*
X73189721Y-54368337D01*
X73180953Y-54380160D01*
X73171067Y-54391067D01*
X73160160Y-54400953D01*
X73148337Y-54409721D01*
X73135711Y-54417289D01*
X73122404Y-54423583D01*
X73108544Y-54428542D01*
X73094265Y-54432119D01*
X73079704Y-54434279D01*
X73065001Y-54435001D01*
X71415001Y-54435001D01*
X71400298Y-54434279D01*
X71385737Y-54432119D01*
X71371458Y-54428542D01*
X71357598Y-54423583D01*
X71344291Y-54417289D01*
X71331665Y-54409721D01*
X71319842Y-54400953D01*
X71308935Y-54391067D01*
X71299049Y-54380160D01*
X71290281Y-54368337D01*
X71282713Y-54355711D01*
X71276419Y-54342404D01*
X71271460Y-54328544D01*
X71267883Y-54314265D01*
X71265723Y-54299704D01*
X71265001Y-54285001D01*
X71265001Y-53985001D01*
X71265723Y-53970298D01*
X71267883Y-53955737D01*
X71271460Y-53941458D01*
X71276419Y-53927598D01*
X71282713Y-53914291D01*
X71290281Y-53901665D01*
X71299049Y-53889842D01*
X71308935Y-53878935D01*
X71319842Y-53869049D01*
X71331665Y-53860281D01*
X71344291Y-53852713D01*
X71357598Y-53846419D01*
X71371458Y-53841460D01*
X71385737Y-53837883D01*
X71400298Y-53835723D01*
X71415001Y-53835001D01*
X73065001Y-53835001D01*
X73079704Y-53835723D01*
G37*
G04 #@! TD.AperFunction*
G04 #@! TA.AperFunction,SMDPad,CuDef*
G36*
X68129704Y-53835723D02*
G01*
X68144265Y-53837883D01*
X68158544Y-53841460D01*
X68172404Y-53846419D01*
X68185711Y-53852713D01*
X68198337Y-53860281D01*
X68210160Y-53869049D01*
X68221067Y-53878935D01*
X68230953Y-53889842D01*
X68239721Y-53901665D01*
X68247289Y-53914291D01*
X68253583Y-53927598D01*
X68258542Y-53941458D01*
X68262119Y-53955737D01*
X68264279Y-53970298D01*
X68265001Y-53985001D01*
X68265001Y-54285001D01*
X68264279Y-54299704D01*
X68262119Y-54314265D01*
X68258542Y-54328544D01*
X68253583Y-54342404D01*
X68247289Y-54355711D01*
X68239721Y-54368337D01*
X68230953Y-54380160D01*
X68221067Y-54391067D01*
X68210160Y-54400953D01*
X68198337Y-54409721D01*
X68185711Y-54417289D01*
X68172404Y-54423583D01*
X68158544Y-54428542D01*
X68144265Y-54432119D01*
X68129704Y-54434279D01*
X68115001Y-54435001D01*
X66465001Y-54435001D01*
X66450298Y-54434279D01*
X66435737Y-54432119D01*
X66421458Y-54428542D01*
X66407598Y-54423583D01*
X66394291Y-54417289D01*
X66381665Y-54409721D01*
X66369842Y-54400953D01*
X66358935Y-54391067D01*
X66349049Y-54380160D01*
X66340281Y-54368337D01*
X66332713Y-54355711D01*
X66326419Y-54342404D01*
X66321460Y-54328544D01*
X66317883Y-54314265D01*
X66315723Y-54299704D01*
X66315001Y-54285001D01*
X66315001Y-53985001D01*
X66315723Y-53970298D01*
X66317883Y-53955737D01*
X66321460Y-53941458D01*
X66326419Y-53927598D01*
X66332713Y-53914291D01*
X66340281Y-53901665D01*
X66349049Y-53889842D01*
X66358935Y-53878935D01*
X66369842Y-53869049D01*
X66381665Y-53860281D01*
X66394291Y-53852713D01*
X66407598Y-53846419D01*
X66421458Y-53841460D01*
X66435737Y-53837883D01*
X66450298Y-53835723D01*
X66465001Y-53835001D01*
X68115001Y-53835001D01*
X68129704Y-53835723D01*
G37*
G04 #@! TD.AperFunction*
G04 #@! TA.AperFunction,SMDPad,CuDef*
G36*
X68129704Y-52565723D02*
G01*
X68144265Y-52567883D01*
X68158544Y-52571460D01*
X68172404Y-52576419D01*
X68185711Y-52582713D01*
X68198337Y-52590281D01*
X68210160Y-52599049D01*
X68221067Y-52608935D01*
X68230953Y-52619842D01*
X68239721Y-52631665D01*
X68247289Y-52644291D01*
X68253583Y-52657598D01*
X68258542Y-52671458D01*
X68262119Y-52685737D01*
X68264279Y-52700298D01*
X68265001Y-52715001D01*
X68265001Y-53015001D01*
X68264279Y-53029704D01*
X68262119Y-53044265D01*
X68258542Y-53058544D01*
X68253583Y-53072404D01*
X68247289Y-53085711D01*
X68239721Y-53098337D01*
X68230953Y-53110160D01*
X68221067Y-53121067D01*
X68210160Y-53130953D01*
X68198337Y-53139721D01*
X68185711Y-53147289D01*
X68172404Y-53153583D01*
X68158544Y-53158542D01*
X68144265Y-53162119D01*
X68129704Y-53164279D01*
X68115001Y-53165001D01*
X66465001Y-53165001D01*
X66450298Y-53164279D01*
X66435737Y-53162119D01*
X66421458Y-53158542D01*
X66407598Y-53153583D01*
X66394291Y-53147289D01*
X66381665Y-53139721D01*
X66369842Y-53130953D01*
X66358935Y-53121067D01*
X66349049Y-53110160D01*
X66340281Y-53098337D01*
X66332713Y-53085711D01*
X66326419Y-53072404D01*
X66321460Y-53058544D01*
X66317883Y-53044265D01*
X66315723Y-53029704D01*
X66315001Y-53015001D01*
X66315001Y-52715001D01*
X66315723Y-52700298D01*
X66317883Y-52685737D01*
X66321460Y-52671458D01*
X66326419Y-52657598D01*
X66332713Y-52644291D01*
X66340281Y-52631665D01*
X66349049Y-52619842D01*
X66358935Y-52608935D01*
X66369842Y-52599049D01*
X66381665Y-52590281D01*
X66394291Y-52582713D01*
X66407598Y-52576419D01*
X66421458Y-52571460D01*
X66435737Y-52567883D01*
X66450298Y-52565723D01*
X66465001Y-52565001D01*
X68115001Y-52565001D01*
X68129704Y-52565723D01*
G37*
G04 #@! TD.AperFunction*
G04 #@! TA.AperFunction,SMDPad,CuDef*
G36*
X68129704Y-51295723D02*
G01*
X68144265Y-51297883D01*
X68158544Y-51301460D01*
X68172404Y-51306419D01*
X68185711Y-51312713D01*
X68198337Y-51320281D01*
X68210160Y-51329049D01*
X68221067Y-51338935D01*
X68230953Y-51349842D01*
X68239721Y-51361665D01*
X68247289Y-51374291D01*
X68253583Y-51387598D01*
X68258542Y-51401458D01*
X68262119Y-51415737D01*
X68264279Y-51430298D01*
X68265001Y-51445001D01*
X68265001Y-51745001D01*
X68264279Y-51759704D01*
X68262119Y-51774265D01*
X68258542Y-51788544D01*
X68253583Y-51802404D01*
X68247289Y-51815711D01*
X68239721Y-51828337D01*
X68230953Y-51840160D01*
X68221067Y-51851067D01*
X68210160Y-51860953D01*
X68198337Y-51869721D01*
X68185711Y-51877289D01*
X68172404Y-51883583D01*
X68158544Y-51888542D01*
X68144265Y-51892119D01*
X68129704Y-51894279D01*
X68115001Y-51895001D01*
X66465001Y-51895001D01*
X66450298Y-51894279D01*
X66435737Y-51892119D01*
X66421458Y-51888542D01*
X66407598Y-51883583D01*
X66394291Y-51877289D01*
X66381665Y-51869721D01*
X66369842Y-51860953D01*
X66358935Y-51851067D01*
X66349049Y-51840160D01*
X66340281Y-51828337D01*
X66332713Y-51815711D01*
X66326419Y-51802404D01*
X66321460Y-51788544D01*
X66317883Y-51774265D01*
X66315723Y-51759704D01*
X66315001Y-51745001D01*
X66315001Y-51445001D01*
X66315723Y-51430298D01*
X66317883Y-51415737D01*
X66321460Y-51401458D01*
X66326419Y-51387598D01*
X66332713Y-51374291D01*
X66340281Y-51361665D01*
X66349049Y-51349842D01*
X66358935Y-51338935D01*
X66369842Y-51329049D01*
X66381665Y-51320281D01*
X66394291Y-51312713D01*
X66407598Y-51306419D01*
X66421458Y-51301460D01*
X66435737Y-51297883D01*
X66450298Y-51295723D01*
X66465001Y-51295001D01*
X68115001Y-51295001D01*
X68129704Y-51295723D01*
G37*
G04 #@! TD.AperFunction*
G04 #@! TA.AperFunction,SMDPad,CuDef*
G36*
X68129704Y-50025723D02*
G01*
X68144265Y-50027883D01*
X68158544Y-50031460D01*
X68172404Y-50036419D01*
X68185711Y-50042713D01*
X68198337Y-50050281D01*
X68210160Y-50059049D01*
X68221067Y-50068935D01*
X68230953Y-50079842D01*
X68239721Y-50091665D01*
X68247289Y-50104291D01*
X68253583Y-50117598D01*
X68258542Y-50131458D01*
X68262119Y-50145737D01*
X68264279Y-50160298D01*
X68265001Y-50175001D01*
X68265001Y-50475001D01*
X68264279Y-50489704D01*
X68262119Y-50504265D01*
X68258542Y-50518544D01*
X68253583Y-50532404D01*
X68247289Y-50545711D01*
X68239721Y-50558337D01*
X68230953Y-50570160D01*
X68221067Y-50581067D01*
X68210160Y-50590953D01*
X68198337Y-50599721D01*
X68185711Y-50607289D01*
X68172404Y-50613583D01*
X68158544Y-50618542D01*
X68144265Y-50622119D01*
X68129704Y-50624279D01*
X68115001Y-50625001D01*
X66465001Y-50625001D01*
X66450298Y-50624279D01*
X66435737Y-50622119D01*
X66421458Y-50618542D01*
X66407598Y-50613583D01*
X66394291Y-50607289D01*
X66381665Y-50599721D01*
X66369842Y-50590953D01*
X66358935Y-50581067D01*
X66349049Y-50570160D01*
X66340281Y-50558337D01*
X66332713Y-50545711D01*
X66326419Y-50532404D01*
X66321460Y-50518544D01*
X66317883Y-50504265D01*
X66315723Y-50489704D01*
X66315001Y-50475001D01*
X66315001Y-50175001D01*
X66315723Y-50160298D01*
X66317883Y-50145737D01*
X66321460Y-50131458D01*
X66326419Y-50117598D01*
X66332713Y-50104291D01*
X66340281Y-50091665D01*
X66349049Y-50079842D01*
X66358935Y-50068935D01*
X66369842Y-50059049D01*
X66381665Y-50050281D01*
X66394291Y-50042713D01*
X66407598Y-50036419D01*
X66421458Y-50031460D01*
X66435737Y-50027883D01*
X66450298Y-50025723D01*
X66465001Y-50025001D01*
X68115001Y-50025001D01*
X68129704Y-50025723D01*
G37*
G04 #@! TD.AperFunction*
G04 #@! TA.AperFunction,SMDPad,CuDef*
G36*
X68129704Y-48755723D02*
G01*
X68144265Y-48757883D01*
X68158544Y-48761460D01*
X68172404Y-48766419D01*
X68185711Y-48772713D01*
X68198337Y-48780281D01*
X68210160Y-48789049D01*
X68221067Y-48798935D01*
X68230953Y-48809842D01*
X68239721Y-48821665D01*
X68247289Y-48834291D01*
X68253583Y-48847598D01*
X68258542Y-48861458D01*
X68262119Y-48875737D01*
X68264279Y-48890298D01*
X68265001Y-48905001D01*
X68265001Y-49205001D01*
X68264279Y-49219704D01*
X68262119Y-49234265D01*
X68258542Y-49248544D01*
X68253583Y-49262404D01*
X68247289Y-49275711D01*
X68239721Y-49288337D01*
X68230953Y-49300160D01*
X68221067Y-49311067D01*
X68210160Y-49320953D01*
X68198337Y-49329721D01*
X68185711Y-49337289D01*
X68172404Y-49343583D01*
X68158544Y-49348542D01*
X68144265Y-49352119D01*
X68129704Y-49354279D01*
X68115001Y-49355001D01*
X66465001Y-49355001D01*
X66450298Y-49354279D01*
X66435737Y-49352119D01*
X66421458Y-49348542D01*
X66407598Y-49343583D01*
X66394291Y-49337289D01*
X66381665Y-49329721D01*
X66369842Y-49320953D01*
X66358935Y-49311067D01*
X66349049Y-49300160D01*
X66340281Y-49288337D01*
X66332713Y-49275711D01*
X66326419Y-49262404D01*
X66321460Y-49248544D01*
X66317883Y-49234265D01*
X66315723Y-49219704D01*
X66315001Y-49205001D01*
X66315001Y-48905001D01*
X66315723Y-48890298D01*
X66317883Y-48875737D01*
X66321460Y-48861458D01*
X66326419Y-48847598D01*
X66332713Y-48834291D01*
X66340281Y-48821665D01*
X66349049Y-48809842D01*
X66358935Y-48798935D01*
X66369842Y-48789049D01*
X66381665Y-48780281D01*
X66394291Y-48772713D01*
X66407598Y-48766419D01*
X66421458Y-48761460D01*
X66435737Y-48757883D01*
X66450298Y-48755723D01*
X66465001Y-48755001D01*
X68115001Y-48755001D01*
X68129704Y-48755723D01*
G37*
G04 #@! TD.AperFunction*
G04 #@! TA.AperFunction,SMDPad,CuDef*
G36*
X68129704Y-47485723D02*
G01*
X68144265Y-47487883D01*
X68158544Y-47491460D01*
X68172404Y-47496419D01*
X68185711Y-47502713D01*
X68198337Y-47510281D01*
X68210160Y-47519049D01*
X68221067Y-47528935D01*
X68230953Y-47539842D01*
X68239721Y-47551665D01*
X68247289Y-47564291D01*
X68253583Y-47577598D01*
X68258542Y-47591458D01*
X68262119Y-47605737D01*
X68264279Y-47620298D01*
X68265001Y-47635001D01*
X68265001Y-47935001D01*
X68264279Y-47949704D01*
X68262119Y-47964265D01*
X68258542Y-47978544D01*
X68253583Y-47992404D01*
X68247289Y-48005711D01*
X68239721Y-48018337D01*
X68230953Y-48030160D01*
X68221067Y-48041067D01*
X68210160Y-48050953D01*
X68198337Y-48059721D01*
X68185711Y-48067289D01*
X68172404Y-48073583D01*
X68158544Y-48078542D01*
X68144265Y-48082119D01*
X68129704Y-48084279D01*
X68115001Y-48085001D01*
X66465001Y-48085001D01*
X66450298Y-48084279D01*
X66435737Y-48082119D01*
X66421458Y-48078542D01*
X66407598Y-48073583D01*
X66394291Y-48067289D01*
X66381665Y-48059721D01*
X66369842Y-48050953D01*
X66358935Y-48041067D01*
X66349049Y-48030160D01*
X66340281Y-48018337D01*
X66332713Y-48005711D01*
X66326419Y-47992404D01*
X66321460Y-47978544D01*
X66317883Y-47964265D01*
X66315723Y-47949704D01*
X66315001Y-47935001D01*
X66315001Y-47635001D01*
X66315723Y-47620298D01*
X66317883Y-47605737D01*
X66321460Y-47591458D01*
X66326419Y-47577598D01*
X66332713Y-47564291D01*
X66340281Y-47551665D01*
X66349049Y-47539842D01*
X66358935Y-47528935D01*
X66369842Y-47519049D01*
X66381665Y-47510281D01*
X66394291Y-47502713D01*
X66407598Y-47496419D01*
X66421458Y-47491460D01*
X66435737Y-47487883D01*
X66450298Y-47485723D01*
X66465001Y-47485001D01*
X68115001Y-47485001D01*
X68129704Y-47485723D01*
G37*
G04 #@! TD.AperFunction*
G04 #@! TA.AperFunction,SMDPad,CuDef*
G36*
X68129704Y-46215723D02*
G01*
X68144265Y-46217883D01*
X68158544Y-46221460D01*
X68172404Y-46226419D01*
X68185711Y-46232713D01*
X68198337Y-46240281D01*
X68210160Y-46249049D01*
X68221067Y-46258935D01*
X68230953Y-46269842D01*
X68239721Y-46281665D01*
X68247289Y-46294291D01*
X68253583Y-46307598D01*
X68258542Y-46321458D01*
X68262119Y-46335737D01*
X68264279Y-46350298D01*
X68265001Y-46365001D01*
X68265001Y-46665001D01*
X68264279Y-46679704D01*
X68262119Y-46694265D01*
X68258542Y-46708544D01*
X68253583Y-46722404D01*
X68247289Y-46735711D01*
X68239721Y-46748337D01*
X68230953Y-46760160D01*
X68221067Y-46771067D01*
X68210160Y-46780953D01*
X68198337Y-46789721D01*
X68185711Y-46797289D01*
X68172404Y-46803583D01*
X68158544Y-46808542D01*
X68144265Y-46812119D01*
X68129704Y-46814279D01*
X68115001Y-46815001D01*
X66465001Y-46815001D01*
X66450298Y-46814279D01*
X66435737Y-46812119D01*
X66421458Y-46808542D01*
X66407598Y-46803583D01*
X66394291Y-46797289D01*
X66381665Y-46789721D01*
X66369842Y-46780953D01*
X66358935Y-46771067D01*
X66349049Y-46760160D01*
X66340281Y-46748337D01*
X66332713Y-46735711D01*
X66326419Y-46722404D01*
X66321460Y-46708544D01*
X66317883Y-46694265D01*
X66315723Y-46679704D01*
X66315001Y-46665001D01*
X66315001Y-46365001D01*
X66315723Y-46350298D01*
X66317883Y-46335737D01*
X66321460Y-46321458D01*
X66326419Y-46307598D01*
X66332713Y-46294291D01*
X66340281Y-46281665D01*
X66349049Y-46269842D01*
X66358935Y-46258935D01*
X66369842Y-46249049D01*
X66381665Y-46240281D01*
X66394291Y-46232713D01*
X66407598Y-46226419D01*
X66421458Y-46221460D01*
X66435737Y-46217883D01*
X66450298Y-46215723D01*
X66465001Y-46215001D01*
X68115001Y-46215001D01*
X68129704Y-46215723D01*
G37*
G04 #@! TD.AperFunction*
D13*
X90000000Y-39000000D03*
X90000000Y-60000000D03*
X50000000Y-39000000D03*
X50000000Y-60000000D03*
D14*
X67335400Y-59613800D03*
X70104000Y-51308000D03*
X77089000Y-57658000D03*
X69562999Y-47785001D03*
X69215000Y-50292000D03*
X69469000Y-52959000D03*
X74803000Y-54102000D03*
X75856000Y-54864000D03*
X76581000Y-55753000D03*
D15*
X63955000Y-43180000D02*
X67290001Y-46515001D01*
X58420000Y-43180000D02*
X63955000Y-43180000D01*
X67290001Y-54435001D02*
X67310000Y-54455000D01*
X67290001Y-54135001D02*
X67290001Y-54435001D01*
X67310000Y-59588400D02*
X67335400Y-59613800D01*
X67310000Y-54455000D02*
X67310000Y-59588400D01*
X61755001Y-49055001D02*
X67290001Y-49055001D01*
X58420000Y-45720000D02*
X61755001Y-49055001D01*
X61755001Y-51595001D02*
X67290001Y-51595001D01*
X58420000Y-48260000D02*
X61755001Y-51595001D01*
X71940001Y-52565001D02*
X72240001Y-52865001D01*
X71595011Y-52220011D02*
X71940001Y-52565001D01*
X59840011Y-52220011D02*
X71595011Y-52220011D01*
X58420000Y-50800000D02*
X59840011Y-52220011D01*
X72240001Y-50325001D02*
X71086999Y-50325001D01*
X71086999Y-50325001D02*
X70104000Y-51308000D01*
X77306001Y-51876001D02*
X77306001Y-57440999D01*
X73215001Y-47785001D02*
X77306001Y-51876001D01*
X77306001Y-57440999D02*
X77089000Y-57658000D01*
X72240001Y-47785001D02*
X73215001Y-47785001D01*
X67290001Y-47785001D02*
X69562999Y-47785001D01*
X69181999Y-50325001D02*
X69215000Y-50292000D01*
X67290001Y-50325001D02*
X69181999Y-50325001D01*
X67290001Y-52865001D02*
X69375001Y-52865001D01*
X69375001Y-52916769D02*
X69417232Y-52959000D01*
X69417232Y-52959000D02*
X69469000Y-52959000D01*
X69375001Y-52865001D02*
X69375001Y-52916769D01*
X73248002Y-54102000D02*
X74803000Y-54102000D01*
X73215001Y-54135001D02*
X73248002Y-54102000D01*
X72240001Y-54135001D02*
X73215001Y-54135001D01*
X75856000Y-54081998D02*
X75856000Y-54864000D01*
X73369003Y-51595001D02*
X75856000Y-54081998D01*
X72240001Y-51595001D02*
X73369003Y-51595001D01*
X72916769Y-49355001D02*
X76581000Y-53019232D01*
X72540001Y-49355001D02*
X72916769Y-49355001D01*
X72240001Y-49055001D02*
X72540001Y-49355001D01*
X76581000Y-53019232D02*
X76581000Y-55753000D01*
D16*
G36*
X91259659Y-36688625D02*
G01*
X91509429Y-36764035D01*
X91739792Y-36886522D01*
X91941980Y-37051422D01*
X92108286Y-37252450D01*
X92232378Y-37481954D01*
X92309531Y-37731195D01*
X92340000Y-38021089D01*
X92340001Y-60967711D01*
X92311375Y-61259660D01*
X92235965Y-61509429D01*
X92113477Y-61739794D01*
X91948579Y-61941979D01*
X91747546Y-62108288D01*
X91518046Y-62232378D01*
X91268805Y-62309531D01*
X90978911Y-62340000D01*
X49032279Y-62340000D01*
X48740340Y-62311375D01*
X48490571Y-62235965D01*
X48260206Y-62113477D01*
X48058021Y-61948579D01*
X47891712Y-61747546D01*
X47767622Y-61518046D01*
X47690469Y-61268805D01*
X47660000Y-60978911D01*
X47660000Y-59772485D01*
X47690000Y-59772485D01*
X47690000Y-60227515D01*
X47778772Y-60673802D01*
X47952905Y-61094195D01*
X48205706Y-61472539D01*
X48527461Y-61794294D01*
X48905805Y-62047095D01*
X49326198Y-62221228D01*
X49772485Y-62310000D01*
X50227515Y-62310000D01*
X50673802Y-62221228D01*
X51094195Y-62047095D01*
X51472539Y-61794294D01*
X51794294Y-61472539D01*
X52047095Y-61094195D01*
X52221228Y-60673802D01*
X52310000Y-60227515D01*
X52310000Y-59772485D01*
X52221228Y-59326198D01*
X52047095Y-58905805D01*
X51794294Y-58527461D01*
X51472539Y-58205706D01*
X51094195Y-57952905D01*
X50673802Y-57778772D01*
X50227515Y-57690000D01*
X49772485Y-57690000D01*
X49326198Y-57778772D01*
X48905805Y-57952905D01*
X48527461Y-58205706D01*
X48205706Y-58527461D01*
X47952905Y-58905805D01*
X47778772Y-59326198D01*
X47690000Y-59772485D01*
X47660000Y-59772485D01*
X47660000Y-42330000D01*
X51851928Y-42330000D01*
X51851928Y-44030000D01*
X51864188Y-44154482D01*
X51900498Y-44274180D01*
X51959463Y-44384494D01*
X52013222Y-44450000D01*
X51959463Y-44515506D01*
X51900498Y-44625820D01*
X51864188Y-44745518D01*
X51851928Y-44870000D01*
X51851928Y-46570000D01*
X51864188Y-46694482D01*
X51900498Y-46814180D01*
X51959463Y-46924494D01*
X52013222Y-46990000D01*
X51959463Y-47055506D01*
X51900498Y-47165820D01*
X51864188Y-47285518D01*
X51851928Y-47410000D01*
X51851928Y-49110000D01*
X51864188Y-49234482D01*
X51900498Y-49354180D01*
X51959463Y-49464494D01*
X52013222Y-49530000D01*
X51959463Y-49595506D01*
X51900498Y-49705820D01*
X51864188Y-49825518D01*
X51851928Y-49950000D01*
X51851928Y-51650000D01*
X51864188Y-51774482D01*
X51900498Y-51894180D01*
X51959463Y-52004494D01*
X52013222Y-52070000D01*
X51959463Y-52135506D01*
X51900498Y-52245820D01*
X51864188Y-52365518D01*
X51851928Y-52490000D01*
X51851928Y-54190000D01*
X51864188Y-54314482D01*
X51900498Y-54434180D01*
X51959463Y-54544494D01*
X52013222Y-54610000D01*
X51959463Y-54675506D01*
X51900498Y-54785820D01*
X51864188Y-54905518D01*
X51851928Y-55030000D01*
X51851928Y-56730000D01*
X51864188Y-56854482D01*
X51900498Y-56974180D01*
X51959463Y-57084494D01*
X52038815Y-57181185D01*
X52135506Y-57260537D01*
X52245820Y-57319502D01*
X52365518Y-57355812D01*
X52490000Y-57368072D01*
X54190000Y-57368072D01*
X54314482Y-57355812D01*
X54434180Y-57319502D01*
X54544494Y-57260537D01*
X54641185Y-57181185D01*
X54720537Y-57084494D01*
X54779502Y-56974180D01*
X54803966Y-56893534D01*
X54879731Y-56977588D01*
X55113080Y-57151641D01*
X55375901Y-57276825D01*
X55523110Y-57321476D01*
X55753000Y-57200155D01*
X55753000Y-56007000D01*
X55733000Y-56007000D01*
X55733000Y-55753000D01*
X55753000Y-55753000D01*
X55753000Y-53467000D01*
X55733000Y-53467000D01*
X55733000Y-53213000D01*
X55753000Y-53213000D01*
X55753000Y-50927000D01*
X55733000Y-50927000D01*
X55733000Y-50673000D01*
X55753000Y-50673000D01*
X55753000Y-48387000D01*
X55733000Y-48387000D01*
X55733000Y-48133000D01*
X55753000Y-48133000D01*
X55753000Y-45847000D01*
X55733000Y-45847000D01*
X55733000Y-45593000D01*
X55753000Y-45593000D01*
X55753000Y-43307000D01*
X55733000Y-43307000D01*
X55733000Y-43053000D01*
X55753000Y-43053000D01*
X55753000Y-41859845D01*
X56007000Y-41859845D01*
X56007000Y-43053000D01*
X56027000Y-43053000D01*
X56027000Y-43307000D01*
X56007000Y-43307000D01*
X56007000Y-45593000D01*
X56027000Y-45593000D01*
X56027000Y-45847000D01*
X56007000Y-45847000D01*
X56007000Y-48133000D01*
X56027000Y-48133000D01*
X56027000Y-48387000D01*
X56007000Y-48387000D01*
X56007000Y-50673000D01*
X56027000Y-50673000D01*
X56027000Y-50927000D01*
X56007000Y-50927000D01*
X56007000Y-53213000D01*
X56027000Y-53213000D01*
X56027000Y-53467000D01*
X56007000Y-53467000D01*
X56007000Y-55753000D01*
X56027000Y-55753000D01*
X56027000Y-56007000D01*
X56007000Y-56007000D01*
X56007000Y-57200155D01*
X56236890Y-57321476D01*
X56384099Y-57276825D01*
X56646920Y-57151641D01*
X56880269Y-56977588D01*
X57075178Y-56761355D01*
X57144805Y-56644466D01*
X57266525Y-56826632D01*
X57473368Y-57033475D01*
X57716589Y-57195990D01*
X57986842Y-57307932D01*
X58273740Y-57365000D01*
X58566260Y-57365000D01*
X58853158Y-57307932D01*
X59123411Y-57195990D01*
X59366632Y-57033475D01*
X59573475Y-56826632D01*
X59735990Y-56583411D01*
X59847932Y-56313158D01*
X59905000Y-56026260D01*
X59905000Y-55733740D01*
X59847932Y-55446842D01*
X59735990Y-55176589D01*
X59573475Y-54933368D01*
X59366632Y-54726525D01*
X59192240Y-54610000D01*
X59366632Y-54493475D01*
X59573475Y-54286632D01*
X59735990Y-54043411D01*
X59847932Y-53773158D01*
X59905000Y-53486260D01*
X59905000Y-53193740D01*
X59862772Y-52981445D01*
X59877334Y-52980011D01*
X65676929Y-52980011D01*
X65676929Y-53015001D01*
X65692072Y-53168746D01*
X65736917Y-53316583D01*
X65809743Y-53452830D01*
X65848455Y-53500001D01*
X65809743Y-53547172D01*
X65736917Y-53683419D01*
X65692072Y-53831256D01*
X65676929Y-53985001D01*
X65676929Y-54285001D01*
X65692072Y-54438746D01*
X65736917Y-54586583D01*
X65809743Y-54722830D01*
X65907750Y-54842252D01*
X66027172Y-54940259D01*
X66163419Y-55013085D01*
X66311256Y-55057930D01*
X66465001Y-55073073D01*
X66550000Y-55073073D01*
X66550001Y-58935488D01*
X66531463Y-58954026D01*
X66418195Y-59123544D01*
X66340174Y-59311902D01*
X66300400Y-59511861D01*
X66300400Y-59715739D01*
X66340174Y-59915698D01*
X66418195Y-60104056D01*
X66531463Y-60273574D01*
X66675626Y-60417737D01*
X66845144Y-60531005D01*
X67033502Y-60609026D01*
X67233461Y-60648800D01*
X67437339Y-60648800D01*
X67637298Y-60609026D01*
X67825656Y-60531005D01*
X67995174Y-60417737D01*
X68139337Y-60273574D01*
X68252605Y-60104056D01*
X68330626Y-59915698D01*
X68359112Y-59772485D01*
X87690000Y-59772485D01*
X87690000Y-60227515D01*
X87778772Y-60673802D01*
X87952905Y-61094195D01*
X88205706Y-61472539D01*
X88527461Y-61794294D01*
X88905805Y-62047095D01*
X89326198Y-62221228D01*
X89772485Y-62310000D01*
X90227515Y-62310000D01*
X90673802Y-62221228D01*
X91094195Y-62047095D01*
X91472539Y-61794294D01*
X91794294Y-61472539D01*
X92047095Y-61094195D01*
X92221228Y-60673802D01*
X92310000Y-60227515D01*
X92310000Y-59772485D01*
X92221228Y-59326198D01*
X92047095Y-58905805D01*
X91794294Y-58527461D01*
X91472539Y-58205706D01*
X91094195Y-57952905D01*
X90673802Y-57778772D01*
X90227515Y-57690000D01*
X89772485Y-57690000D01*
X89326198Y-57778772D01*
X88905805Y-57952905D01*
X88527461Y-58205706D01*
X88205706Y-58527461D01*
X87952905Y-58905805D01*
X87778772Y-59326198D01*
X87690000Y-59772485D01*
X68359112Y-59772485D01*
X68370400Y-59715739D01*
X68370400Y-59511861D01*
X68330626Y-59311902D01*
X68252605Y-59123544D01*
X68139337Y-58954026D01*
X68070000Y-58884689D01*
X68070000Y-55073073D01*
X68115001Y-55073073D01*
X68268746Y-55057930D01*
X68416583Y-55013085D01*
X68552830Y-54940259D01*
X68672252Y-54842252D01*
X68770259Y-54722830D01*
X68843085Y-54586583D01*
X68887930Y-54438746D01*
X68903073Y-54285001D01*
X68903073Y-53985001D01*
X68887930Y-53831256D01*
X68881945Y-53811526D01*
X68978744Y-53876205D01*
X69167102Y-53954226D01*
X69367061Y-53994000D01*
X69570939Y-53994000D01*
X69770898Y-53954226D01*
X69959256Y-53876205D01*
X70128774Y-53762937D01*
X70272937Y-53618774D01*
X70386205Y-53449256D01*
X70464226Y-53260898D01*
X70504000Y-53060939D01*
X70504000Y-52980011D01*
X70626929Y-52980011D01*
X70626929Y-53015001D01*
X70642072Y-53168746D01*
X70686917Y-53316583D01*
X70759743Y-53452830D01*
X70798455Y-53500001D01*
X70759743Y-53547172D01*
X70686917Y-53683419D01*
X70642072Y-53831256D01*
X70626929Y-53985001D01*
X70626929Y-54285001D01*
X70642072Y-54438746D01*
X70686917Y-54586583D01*
X70759743Y-54722830D01*
X70857750Y-54842252D01*
X70977172Y-54940259D01*
X71113419Y-55013085D01*
X71261256Y-55057930D01*
X71415001Y-55073073D01*
X73065001Y-55073073D01*
X73218746Y-55057930D01*
X73366583Y-55013085D01*
X73502830Y-54940259D01*
X73598189Y-54862000D01*
X74099289Y-54862000D01*
X74143226Y-54905937D01*
X74312744Y-55019205D01*
X74501102Y-55097226D01*
X74701061Y-55137000D01*
X74855026Y-55137000D01*
X74860774Y-55165898D01*
X74938795Y-55354256D01*
X75052063Y-55523774D01*
X75196226Y-55667937D01*
X75365744Y-55781205D01*
X75546202Y-55855954D01*
X75585774Y-56054898D01*
X75663795Y-56243256D01*
X75777063Y-56412774D01*
X75921226Y-56556937D01*
X76090744Y-56670205D01*
X76279102Y-56748226D01*
X76479061Y-56788000D01*
X76528097Y-56788000D01*
X76429226Y-56854063D01*
X76285063Y-56998226D01*
X76171795Y-57167744D01*
X76093774Y-57356102D01*
X76054000Y-57556061D01*
X76054000Y-57759939D01*
X76093774Y-57959898D01*
X76171795Y-58148256D01*
X76285063Y-58317774D01*
X76429226Y-58461937D01*
X76598744Y-58575205D01*
X76787102Y-58653226D01*
X76987061Y-58693000D01*
X77190939Y-58693000D01*
X77390898Y-58653226D01*
X77579256Y-58575205D01*
X77748774Y-58461937D01*
X77892937Y-58317774D01*
X78006205Y-58148256D01*
X78084226Y-57959898D01*
X78124000Y-57759939D01*
X78124000Y-57556061D01*
X78084226Y-57356102D01*
X78066001Y-57312103D01*
X78066001Y-51913326D01*
X78069677Y-51876001D01*
X78066001Y-51838676D01*
X78066001Y-51838668D01*
X78055004Y-51727015D01*
X78011547Y-51583754D01*
X77940975Y-51451725D01*
X77846002Y-51336000D01*
X77817005Y-51312203D01*
X73778805Y-47274004D01*
X73755002Y-47245000D01*
X73738651Y-47231581D01*
X73721271Y-47199065D01*
X73745538Y-47169495D01*
X73804503Y-47059181D01*
X73840813Y-46939483D01*
X73853073Y-46815001D01*
X73850001Y-46800751D01*
X73691251Y-46642001D01*
X72367001Y-46642001D01*
X72367001Y-46662001D01*
X72113001Y-46662001D01*
X72113001Y-46642001D01*
X70788751Y-46642001D01*
X70630001Y-46800751D01*
X70626929Y-46815001D01*
X70639189Y-46939483D01*
X70675499Y-47059181D01*
X70734464Y-47169495D01*
X70758731Y-47199065D01*
X70686917Y-47333419D01*
X70642072Y-47481256D01*
X70626929Y-47635001D01*
X70626929Y-47935001D01*
X70642072Y-48088746D01*
X70686917Y-48236583D01*
X70759743Y-48372830D01*
X70798455Y-48420001D01*
X70759743Y-48467172D01*
X70686917Y-48603419D01*
X70642072Y-48751256D01*
X70626929Y-48905001D01*
X70626929Y-49205001D01*
X70642072Y-49358746D01*
X70686917Y-49506583D01*
X70757805Y-49639204D01*
X70662723Y-49690027D01*
X70546998Y-49785000D01*
X70523200Y-49813998D01*
X70232934Y-50104264D01*
X70210226Y-49990102D01*
X70132205Y-49801744D01*
X70018937Y-49632226D01*
X69874774Y-49488063D01*
X69705256Y-49374795D01*
X69516898Y-49296774D01*
X69316939Y-49257000D01*
X69113061Y-49257000D01*
X68913102Y-49296774D01*
X68893223Y-49305008D01*
X68903073Y-49205001D01*
X68903073Y-48905001D01*
X68887930Y-48751256D01*
X68843085Y-48603419D01*
X68811860Y-48545001D01*
X68859288Y-48545001D01*
X68903225Y-48588938D01*
X69072743Y-48702206D01*
X69261101Y-48780227D01*
X69461060Y-48820001D01*
X69664938Y-48820001D01*
X69864897Y-48780227D01*
X70053255Y-48702206D01*
X70222773Y-48588938D01*
X70366936Y-48444775D01*
X70480204Y-48275257D01*
X70558225Y-48086899D01*
X70597999Y-47886940D01*
X70597999Y-47683062D01*
X70558225Y-47483103D01*
X70480204Y-47294745D01*
X70366936Y-47125227D01*
X70222773Y-46981064D01*
X70053255Y-46867796D01*
X69864897Y-46789775D01*
X69664938Y-46750001D01*
X69461060Y-46750001D01*
X69261101Y-46789775D01*
X69072743Y-46867796D01*
X68903225Y-46981064D01*
X68859288Y-47025001D01*
X68811860Y-47025001D01*
X68843085Y-46966583D01*
X68887930Y-46818746D01*
X68903073Y-46665001D01*
X68903073Y-46365001D01*
X68888299Y-46215001D01*
X70626929Y-46215001D01*
X70630001Y-46229251D01*
X70788751Y-46388001D01*
X72113001Y-46388001D01*
X72113001Y-45738751D01*
X72367001Y-45738751D01*
X72367001Y-46388001D01*
X73691251Y-46388001D01*
X73850001Y-46229251D01*
X73853073Y-46215001D01*
X73840813Y-46090519D01*
X73804503Y-45970821D01*
X73745538Y-45860507D01*
X73666186Y-45763816D01*
X73569495Y-45684464D01*
X73459181Y-45625499D01*
X73339483Y-45589189D01*
X73215001Y-45576929D01*
X72525751Y-45580001D01*
X72367001Y-45738751D01*
X72113001Y-45738751D01*
X71954251Y-45580001D01*
X71265001Y-45576929D01*
X71140519Y-45589189D01*
X71020821Y-45625499D01*
X70910507Y-45684464D01*
X70813816Y-45763816D01*
X70734464Y-45860507D01*
X70675499Y-45970821D01*
X70639189Y-46090519D01*
X70626929Y-46215001D01*
X68888299Y-46215001D01*
X68887930Y-46211256D01*
X68843085Y-46063419D01*
X68770259Y-45927172D01*
X68672252Y-45807750D01*
X68552830Y-45709743D01*
X68416583Y-45636917D01*
X68268746Y-45592072D01*
X68115001Y-45576929D01*
X67426731Y-45576929D01*
X64883542Y-43033740D01*
X79795000Y-43033740D01*
X79795000Y-43326260D01*
X79852068Y-43613158D01*
X79964010Y-43883411D01*
X80126525Y-44126632D01*
X80333368Y-44333475D01*
X80507760Y-44450000D01*
X80333368Y-44566525D01*
X80126525Y-44773368D01*
X79964010Y-45016589D01*
X79852068Y-45286842D01*
X79795000Y-45573740D01*
X79795000Y-45866260D01*
X79852068Y-46153158D01*
X79964010Y-46423411D01*
X80126525Y-46666632D01*
X80333368Y-46873475D01*
X80507760Y-46990000D01*
X80333368Y-47106525D01*
X80126525Y-47313368D01*
X79964010Y-47556589D01*
X79852068Y-47826842D01*
X79795000Y-48113740D01*
X79795000Y-48406260D01*
X79852068Y-48693158D01*
X79964010Y-48963411D01*
X80126525Y-49206632D01*
X80333368Y-49413475D01*
X80507760Y-49530000D01*
X80333368Y-49646525D01*
X80126525Y-49853368D01*
X79964010Y-50096589D01*
X79852068Y-50366842D01*
X79795000Y-50653740D01*
X79795000Y-50946260D01*
X79852068Y-51233158D01*
X79964010Y-51503411D01*
X80126525Y-51746632D01*
X80333368Y-51953475D01*
X80507760Y-52070000D01*
X80333368Y-52186525D01*
X80126525Y-52393368D01*
X79964010Y-52636589D01*
X79852068Y-52906842D01*
X79795000Y-53193740D01*
X79795000Y-53486260D01*
X79852068Y-53773158D01*
X79964010Y-54043411D01*
X80126525Y-54286632D01*
X80333368Y-54493475D01*
X80507760Y-54610000D01*
X80333368Y-54726525D01*
X80126525Y-54933368D01*
X79964010Y-55176589D01*
X79852068Y-55446842D01*
X79795000Y-55733740D01*
X79795000Y-56026260D01*
X79852068Y-56313158D01*
X79964010Y-56583411D01*
X80126525Y-56826632D01*
X80333368Y-57033475D01*
X80576589Y-57195990D01*
X80846842Y-57307932D01*
X81133740Y-57365000D01*
X81426260Y-57365000D01*
X81713158Y-57307932D01*
X81983411Y-57195990D01*
X82226632Y-57033475D01*
X82433475Y-56826632D01*
X82555195Y-56644466D01*
X82624822Y-56761355D01*
X82819731Y-56977588D01*
X83053080Y-57151641D01*
X83315901Y-57276825D01*
X83463110Y-57321476D01*
X83693000Y-57200155D01*
X83693000Y-56007000D01*
X83673000Y-56007000D01*
X83673000Y-55753000D01*
X83693000Y-55753000D01*
X83693000Y-53467000D01*
X83673000Y-53467000D01*
X83673000Y-53213000D01*
X83693000Y-53213000D01*
X83693000Y-50927000D01*
X83673000Y-50927000D01*
X83673000Y-50673000D01*
X83693000Y-50673000D01*
X83693000Y-48387000D01*
X83673000Y-48387000D01*
X83673000Y-48133000D01*
X83693000Y-48133000D01*
X83693000Y-45847000D01*
X83673000Y-45847000D01*
X83673000Y-45593000D01*
X83693000Y-45593000D01*
X83693000Y-43307000D01*
X83673000Y-43307000D01*
X83673000Y-43053000D01*
X83693000Y-43053000D01*
X83693000Y-41859845D01*
X83947000Y-41859845D01*
X83947000Y-43053000D01*
X83967000Y-43053000D01*
X83967000Y-43307000D01*
X83947000Y-43307000D01*
X83947000Y-45593000D01*
X83967000Y-45593000D01*
X83967000Y-45847000D01*
X83947000Y-45847000D01*
X83947000Y-48133000D01*
X83967000Y-48133000D01*
X83967000Y-48387000D01*
X83947000Y-48387000D01*
X83947000Y-50673000D01*
X83967000Y-50673000D01*
X83967000Y-50927000D01*
X83947000Y-50927000D01*
X83947000Y-53213000D01*
X83967000Y-53213000D01*
X83967000Y-53467000D01*
X83947000Y-53467000D01*
X83947000Y-55753000D01*
X83967000Y-55753000D01*
X83967000Y-56007000D01*
X83947000Y-56007000D01*
X83947000Y-57200155D01*
X84176890Y-57321476D01*
X84324099Y-57276825D01*
X84586920Y-57151641D01*
X84820269Y-56977588D01*
X84896034Y-56893534D01*
X84920498Y-56974180D01*
X84979463Y-57084494D01*
X85058815Y-57181185D01*
X85155506Y-57260537D01*
X85265820Y-57319502D01*
X85385518Y-57355812D01*
X85510000Y-57368072D01*
X87210000Y-57368072D01*
X87334482Y-57355812D01*
X87454180Y-57319502D01*
X87564494Y-57260537D01*
X87661185Y-57181185D01*
X87740537Y-57084494D01*
X87799502Y-56974180D01*
X87835812Y-56854482D01*
X87848072Y-56730000D01*
X87848072Y-55030000D01*
X87835812Y-54905518D01*
X87799502Y-54785820D01*
X87740537Y-54675506D01*
X87686778Y-54610000D01*
X87740537Y-54544494D01*
X87799502Y-54434180D01*
X87835812Y-54314482D01*
X87848072Y-54190000D01*
X87848072Y-52490000D01*
X87835812Y-52365518D01*
X87799502Y-52245820D01*
X87740537Y-52135506D01*
X87686778Y-52070000D01*
X87740537Y-52004494D01*
X87799502Y-51894180D01*
X87835812Y-51774482D01*
X87848072Y-51650000D01*
X87848072Y-49950000D01*
X87835812Y-49825518D01*
X87799502Y-49705820D01*
X87740537Y-49595506D01*
X87686778Y-49530000D01*
X87740537Y-49464494D01*
X87799502Y-49354180D01*
X87835812Y-49234482D01*
X87848072Y-49110000D01*
X87848072Y-47410000D01*
X87835812Y-47285518D01*
X87799502Y-47165820D01*
X87740537Y-47055506D01*
X87686778Y-46990000D01*
X87740537Y-46924494D01*
X87799502Y-46814180D01*
X87835812Y-46694482D01*
X87848072Y-46570000D01*
X87848072Y-44870000D01*
X87835812Y-44745518D01*
X87799502Y-44625820D01*
X87740537Y-44515506D01*
X87686778Y-44450000D01*
X87740537Y-44384494D01*
X87799502Y-44274180D01*
X87835812Y-44154482D01*
X87848072Y-44030000D01*
X87848072Y-42330000D01*
X87835812Y-42205518D01*
X87799502Y-42085820D01*
X87740537Y-41975506D01*
X87661185Y-41878815D01*
X87564494Y-41799463D01*
X87454180Y-41740498D01*
X87334482Y-41704188D01*
X87210000Y-41691928D01*
X85510000Y-41691928D01*
X85385518Y-41704188D01*
X85265820Y-41740498D01*
X85155506Y-41799463D01*
X85058815Y-41878815D01*
X84979463Y-41975506D01*
X84920498Y-42085820D01*
X84896034Y-42166466D01*
X84820269Y-42082412D01*
X84586920Y-41908359D01*
X84324099Y-41783175D01*
X84176890Y-41738524D01*
X83947000Y-41859845D01*
X83693000Y-41859845D01*
X83463110Y-41738524D01*
X83315901Y-41783175D01*
X83053080Y-41908359D01*
X82819731Y-42082412D01*
X82624822Y-42298645D01*
X82555195Y-42415534D01*
X82433475Y-42233368D01*
X82226632Y-42026525D01*
X81983411Y-41864010D01*
X81713158Y-41752068D01*
X81426260Y-41695000D01*
X81133740Y-41695000D01*
X80846842Y-41752068D01*
X80576589Y-41864010D01*
X80333368Y-42026525D01*
X80126525Y-42233368D01*
X79964010Y-42476589D01*
X79852068Y-42746842D01*
X79795000Y-43033740D01*
X64883542Y-43033740D01*
X64518804Y-42669003D01*
X64495001Y-42639999D01*
X64379276Y-42545026D01*
X64247247Y-42474454D01*
X64103986Y-42430997D01*
X63992333Y-42420000D01*
X63992322Y-42420000D01*
X63955000Y-42416324D01*
X63917678Y-42420000D01*
X59698178Y-42420000D01*
X59573475Y-42233368D01*
X59366632Y-42026525D01*
X59123411Y-41864010D01*
X58853158Y-41752068D01*
X58566260Y-41695000D01*
X58273740Y-41695000D01*
X57986842Y-41752068D01*
X57716589Y-41864010D01*
X57473368Y-42026525D01*
X57266525Y-42233368D01*
X57144805Y-42415534D01*
X57075178Y-42298645D01*
X56880269Y-42082412D01*
X56646920Y-41908359D01*
X56384099Y-41783175D01*
X56236890Y-41738524D01*
X56007000Y-41859845D01*
X55753000Y-41859845D01*
X55523110Y-41738524D01*
X55375901Y-41783175D01*
X55113080Y-41908359D01*
X54879731Y-42082412D01*
X54803966Y-42166466D01*
X54779502Y-42085820D01*
X54720537Y-41975506D01*
X54641185Y-41878815D01*
X54544494Y-41799463D01*
X54434180Y-41740498D01*
X54314482Y-41704188D01*
X54190000Y-41691928D01*
X52490000Y-41691928D01*
X52365518Y-41704188D01*
X52245820Y-41740498D01*
X52135506Y-41799463D01*
X52038815Y-41878815D01*
X51959463Y-41975506D01*
X51900498Y-42085820D01*
X51864188Y-42205518D01*
X51851928Y-42330000D01*
X47660000Y-42330000D01*
X47660000Y-38772485D01*
X47690000Y-38772485D01*
X47690000Y-39227515D01*
X47778772Y-39673802D01*
X47952905Y-40094195D01*
X48205706Y-40472539D01*
X48527461Y-40794294D01*
X48905805Y-41047095D01*
X49326198Y-41221228D01*
X49772485Y-41310000D01*
X50227515Y-41310000D01*
X50673802Y-41221228D01*
X51094195Y-41047095D01*
X51472539Y-40794294D01*
X51794294Y-40472539D01*
X52047095Y-40094195D01*
X52221228Y-39673802D01*
X52310000Y-39227515D01*
X52310000Y-38772485D01*
X87690000Y-38772485D01*
X87690000Y-39227515D01*
X87778772Y-39673802D01*
X87952905Y-40094195D01*
X88205706Y-40472539D01*
X88527461Y-40794294D01*
X88905805Y-41047095D01*
X89326198Y-41221228D01*
X89772485Y-41310000D01*
X90227515Y-41310000D01*
X90673802Y-41221228D01*
X91094195Y-41047095D01*
X91472539Y-40794294D01*
X91794294Y-40472539D01*
X92047095Y-40094195D01*
X92221228Y-39673802D01*
X92310000Y-39227515D01*
X92310000Y-38772485D01*
X92221228Y-38326198D01*
X92047095Y-37905805D01*
X91794294Y-37527461D01*
X91472539Y-37205706D01*
X91094195Y-36952905D01*
X90673802Y-36778772D01*
X90227515Y-36690000D01*
X89772485Y-36690000D01*
X89326198Y-36778772D01*
X88905805Y-36952905D01*
X88527461Y-37205706D01*
X88205706Y-37527461D01*
X87952905Y-37905805D01*
X87778772Y-38326198D01*
X87690000Y-38772485D01*
X52310000Y-38772485D01*
X52221228Y-38326198D01*
X52047095Y-37905805D01*
X51794294Y-37527461D01*
X51472539Y-37205706D01*
X51094195Y-36952905D01*
X50673802Y-36778772D01*
X50227515Y-36690000D01*
X49772485Y-36690000D01*
X49326198Y-36778772D01*
X48905805Y-36952905D01*
X48527461Y-37205706D01*
X48205706Y-37527461D01*
X47952905Y-37905805D01*
X47778772Y-38326198D01*
X47690000Y-38772485D01*
X47660000Y-38772485D01*
X47660000Y-38032279D01*
X47688625Y-37740341D01*
X47764035Y-37490571D01*
X47886522Y-37260208D01*
X48051422Y-37058020D01*
X48252450Y-36891714D01*
X48481954Y-36767622D01*
X48731195Y-36690469D01*
X49021088Y-36660000D01*
X90967721Y-36660000D01*
X91259659Y-36688625D01*
G37*
X91259659Y-36688625D02*
X91509429Y-36764035D01*
X91739792Y-36886522D01*
X91941980Y-37051422D01*
X92108286Y-37252450D01*
X92232378Y-37481954D01*
X92309531Y-37731195D01*
X92340000Y-38021089D01*
X92340001Y-60967711D01*
X92311375Y-61259660D01*
X92235965Y-61509429D01*
X92113477Y-61739794D01*
X91948579Y-61941979D01*
X91747546Y-62108288D01*
X91518046Y-62232378D01*
X91268805Y-62309531D01*
X90978911Y-62340000D01*
X49032279Y-62340000D01*
X48740340Y-62311375D01*
X48490571Y-62235965D01*
X48260206Y-62113477D01*
X48058021Y-61948579D01*
X47891712Y-61747546D01*
X47767622Y-61518046D01*
X47690469Y-61268805D01*
X47660000Y-60978911D01*
X47660000Y-59772485D01*
X47690000Y-59772485D01*
X47690000Y-60227515D01*
X47778772Y-60673802D01*
X47952905Y-61094195D01*
X48205706Y-61472539D01*
X48527461Y-61794294D01*
X48905805Y-62047095D01*
X49326198Y-62221228D01*
X49772485Y-62310000D01*
X50227515Y-62310000D01*
X50673802Y-62221228D01*
X51094195Y-62047095D01*
X51472539Y-61794294D01*
X51794294Y-61472539D01*
X52047095Y-61094195D01*
X52221228Y-60673802D01*
X52310000Y-60227515D01*
X52310000Y-59772485D01*
X52221228Y-59326198D01*
X52047095Y-58905805D01*
X51794294Y-58527461D01*
X51472539Y-58205706D01*
X51094195Y-57952905D01*
X50673802Y-57778772D01*
X50227515Y-57690000D01*
X49772485Y-57690000D01*
X49326198Y-57778772D01*
X48905805Y-57952905D01*
X48527461Y-58205706D01*
X48205706Y-58527461D01*
X47952905Y-58905805D01*
X47778772Y-59326198D01*
X47690000Y-59772485D01*
X47660000Y-59772485D01*
X47660000Y-42330000D01*
X51851928Y-42330000D01*
X51851928Y-44030000D01*
X51864188Y-44154482D01*
X51900498Y-44274180D01*
X51959463Y-44384494D01*
X52013222Y-44450000D01*
X51959463Y-44515506D01*
X51900498Y-44625820D01*
X51864188Y-44745518D01*
X51851928Y-44870000D01*
X51851928Y-46570000D01*
X51864188Y-46694482D01*
X51900498Y-46814180D01*
X51959463Y-46924494D01*
X52013222Y-46990000D01*
X51959463Y-47055506D01*
X51900498Y-47165820D01*
X51864188Y-47285518D01*
X51851928Y-47410000D01*
X51851928Y-49110000D01*
X51864188Y-49234482D01*
X51900498Y-49354180D01*
X51959463Y-49464494D01*
X52013222Y-49530000D01*
X51959463Y-49595506D01*
X51900498Y-49705820D01*
X51864188Y-49825518D01*
X51851928Y-49950000D01*
X51851928Y-51650000D01*
X51864188Y-51774482D01*
X51900498Y-51894180D01*
X51959463Y-52004494D01*
X52013222Y-52070000D01*
X51959463Y-52135506D01*
X51900498Y-52245820D01*
X51864188Y-52365518D01*
X51851928Y-52490000D01*
X51851928Y-54190000D01*
X51864188Y-54314482D01*
X51900498Y-54434180D01*
X51959463Y-54544494D01*
X52013222Y-54610000D01*
X51959463Y-54675506D01*
X51900498Y-54785820D01*
X51864188Y-54905518D01*
X51851928Y-55030000D01*
X51851928Y-56730000D01*
X51864188Y-56854482D01*
X51900498Y-56974180D01*
X51959463Y-57084494D01*
X52038815Y-57181185D01*
X52135506Y-57260537D01*
X52245820Y-57319502D01*
X52365518Y-57355812D01*
X52490000Y-57368072D01*
X54190000Y-57368072D01*
X54314482Y-57355812D01*
X54434180Y-57319502D01*
X54544494Y-57260537D01*
X54641185Y-57181185D01*
X54720537Y-57084494D01*
X54779502Y-56974180D01*
X54803966Y-56893534D01*
X54879731Y-56977588D01*
X55113080Y-57151641D01*
X55375901Y-57276825D01*
X55523110Y-57321476D01*
X55753000Y-57200155D01*
X55753000Y-56007000D01*
X55733000Y-56007000D01*
X55733000Y-55753000D01*
X55753000Y-55753000D01*
X55753000Y-53467000D01*
X55733000Y-53467000D01*
X55733000Y-53213000D01*
X55753000Y-53213000D01*
X55753000Y-50927000D01*
X55733000Y-50927000D01*
X55733000Y-50673000D01*
X55753000Y-50673000D01*
X55753000Y-48387000D01*
X55733000Y-48387000D01*
X55733000Y-48133000D01*
X55753000Y-48133000D01*
X55753000Y-45847000D01*
X55733000Y-45847000D01*
X55733000Y-45593000D01*
X55753000Y-45593000D01*
X55753000Y-43307000D01*
X55733000Y-43307000D01*
X55733000Y-43053000D01*
X55753000Y-43053000D01*
X55753000Y-41859845D01*
X56007000Y-41859845D01*
X56007000Y-43053000D01*
X56027000Y-43053000D01*
X56027000Y-43307000D01*
X56007000Y-43307000D01*
X56007000Y-45593000D01*
X56027000Y-45593000D01*
X56027000Y-45847000D01*
X56007000Y-45847000D01*
X56007000Y-48133000D01*
X56027000Y-48133000D01*
X56027000Y-48387000D01*
X56007000Y-48387000D01*
X56007000Y-50673000D01*
X56027000Y-50673000D01*
X56027000Y-50927000D01*
X56007000Y-50927000D01*
X56007000Y-53213000D01*
X56027000Y-53213000D01*
X56027000Y-53467000D01*
X56007000Y-53467000D01*
X56007000Y-55753000D01*
X56027000Y-55753000D01*
X56027000Y-56007000D01*
X56007000Y-56007000D01*
X56007000Y-57200155D01*
X56236890Y-57321476D01*
X56384099Y-57276825D01*
X56646920Y-57151641D01*
X56880269Y-56977588D01*
X57075178Y-56761355D01*
X57144805Y-56644466D01*
X57266525Y-56826632D01*
X57473368Y-57033475D01*
X57716589Y-57195990D01*
X57986842Y-57307932D01*
X58273740Y-57365000D01*
X58566260Y-57365000D01*
X58853158Y-57307932D01*
X59123411Y-57195990D01*
X59366632Y-57033475D01*
X59573475Y-56826632D01*
X59735990Y-56583411D01*
X59847932Y-56313158D01*
X59905000Y-56026260D01*
X59905000Y-55733740D01*
X59847932Y-55446842D01*
X59735990Y-55176589D01*
X59573475Y-54933368D01*
X59366632Y-54726525D01*
X59192240Y-54610000D01*
X59366632Y-54493475D01*
X59573475Y-54286632D01*
X59735990Y-54043411D01*
X59847932Y-53773158D01*
X59905000Y-53486260D01*
X59905000Y-53193740D01*
X59862772Y-52981445D01*
X59877334Y-52980011D01*
X65676929Y-52980011D01*
X65676929Y-53015001D01*
X65692072Y-53168746D01*
X65736917Y-53316583D01*
X65809743Y-53452830D01*
X65848455Y-53500001D01*
X65809743Y-53547172D01*
X65736917Y-53683419D01*
X65692072Y-53831256D01*
X65676929Y-53985001D01*
X65676929Y-54285001D01*
X65692072Y-54438746D01*
X65736917Y-54586583D01*
X65809743Y-54722830D01*
X65907750Y-54842252D01*
X66027172Y-54940259D01*
X66163419Y-55013085D01*
X66311256Y-55057930D01*
X66465001Y-55073073D01*
X66550000Y-55073073D01*
X66550001Y-58935488D01*
X66531463Y-58954026D01*
X66418195Y-59123544D01*
X66340174Y-59311902D01*
X66300400Y-59511861D01*
X66300400Y-59715739D01*
X66340174Y-59915698D01*
X66418195Y-60104056D01*
X66531463Y-60273574D01*
X66675626Y-60417737D01*
X66845144Y-60531005D01*
X67033502Y-60609026D01*
X67233461Y-60648800D01*
X67437339Y-60648800D01*
X67637298Y-60609026D01*
X67825656Y-60531005D01*
X67995174Y-60417737D01*
X68139337Y-60273574D01*
X68252605Y-60104056D01*
X68330626Y-59915698D01*
X68359112Y-59772485D01*
X87690000Y-59772485D01*
X87690000Y-60227515D01*
X87778772Y-60673802D01*
X87952905Y-61094195D01*
X88205706Y-61472539D01*
X88527461Y-61794294D01*
X88905805Y-62047095D01*
X89326198Y-62221228D01*
X89772485Y-62310000D01*
X90227515Y-62310000D01*
X90673802Y-62221228D01*
X91094195Y-62047095D01*
X91472539Y-61794294D01*
X91794294Y-61472539D01*
X92047095Y-61094195D01*
X92221228Y-60673802D01*
X92310000Y-60227515D01*
X92310000Y-59772485D01*
X92221228Y-59326198D01*
X92047095Y-58905805D01*
X91794294Y-58527461D01*
X91472539Y-58205706D01*
X91094195Y-57952905D01*
X90673802Y-57778772D01*
X90227515Y-57690000D01*
X89772485Y-57690000D01*
X89326198Y-57778772D01*
X88905805Y-57952905D01*
X88527461Y-58205706D01*
X88205706Y-58527461D01*
X87952905Y-58905805D01*
X87778772Y-59326198D01*
X87690000Y-59772485D01*
X68359112Y-59772485D01*
X68370400Y-59715739D01*
X68370400Y-59511861D01*
X68330626Y-59311902D01*
X68252605Y-59123544D01*
X68139337Y-58954026D01*
X68070000Y-58884689D01*
X68070000Y-55073073D01*
X68115001Y-55073073D01*
X68268746Y-55057930D01*
X68416583Y-55013085D01*
X68552830Y-54940259D01*
X68672252Y-54842252D01*
X68770259Y-54722830D01*
X68843085Y-54586583D01*
X68887930Y-54438746D01*
X68903073Y-54285001D01*
X68903073Y-53985001D01*
X68887930Y-53831256D01*
X68881945Y-53811526D01*
X68978744Y-53876205D01*
X69167102Y-53954226D01*
X69367061Y-53994000D01*
X69570939Y-53994000D01*
X69770898Y-53954226D01*
X69959256Y-53876205D01*
X70128774Y-53762937D01*
X70272937Y-53618774D01*
X70386205Y-53449256D01*
X70464226Y-53260898D01*
X70504000Y-53060939D01*
X70504000Y-52980011D01*
X70626929Y-52980011D01*
X70626929Y-53015001D01*
X70642072Y-53168746D01*
X70686917Y-53316583D01*
X70759743Y-53452830D01*
X70798455Y-53500001D01*
X70759743Y-53547172D01*
X70686917Y-53683419D01*
X70642072Y-53831256D01*
X70626929Y-53985001D01*
X70626929Y-54285001D01*
X70642072Y-54438746D01*
X70686917Y-54586583D01*
X70759743Y-54722830D01*
X70857750Y-54842252D01*
X70977172Y-54940259D01*
X71113419Y-55013085D01*
X71261256Y-55057930D01*
X71415001Y-55073073D01*
X73065001Y-55073073D01*
X73218746Y-55057930D01*
X73366583Y-55013085D01*
X73502830Y-54940259D01*
X73598189Y-54862000D01*
X74099289Y-54862000D01*
X74143226Y-54905937D01*
X74312744Y-55019205D01*
X74501102Y-55097226D01*
X74701061Y-55137000D01*
X74855026Y-55137000D01*
X74860774Y-55165898D01*
X74938795Y-55354256D01*
X75052063Y-55523774D01*
X75196226Y-55667937D01*
X75365744Y-55781205D01*
X75546202Y-55855954D01*
X75585774Y-56054898D01*
X75663795Y-56243256D01*
X75777063Y-56412774D01*
X75921226Y-56556937D01*
X76090744Y-56670205D01*
X76279102Y-56748226D01*
X76479061Y-56788000D01*
X76528097Y-56788000D01*
X76429226Y-56854063D01*
X76285063Y-56998226D01*
X76171795Y-57167744D01*
X76093774Y-57356102D01*
X76054000Y-57556061D01*
X76054000Y-57759939D01*
X76093774Y-57959898D01*
X76171795Y-58148256D01*
X76285063Y-58317774D01*
X76429226Y-58461937D01*
X76598744Y-58575205D01*
X76787102Y-58653226D01*
X76987061Y-58693000D01*
X77190939Y-58693000D01*
X77390898Y-58653226D01*
X77579256Y-58575205D01*
X77748774Y-58461937D01*
X77892937Y-58317774D01*
X78006205Y-58148256D01*
X78084226Y-57959898D01*
X78124000Y-57759939D01*
X78124000Y-57556061D01*
X78084226Y-57356102D01*
X78066001Y-57312103D01*
X78066001Y-51913326D01*
X78069677Y-51876001D01*
X78066001Y-51838676D01*
X78066001Y-51838668D01*
X78055004Y-51727015D01*
X78011547Y-51583754D01*
X77940975Y-51451725D01*
X77846002Y-51336000D01*
X77817005Y-51312203D01*
X73778805Y-47274004D01*
X73755002Y-47245000D01*
X73738651Y-47231581D01*
X73721271Y-47199065D01*
X73745538Y-47169495D01*
X73804503Y-47059181D01*
X73840813Y-46939483D01*
X73853073Y-46815001D01*
X73850001Y-46800751D01*
X73691251Y-46642001D01*
X72367001Y-46642001D01*
X72367001Y-46662001D01*
X72113001Y-46662001D01*
X72113001Y-46642001D01*
X70788751Y-46642001D01*
X70630001Y-46800751D01*
X70626929Y-46815001D01*
X70639189Y-46939483D01*
X70675499Y-47059181D01*
X70734464Y-47169495D01*
X70758731Y-47199065D01*
X70686917Y-47333419D01*
X70642072Y-47481256D01*
X70626929Y-47635001D01*
X70626929Y-47935001D01*
X70642072Y-48088746D01*
X70686917Y-48236583D01*
X70759743Y-48372830D01*
X70798455Y-48420001D01*
X70759743Y-48467172D01*
X70686917Y-48603419D01*
X70642072Y-48751256D01*
X70626929Y-48905001D01*
X70626929Y-49205001D01*
X70642072Y-49358746D01*
X70686917Y-49506583D01*
X70757805Y-49639204D01*
X70662723Y-49690027D01*
X70546998Y-49785000D01*
X70523200Y-49813998D01*
X70232934Y-50104264D01*
X70210226Y-49990102D01*
X70132205Y-49801744D01*
X70018937Y-49632226D01*
X69874774Y-49488063D01*
X69705256Y-49374795D01*
X69516898Y-49296774D01*
X69316939Y-49257000D01*
X69113061Y-49257000D01*
X68913102Y-49296774D01*
X68893223Y-49305008D01*
X68903073Y-49205001D01*
X68903073Y-48905001D01*
X68887930Y-48751256D01*
X68843085Y-48603419D01*
X68811860Y-48545001D01*
X68859288Y-48545001D01*
X68903225Y-48588938D01*
X69072743Y-48702206D01*
X69261101Y-48780227D01*
X69461060Y-48820001D01*
X69664938Y-48820001D01*
X69864897Y-48780227D01*
X70053255Y-48702206D01*
X70222773Y-48588938D01*
X70366936Y-48444775D01*
X70480204Y-48275257D01*
X70558225Y-48086899D01*
X70597999Y-47886940D01*
X70597999Y-47683062D01*
X70558225Y-47483103D01*
X70480204Y-47294745D01*
X70366936Y-47125227D01*
X70222773Y-46981064D01*
X70053255Y-46867796D01*
X69864897Y-46789775D01*
X69664938Y-46750001D01*
X69461060Y-46750001D01*
X69261101Y-46789775D01*
X69072743Y-46867796D01*
X68903225Y-46981064D01*
X68859288Y-47025001D01*
X68811860Y-47025001D01*
X68843085Y-46966583D01*
X68887930Y-46818746D01*
X68903073Y-46665001D01*
X68903073Y-46365001D01*
X68888299Y-46215001D01*
X70626929Y-46215001D01*
X70630001Y-46229251D01*
X70788751Y-46388001D01*
X72113001Y-46388001D01*
X72113001Y-45738751D01*
X72367001Y-45738751D01*
X72367001Y-46388001D01*
X73691251Y-46388001D01*
X73850001Y-46229251D01*
X73853073Y-46215001D01*
X73840813Y-46090519D01*
X73804503Y-45970821D01*
X73745538Y-45860507D01*
X73666186Y-45763816D01*
X73569495Y-45684464D01*
X73459181Y-45625499D01*
X73339483Y-45589189D01*
X73215001Y-45576929D01*
X72525751Y-45580001D01*
X72367001Y-45738751D01*
X72113001Y-45738751D01*
X71954251Y-45580001D01*
X71265001Y-45576929D01*
X71140519Y-45589189D01*
X71020821Y-45625499D01*
X70910507Y-45684464D01*
X70813816Y-45763816D01*
X70734464Y-45860507D01*
X70675499Y-45970821D01*
X70639189Y-46090519D01*
X70626929Y-46215001D01*
X68888299Y-46215001D01*
X68887930Y-46211256D01*
X68843085Y-46063419D01*
X68770259Y-45927172D01*
X68672252Y-45807750D01*
X68552830Y-45709743D01*
X68416583Y-45636917D01*
X68268746Y-45592072D01*
X68115001Y-45576929D01*
X67426731Y-45576929D01*
X64883542Y-43033740D01*
X79795000Y-43033740D01*
X79795000Y-43326260D01*
X79852068Y-43613158D01*
X79964010Y-43883411D01*
X80126525Y-44126632D01*
X80333368Y-44333475D01*
X80507760Y-44450000D01*
X80333368Y-44566525D01*
X80126525Y-44773368D01*
X79964010Y-45016589D01*
X79852068Y-45286842D01*
X79795000Y-45573740D01*
X79795000Y-45866260D01*
X79852068Y-46153158D01*
X79964010Y-46423411D01*
X80126525Y-46666632D01*
X80333368Y-46873475D01*
X80507760Y-46990000D01*
X80333368Y-47106525D01*
X80126525Y-47313368D01*
X79964010Y-47556589D01*
X79852068Y-47826842D01*
X79795000Y-48113740D01*
X79795000Y-48406260D01*
X79852068Y-48693158D01*
X79964010Y-48963411D01*
X80126525Y-49206632D01*
X80333368Y-49413475D01*
X80507760Y-49530000D01*
X80333368Y-49646525D01*
X80126525Y-49853368D01*
X79964010Y-50096589D01*
X79852068Y-50366842D01*
X79795000Y-50653740D01*
X79795000Y-50946260D01*
X79852068Y-51233158D01*
X79964010Y-51503411D01*
X80126525Y-51746632D01*
X80333368Y-51953475D01*
X80507760Y-52070000D01*
X80333368Y-52186525D01*
X80126525Y-52393368D01*
X79964010Y-52636589D01*
X79852068Y-52906842D01*
X79795000Y-53193740D01*
X79795000Y-53486260D01*
X79852068Y-53773158D01*
X79964010Y-54043411D01*
X80126525Y-54286632D01*
X80333368Y-54493475D01*
X80507760Y-54610000D01*
X80333368Y-54726525D01*
X80126525Y-54933368D01*
X79964010Y-55176589D01*
X79852068Y-55446842D01*
X79795000Y-55733740D01*
X79795000Y-56026260D01*
X79852068Y-56313158D01*
X79964010Y-56583411D01*
X80126525Y-56826632D01*
X80333368Y-57033475D01*
X80576589Y-57195990D01*
X80846842Y-57307932D01*
X81133740Y-57365000D01*
X81426260Y-57365000D01*
X81713158Y-57307932D01*
X81983411Y-57195990D01*
X82226632Y-57033475D01*
X82433475Y-56826632D01*
X82555195Y-56644466D01*
X82624822Y-56761355D01*
X82819731Y-56977588D01*
X83053080Y-57151641D01*
X83315901Y-57276825D01*
X83463110Y-57321476D01*
X83693000Y-57200155D01*
X83693000Y-56007000D01*
X83673000Y-56007000D01*
X83673000Y-55753000D01*
X83693000Y-55753000D01*
X83693000Y-53467000D01*
X83673000Y-53467000D01*
X83673000Y-53213000D01*
X83693000Y-53213000D01*
X83693000Y-50927000D01*
X83673000Y-50927000D01*
X83673000Y-50673000D01*
X83693000Y-50673000D01*
X83693000Y-48387000D01*
X83673000Y-48387000D01*
X83673000Y-48133000D01*
X83693000Y-48133000D01*
X83693000Y-45847000D01*
X83673000Y-45847000D01*
X83673000Y-45593000D01*
X83693000Y-45593000D01*
X83693000Y-43307000D01*
X83673000Y-43307000D01*
X83673000Y-43053000D01*
X83693000Y-43053000D01*
X83693000Y-41859845D01*
X83947000Y-41859845D01*
X83947000Y-43053000D01*
X83967000Y-43053000D01*
X83967000Y-43307000D01*
X83947000Y-43307000D01*
X83947000Y-45593000D01*
X83967000Y-45593000D01*
X83967000Y-45847000D01*
X83947000Y-45847000D01*
X83947000Y-48133000D01*
X83967000Y-48133000D01*
X83967000Y-48387000D01*
X83947000Y-48387000D01*
X83947000Y-50673000D01*
X83967000Y-50673000D01*
X83967000Y-50927000D01*
X83947000Y-50927000D01*
X83947000Y-53213000D01*
X83967000Y-53213000D01*
X83967000Y-53467000D01*
X83947000Y-53467000D01*
X83947000Y-55753000D01*
X83967000Y-55753000D01*
X83967000Y-56007000D01*
X83947000Y-56007000D01*
X83947000Y-57200155D01*
X84176890Y-57321476D01*
X84324099Y-57276825D01*
X84586920Y-57151641D01*
X84820269Y-56977588D01*
X84896034Y-56893534D01*
X84920498Y-56974180D01*
X84979463Y-57084494D01*
X85058815Y-57181185D01*
X85155506Y-57260537D01*
X85265820Y-57319502D01*
X85385518Y-57355812D01*
X85510000Y-57368072D01*
X87210000Y-57368072D01*
X87334482Y-57355812D01*
X87454180Y-57319502D01*
X87564494Y-57260537D01*
X87661185Y-57181185D01*
X87740537Y-57084494D01*
X87799502Y-56974180D01*
X87835812Y-56854482D01*
X87848072Y-56730000D01*
X87848072Y-55030000D01*
X87835812Y-54905518D01*
X87799502Y-54785820D01*
X87740537Y-54675506D01*
X87686778Y-54610000D01*
X87740537Y-54544494D01*
X87799502Y-54434180D01*
X87835812Y-54314482D01*
X87848072Y-54190000D01*
X87848072Y-52490000D01*
X87835812Y-52365518D01*
X87799502Y-52245820D01*
X87740537Y-52135506D01*
X87686778Y-52070000D01*
X87740537Y-52004494D01*
X87799502Y-51894180D01*
X87835812Y-51774482D01*
X87848072Y-51650000D01*
X87848072Y-49950000D01*
X87835812Y-49825518D01*
X87799502Y-49705820D01*
X87740537Y-49595506D01*
X87686778Y-49530000D01*
X87740537Y-49464494D01*
X87799502Y-49354180D01*
X87835812Y-49234482D01*
X87848072Y-49110000D01*
X87848072Y-47410000D01*
X87835812Y-47285518D01*
X87799502Y-47165820D01*
X87740537Y-47055506D01*
X87686778Y-46990000D01*
X87740537Y-46924494D01*
X87799502Y-46814180D01*
X87835812Y-46694482D01*
X87848072Y-46570000D01*
X87848072Y-44870000D01*
X87835812Y-44745518D01*
X87799502Y-44625820D01*
X87740537Y-44515506D01*
X87686778Y-44450000D01*
X87740537Y-44384494D01*
X87799502Y-44274180D01*
X87835812Y-44154482D01*
X87848072Y-44030000D01*
X87848072Y-42330000D01*
X87835812Y-42205518D01*
X87799502Y-42085820D01*
X87740537Y-41975506D01*
X87661185Y-41878815D01*
X87564494Y-41799463D01*
X87454180Y-41740498D01*
X87334482Y-41704188D01*
X87210000Y-41691928D01*
X85510000Y-41691928D01*
X85385518Y-41704188D01*
X85265820Y-41740498D01*
X85155506Y-41799463D01*
X85058815Y-41878815D01*
X84979463Y-41975506D01*
X84920498Y-42085820D01*
X84896034Y-42166466D01*
X84820269Y-42082412D01*
X84586920Y-41908359D01*
X84324099Y-41783175D01*
X84176890Y-41738524D01*
X83947000Y-41859845D01*
X83693000Y-41859845D01*
X83463110Y-41738524D01*
X83315901Y-41783175D01*
X83053080Y-41908359D01*
X82819731Y-42082412D01*
X82624822Y-42298645D01*
X82555195Y-42415534D01*
X82433475Y-42233368D01*
X82226632Y-42026525D01*
X81983411Y-41864010D01*
X81713158Y-41752068D01*
X81426260Y-41695000D01*
X81133740Y-41695000D01*
X80846842Y-41752068D01*
X80576589Y-41864010D01*
X80333368Y-42026525D01*
X80126525Y-42233368D01*
X79964010Y-42476589D01*
X79852068Y-42746842D01*
X79795000Y-43033740D01*
X64883542Y-43033740D01*
X64518804Y-42669003D01*
X64495001Y-42639999D01*
X64379276Y-42545026D01*
X64247247Y-42474454D01*
X64103986Y-42430997D01*
X63992333Y-42420000D01*
X63992322Y-42420000D01*
X63955000Y-42416324D01*
X63917678Y-42420000D01*
X59698178Y-42420000D01*
X59573475Y-42233368D01*
X59366632Y-42026525D01*
X59123411Y-41864010D01*
X58853158Y-41752068D01*
X58566260Y-41695000D01*
X58273740Y-41695000D01*
X57986842Y-41752068D01*
X57716589Y-41864010D01*
X57473368Y-42026525D01*
X57266525Y-42233368D01*
X57144805Y-42415534D01*
X57075178Y-42298645D01*
X56880269Y-42082412D01*
X56646920Y-41908359D01*
X56384099Y-41783175D01*
X56236890Y-41738524D01*
X56007000Y-41859845D01*
X55753000Y-41859845D01*
X55523110Y-41738524D01*
X55375901Y-41783175D01*
X55113080Y-41908359D01*
X54879731Y-42082412D01*
X54803966Y-42166466D01*
X54779502Y-42085820D01*
X54720537Y-41975506D01*
X54641185Y-41878815D01*
X54544494Y-41799463D01*
X54434180Y-41740498D01*
X54314482Y-41704188D01*
X54190000Y-41691928D01*
X52490000Y-41691928D01*
X52365518Y-41704188D01*
X52245820Y-41740498D01*
X52135506Y-41799463D01*
X52038815Y-41878815D01*
X51959463Y-41975506D01*
X51900498Y-42085820D01*
X51864188Y-42205518D01*
X51851928Y-42330000D01*
X47660000Y-42330000D01*
X47660000Y-38772485D01*
X47690000Y-38772485D01*
X47690000Y-39227515D01*
X47778772Y-39673802D01*
X47952905Y-40094195D01*
X48205706Y-40472539D01*
X48527461Y-40794294D01*
X48905805Y-41047095D01*
X49326198Y-41221228D01*
X49772485Y-41310000D01*
X50227515Y-41310000D01*
X50673802Y-41221228D01*
X51094195Y-41047095D01*
X51472539Y-40794294D01*
X51794294Y-40472539D01*
X52047095Y-40094195D01*
X52221228Y-39673802D01*
X52310000Y-39227515D01*
X52310000Y-38772485D01*
X87690000Y-38772485D01*
X87690000Y-39227515D01*
X87778772Y-39673802D01*
X87952905Y-40094195D01*
X88205706Y-40472539D01*
X88527461Y-40794294D01*
X88905805Y-41047095D01*
X89326198Y-41221228D01*
X89772485Y-41310000D01*
X90227515Y-41310000D01*
X90673802Y-41221228D01*
X91094195Y-41047095D01*
X91472539Y-40794294D01*
X91794294Y-40472539D01*
X92047095Y-40094195D01*
X92221228Y-39673802D01*
X92310000Y-39227515D01*
X92310000Y-38772485D01*
X92221228Y-38326198D01*
X92047095Y-37905805D01*
X91794294Y-37527461D01*
X91472539Y-37205706D01*
X91094195Y-36952905D01*
X90673802Y-36778772D01*
X90227515Y-36690000D01*
X89772485Y-36690000D01*
X89326198Y-36778772D01*
X88905805Y-36952905D01*
X88527461Y-37205706D01*
X88205706Y-37527461D01*
X87952905Y-37905805D01*
X87778772Y-38326198D01*
X87690000Y-38772485D01*
X52310000Y-38772485D01*
X52221228Y-38326198D01*
X52047095Y-37905805D01*
X51794294Y-37527461D01*
X51472539Y-37205706D01*
X51094195Y-36952905D01*
X50673802Y-36778772D01*
X50227515Y-36690000D01*
X49772485Y-36690000D01*
X49326198Y-36778772D01*
X48905805Y-36952905D01*
X48527461Y-37205706D01*
X48205706Y-37527461D01*
X47952905Y-37905805D01*
X47778772Y-38326198D01*
X47690000Y-38772485D01*
X47660000Y-38772485D01*
X47660000Y-38032279D01*
X47688625Y-37740341D01*
X47764035Y-37490571D01*
X47886522Y-37260208D01*
X48051422Y-37058020D01*
X48252450Y-36891714D01*
X48481954Y-36767622D01*
X48731195Y-36690469D01*
X49021088Y-36660000D01*
X90967721Y-36660000D01*
X91259659Y-36688625D01*
M02*
