G04 #@! TF.GenerationSoftware,KiCad,Pcbnew,5.1.5+dfsg1-2build2*
G04 #@! TF.CreationDate,2021-02-08T17:23:34+09:00*
G04 #@! TF.ProjectId,v3-pwm-buffer,76332d70-776d-42d6-9275-666665722e6b,rev?*
G04 #@! TF.SameCoordinates,Original*
G04 #@! TF.FileFunction,Soldermask,Top*
G04 #@! TF.FilePolarity,Negative*
%FSLAX46Y46*%
G04 Gerber Fmt 4.6, Leading zero omitted, Abs format (unit mm)*
G04 Created by KiCad (PCBNEW 5.1.5+dfsg1-2build2) date 2021-02-08 17:23:34*
%MOMM*%
%LPD*%
G04 APERTURE LIST*
%ADD10C,0.100000*%
G04 APERTURE END LIST*
D10*
G36*
X54241000Y-56781000D02*
G01*
X52439000Y-56781000D01*
X52439000Y-54979000D01*
X54241000Y-54979000D01*
X54241000Y-56781000D01*
G37*
G36*
X83933512Y-54983927D02*
G01*
X84082812Y-55013624D01*
X84246784Y-55081544D01*
X84394354Y-55180147D01*
X84519853Y-55305646D01*
X84618456Y-55453216D01*
X84686376Y-55617188D01*
X84721000Y-55791259D01*
X84721000Y-55968741D01*
X84686376Y-56142812D01*
X84618456Y-56306784D01*
X84519853Y-56454354D01*
X84394354Y-56579853D01*
X84246784Y-56678456D01*
X84082812Y-56746376D01*
X83933512Y-56776073D01*
X83908742Y-56781000D01*
X83731258Y-56781000D01*
X83706488Y-56776073D01*
X83557188Y-56746376D01*
X83393216Y-56678456D01*
X83245646Y-56579853D01*
X83120147Y-56454354D01*
X83021544Y-56306784D01*
X82953624Y-56142812D01*
X82919000Y-55968741D01*
X82919000Y-55791259D01*
X82953624Y-55617188D01*
X83021544Y-55453216D01*
X83120147Y-55305646D01*
X83245646Y-55180147D01*
X83393216Y-55081544D01*
X83557188Y-55013624D01*
X83706488Y-54983927D01*
X83731258Y-54979000D01*
X83908742Y-54979000D01*
X83933512Y-54983927D01*
G37*
G36*
X81393512Y-54983927D02*
G01*
X81542812Y-55013624D01*
X81706784Y-55081544D01*
X81854354Y-55180147D01*
X81979853Y-55305646D01*
X82078456Y-55453216D01*
X82146376Y-55617188D01*
X82181000Y-55791259D01*
X82181000Y-55968741D01*
X82146376Y-56142812D01*
X82078456Y-56306784D01*
X81979853Y-56454354D01*
X81854354Y-56579853D01*
X81706784Y-56678456D01*
X81542812Y-56746376D01*
X81393512Y-56776073D01*
X81368742Y-56781000D01*
X81191258Y-56781000D01*
X81166488Y-56776073D01*
X81017188Y-56746376D01*
X80853216Y-56678456D01*
X80705646Y-56579853D01*
X80580147Y-56454354D01*
X80481544Y-56306784D01*
X80413624Y-56142812D01*
X80379000Y-55968741D01*
X80379000Y-55791259D01*
X80413624Y-55617188D01*
X80481544Y-55453216D01*
X80580147Y-55305646D01*
X80705646Y-55180147D01*
X80853216Y-55081544D01*
X81017188Y-55013624D01*
X81166488Y-54983927D01*
X81191258Y-54979000D01*
X81368742Y-54979000D01*
X81393512Y-54983927D01*
G37*
G36*
X87261000Y-56781000D02*
G01*
X85459000Y-56781000D01*
X85459000Y-54979000D01*
X87261000Y-54979000D01*
X87261000Y-56781000D01*
G37*
G36*
X55993512Y-54983927D02*
G01*
X56142812Y-55013624D01*
X56306784Y-55081544D01*
X56454354Y-55180147D01*
X56579853Y-55305646D01*
X56678456Y-55453216D01*
X56746376Y-55617188D01*
X56781000Y-55791259D01*
X56781000Y-55968741D01*
X56746376Y-56142812D01*
X56678456Y-56306784D01*
X56579853Y-56454354D01*
X56454354Y-56579853D01*
X56306784Y-56678456D01*
X56142812Y-56746376D01*
X55993512Y-56776073D01*
X55968742Y-56781000D01*
X55791258Y-56781000D01*
X55766488Y-56776073D01*
X55617188Y-56746376D01*
X55453216Y-56678456D01*
X55305646Y-56579853D01*
X55180147Y-56454354D01*
X55081544Y-56306784D01*
X55013624Y-56142812D01*
X54979000Y-55968741D01*
X54979000Y-55791259D01*
X55013624Y-55617188D01*
X55081544Y-55453216D01*
X55180147Y-55305646D01*
X55305646Y-55180147D01*
X55453216Y-55081544D01*
X55617188Y-55013624D01*
X55766488Y-54983927D01*
X55791258Y-54979000D01*
X55968742Y-54979000D01*
X55993512Y-54983927D01*
G37*
G36*
X58533512Y-54983927D02*
G01*
X58682812Y-55013624D01*
X58846784Y-55081544D01*
X58994354Y-55180147D01*
X59119853Y-55305646D01*
X59218456Y-55453216D01*
X59286376Y-55617188D01*
X59321000Y-55791259D01*
X59321000Y-55968741D01*
X59286376Y-56142812D01*
X59218456Y-56306784D01*
X59119853Y-56454354D01*
X58994354Y-56579853D01*
X58846784Y-56678456D01*
X58682812Y-56746376D01*
X58533512Y-56776073D01*
X58508742Y-56781000D01*
X58331258Y-56781000D01*
X58306488Y-56776073D01*
X58157188Y-56746376D01*
X57993216Y-56678456D01*
X57845646Y-56579853D01*
X57720147Y-56454354D01*
X57621544Y-56306784D01*
X57553624Y-56142812D01*
X57519000Y-55968741D01*
X57519000Y-55791259D01*
X57553624Y-55617188D01*
X57621544Y-55453216D01*
X57720147Y-55305646D01*
X57845646Y-55180147D01*
X57993216Y-55081544D01*
X58157188Y-55013624D01*
X58306488Y-54983927D01*
X58331258Y-54979000D01*
X58508742Y-54979000D01*
X58533512Y-54983927D01*
G37*
G36*
X68224929Y-53786765D02*
G01*
X68246010Y-53793161D01*
X68265446Y-53803549D01*
X68282477Y-53817525D01*
X68296453Y-53834556D01*
X68306841Y-53853992D01*
X68313237Y-53875073D01*
X68316001Y-53903141D01*
X68316001Y-54366861D01*
X68313237Y-54394929D01*
X68306841Y-54416010D01*
X68296453Y-54435446D01*
X68282477Y-54452477D01*
X68265446Y-54466453D01*
X68246010Y-54476841D01*
X68224929Y-54483237D01*
X68196861Y-54486001D01*
X66383141Y-54486001D01*
X66355073Y-54483237D01*
X66333992Y-54476841D01*
X66314556Y-54466453D01*
X66297525Y-54452477D01*
X66283549Y-54435446D01*
X66273161Y-54416010D01*
X66266765Y-54394929D01*
X66264001Y-54366861D01*
X66264001Y-53903141D01*
X66266765Y-53875073D01*
X66273161Y-53853992D01*
X66283549Y-53834556D01*
X66297525Y-53817525D01*
X66314556Y-53803549D01*
X66333992Y-53793161D01*
X66355073Y-53786765D01*
X66383141Y-53784001D01*
X68196861Y-53784001D01*
X68224929Y-53786765D01*
G37*
G36*
X73174929Y-53786765D02*
G01*
X73196010Y-53793161D01*
X73215446Y-53803549D01*
X73232477Y-53817525D01*
X73246453Y-53834556D01*
X73256841Y-53853992D01*
X73263237Y-53875073D01*
X73266001Y-53903141D01*
X73266001Y-54366861D01*
X73263237Y-54394929D01*
X73256841Y-54416010D01*
X73246453Y-54435446D01*
X73232477Y-54452477D01*
X73215446Y-54466453D01*
X73196010Y-54476841D01*
X73174929Y-54483237D01*
X73146861Y-54486001D01*
X71333141Y-54486001D01*
X71305073Y-54483237D01*
X71283992Y-54476841D01*
X71264556Y-54466453D01*
X71247525Y-54452477D01*
X71233549Y-54435446D01*
X71223161Y-54416010D01*
X71216765Y-54394929D01*
X71214001Y-54366861D01*
X71214001Y-53903141D01*
X71216765Y-53875073D01*
X71223161Y-53853992D01*
X71233549Y-53834556D01*
X71247525Y-53817525D01*
X71264556Y-53803549D01*
X71283992Y-53793161D01*
X71305073Y-53786765D01*
X71333141Y-53784001D01*
X73146861Y-53784001D01*
X73174929Y-53786765D01*
G37*
G36*
X87261000Y-54241000D02*
G01*
X85459000Y-54241000D01*
X85459000Y-52439000D01*
X87261000Y-52439000D01*
X87261000Y-54241000D01*
G37*
G36*
X54241000Y-54241000D02*
G01*
X52439000Y-54241000D01*
X52439000Y-52439000D01*
X54241000Y-52439000D01*
X54241000Y-54241000D01*
G37*
G36*
X55993512Y-52443927D02*
G01*
X56142812Y-52473624D01*
X56306784Y-52541544D01*
X56454354Y-52640147D01*
X56579853Y-52765646D01*
X56678456Y-52913216D01*
X56746376Y-53077188D01*
X56781000Y-53251259D01*
X56781000Y-53428741D01*
X56746376Y-53602812D01*
X56678456Y-53766784D01*
X56579853Y-53914354D01*
X56454354Y-54039853D01*
X56306784Y-54138456D01*
X56142812Y-54206376D01*
X55993512Y-54236073D01*
X55968742Y-54241000D01*
X55791258Y-54241000D01*
X55766488Y-54236073D01*
X55617188Y-54206376D01*
X55453216Y-54138456D01*
X55305646Y-54039853D01*
X55180147Y-53914354D01*
X55081544Y-53766784D01*
X55013624Y-53602812D01*
X54979000Y-53428741D01*
X54979000Y-53251259D01*
X55013624Y-53077188D01*
X55081544Y-52913216D01*
X55180147Y-52765646D01*
X55305646Y-52640147D01*
X55453216Y-52541544D01*
X55617188Y-52473624D01*
X55766488Y-52443927D01*
X55791258Y-52439000D01*
X55968742Y-52439000D01*
X55993512Y-52443927D01*
G37*
G36*
X58533512Y-52443927D02*
G01*
X58682812Y-52473624D01*
X58846784Y-52541544D01*
X58994354Y-52640147D01*
X59119853Y-52765646D01*
X59218456Y-52913216D01*
X59286376Y-53077188D01*
X59321000Y-53251259D01*
X59321000Y-53428741D01*
X59286376Y-53602812D01*
X59218456Y-53766784D01*
X59119853Y-53914354D01*
X58994354Y-54039853D01*
X58846784Y-54138456D01*
X58682812Y-54206376D01*
X58533512Y-54236073D01*
X58508742Y-54241000D01*
X58331258Y-54241000D01*
X58306488Y-54236073D01*
X58157188Y-54206376D01*
X57993216Y-54138456D01*
X57845646Y-54039853D01*
X57720147Y-53914354D01*
X57621544Y-53766784D01*
X57553624Y-53602812D01*
X57519000Y-53428741D01*
X57519000Y-53251259D01*
X57553624Y-53077188D01*
X57621544Y-52913216D01*
X57720147Y-52765646D01*
X57845646Y-52640147D01*
X57993216Y-52541544D01*
X58157188Y-52473624D01*
X58306488Y-52443927D01*
X58331258Y-52439000D01*
X58508742Y-52439000D01*
X58533512Y-52443927D01*
G37*
G36*
X83933512Y-52443927D02*
G01*
X84082812Y-52473624D01*
X84246784Y-52541544D01*
X84394354Y-52640147D01*
X84519853Y-52765646D01*
X84618456Y-52913216D01*
X84686376Y-53077188D01*
X84721000Y-53251259D01*
X84721000Y-53428741D01*
X84686376Y-53602812D01*
X84618456Y-53766784D01*
X84519853Y-53914354D01*
X84394354Y-54039853D01*
X84246784Y-54138456D01*
X84082812Y-54206376D01*
X83933512Y-54236073D01*
X83908742Y-54241000D01*
X83731258Y-54241000D01*
X83706488Y-54236073D01*
X83557188Y-54206376D01*
X83393216Y-54138456D01*
X83245646Y-54039853D01*
X83120147Y-53914354D01*
X83021544Y-53766784D01*
X82953624Y-53602812D01*
X82919000Y-53428741D01*
X82919000Y-53251259D01*
X82953624Y-53077188D01*
X83021544Y-52913216D01*
X83120147Y-52765646D01*
X83245646Y-52640147D01*
X83393216Y-52541544D01*
X83557188Y-52473624D01*
X83706488Y-52443927D01*
X83731258Y-52439000D01*
X83908742Y-52439000D01*
X83933512Y-52443927D01*
G37*
G36*
X81393512Y-52443927D02*
G01*
X81542812Y-52473624D01*
X81706784Y-52541544D01*
X81854354Y-52640147D01*
X81979853Y-52765646D01*
X82078456Y-52913216D01*
X82146376Y-53077188D01*
X82181000Y-53251259D01*
X82181000Y-53428741D01*
X82146376Y-53602812D01*
X82078456Y-53766784D01*
X81979853Y-53914354D01*
X81854354Y-54039853D01*
X81706784Y-54138456D01*
X81542812Y-54206376D01*
X81393512Y-54236073D01*
X81368742Y-54241000D01*
X81191258Y-54241000D01*
X81166488Y-54236073D01*
X81017188Y-54206376D01*
X80853216Y-54138456D01*
X80705646Y-54039853D01*
X80580147Y-53914354D01*
X80481544Y-53766784D01*
X80413624Y-53602812D01*
X80379000Y-53428741D01*
X80379000Y-53251259D01*
X80413624Y-53077188D01*
X80481544Y-52913216D01*
X80580147Y-52765646D01*
X80705646Y-52640147D01*
X80853216Y-52541544D01*
X81017188Y-52473624D01*
X81166488Y-52443927D01*
X81191258Y-52439000D01*
X81368742Y-52439000D01*
X81393512Y-52443927D01*
G37*
G36*
X73174929Y-52516765D02*
G01*
X73196010Y-52523161D01*
X73215446Y-52533549D01*
X73232477Y-52547525D01*
X73246453Y-52564556D01*
X73256841Y-52583992D01*
X73263237Y-52605073D01*
X73266001Y-52633141D01*
X73266001Y-53096861D01*
X73263237Y-53124929D01*
X73256841Y-53146010D01*
X73246453Y-53165446D01*
X73232477Y-53182477D01*
X73215446Y-53196453D01*
X73196010Y-53206841D01*
X73174929Y-53213237D01*
X73146861Y-53216001D01*
X71333141Y-53216001D01*
X71305073Y-53213237D01*
X71283992Y-53206841D01*
X71264556Y-53196453D01*
X71247525Y-53182477D01*
X71233549Y-53165446D01*
X71223161Y-53146010D01*
X71216765Y-53124929D01*
X71214001Y-53096861D01*
X71214001Y-52633141D01*
X71216765Y-52605073D01*
X71223161Y-52583992D01*
X71233549Y-52564556D01*
X71247525Y-52547525D01*
X71264556Y-52533549D01*
X71283992Y-52523161D01*
X71305073Y-52516765D01*
X71333141Y-52514001D01*
X73146861Y-52514001D01*
X73174929Y-52516765D01*
G37*
G36*
X68224929Y-52516765D02*
G01*
X68246010Y-52523161D01*
X68265446Y-52533549D01*
X68282477Y-52547525D01*
X68296453Y-52564556D01*
X68306841Y-52583992D01*
X68313237Y-52605073D01*
X68316001Y-52633141D01*
X68316001Y-53096861D01*
X68313237Y-53124929D01*
X68306841Y-53146010D01*
X68296453Y-53165446D01*
X68282477Y-53182477D01*
X68265446Y-53196453D01*
X68246010Y-53206841D01*
X68224929Y-53213237D01*
X68196861Y-53216001D01*
X66383141Y-53216001D01*
X66355073Y-53213237D01*
X66333992Y-53206841D01*
X66314556Y-53196453D01*
X66297525Y-53182477D01*
X66283549Y-53165446D01*
X66273161Y-53146010D01*
X66266765Y-53124929D01*
X66264001Y-53096861D01*
X66264001Y-52633141D01*
X66266765Y-52605073D01*
X66273161Y-52583992D01*
X66283549Y-52564556D01*
X66297525Y-52547525D01*
X66314556Y-52533549D01*
X66333992Y-52523161D01*
X66355073Y-52516765D01*
X66383141Y-52514001D01*
X68196861Y-52514001D01*
X68224929Y-52516765D01*
G37*
G36*
X68224929Y-51246765D02*
G01*
X68246010Y-51253161D01*
X68265446Y-51263549D01*
X68282477Y-51277525D01*
X68296453Y-51294556D01*
X68306841Y-51313992D01*
X68313237Y-51335073D01*
X68316001Y-51363141D01*
X68316001Y-51826861D01*
X68313237Y-51854929D01*
X68306841Y-51876010D01*
X68296453Y-51895446D01*
X68282477Y-51912477D01*
X68265446Y-51926453D01*
X68246010Y-51936841D01*
X68224929Y-51943237D01*
X68196861Y-51946001D01*
X66383141Y-51946001D01*
X66355073Y-51943237D01*
X66333992Y-51936841D01*
X66314556Y-51926453D01*
X66297525Y-51912477D01*
X66283549Y-51895446D01*
X66273161Y-51876010D01*
X66266765Y-51854929D01*
X66264001Y-51826861D01*
X66264001Y-51363141D01*
X66266765Y-51335073D01*
X66273161Y-51313992D01*
X66283549Y-51294556D01*
X66297525Y-51277525D01*
X66314556Y-51263549D01*
X66333992Y-51253161D01*
X66355073Y-51246765D01*
X66383141Y-51244001D01*
X68196861Y-51244001D01*
X68224929Y-51246765D01*
G37*
G36*
X73174929Y-51246765D02*
G01*
X73196010Y-51253161D01*
X73215446Y-51263549D01*
X73232477Y-51277525D01*
X73246453Y-51294556D01*
X73256841Y-51313992D01*
X73263237Y-51335073D01*
X73266001Y-51363141D01*
X73266001Y-51826861D01*
X73263237Y-51854929D01*
X73256841Y-51876010D01*
X73246453Y-51895446D01*
X73232477Y-51912477D01*
X73215446Y-51926453D01*
X73196010Y-51936841D01*
X73174929Y-51943237D01*
X73146861Y-51946001D01*
X71333141Y-51946001D01*
X71305073Y-51943237D01*
X71283992Y-51936841D01*
X71264556Y-51926453D01*
X71247525Y-51912477D01*
X71233549Y-51895446D01*
X71223161Y-51876010D01*
X71216765Y-51854929D01*
X71214001Y-51826861D01*
X71214001Y-51363141D01*
X71216765Y-51335073D01*
X71223161Y-51313992D01*
X71233549Y-51294556D01*
X71247525Y-51277525D01*
X71264556Y-51263549D01*
X71283992Y-51253161D01*
X71305073Y-51246765D01*
X71333141Y-51244001D01*
X73146861Y-51244001D01*
X73174929Y-51246765D01*
G37*
G36*
X87261000Y-51701000D02*
G01*
X85459000Y-51701000D01*
X85459000Y-49899000D01*
X87261000Y-49899000D01*
X87261000Y-51701000D01*
G37*
G36*
X54241000Y-51701000D02*
G01*
X52439000Y-51701000D01*
X52439000Y-49899000D01*
X54241000Y-49899000D01*
X54241000Y-51701000D01*
G37*
G36*
X83933512Y-49903927D02*
G01*
X84082812Y-49933624D01*
X84246784Y-50001544D01*
X84394354Y-50100147D01*
X84519853Y-50225646D01*
X84618456Y-50373216D01*
X84686376Y-50537188D01*
X84721000Y-50711259D01*
X84721000Y-50888741D01*
X84686376Y-51062812D01*
X84618456Y-51226784D01*
X84519853Y-51374354D01*
X84394354Y-51499853D01*
X84246784Y-51598456D01*
X84082812Y-51666376D01*
X83933512Y-51696073D01*
X83908742Y-51701000D01*
X83731258Y-51701000D01*
X83706488Y-51696073D01*
X83557188Y-51666376D01*
X83393216Y-51598456D01*
X83245646Y-51499853D01*
X83120147Y-51374354D01*
X83021544Y-51226784D01*
X82953624Y-51062812D01*
X82919000Y-50888741D01*
X82919000Y-50711259D01*
X82953624Y-50537188D01*
X83021544Y-50373216D01*
X83120147Y-50225646D01*
X83245646Y-50100147D01*
X83393216Y-50001544D01*
X83557188Y-49933624D01*
X83706488Y-49903927D01*
X83731258Y-49899000D01*
X83908742Y-49899000D01*
X83933512Y-49903927D01*
G37*
G36*
X81393512Y-49903927D02*
G01*
X81542812Y-49933624D01*
X81706784Y-50001544D01*
X81854354Y-50100147D01*
X81979853Y-50225646D01*
X82078456Y-50373216D01*
X82146376Y-50537188D01*
X82181000Y-50711259D01*
X82181000Y-50888741D01*
X82146376Y-51062812D01*
X82078456Y-51226784D01*
X81979853Y-51374354D01*
X81854354Y-51499853D01*
X81706784Y-51598456D01*
X81542812Y-51666376D01*
X81393512Y-51696073D01*
X81368742Y-51701000D01*
X81191258Y-51701000D01*
X81166488Y-51696073D01*
X81017188Y-51666376D01*
X80853216Y-51598456D01*
X80705646Y-51499853D01*
X80580147Y-51374354D01*
X80481544Y-51226784D01*
X80413624Y-51062812D01*
X80379000Y-50888741D01*
X80379000Y-50711259D01*
X80413624Y-50537188D01*
X80481544Y-50373216D01*
X80580147Y-50225646D01*
X80705646Y-50100147D01*
X80853216Y-50001544D01*
X81017188Y-49933624D01*
X81166488Y-49903927D01*
X81191258Y-49899000D01*
X81368742Y-49899000D01*
X81393512Y-49903927D01*
G37*
G36*
X58533512Y-49903927D02*
G01*
X58682812Y-49933624D01*
X58846784Y-50001544D01*
X58994354Y-50100147D01*
X59119853Y-50225646D01*
X59218456Y-50373216D01*
X59286376Y-50537188D01*
X59321000Y-50711259D01*
X59321000Y-50888741D01*
X59286376Y-51062812D01*
X59218456Y-51226784D01*
X59119853Y-51374354D01*
X58994354Y-51499853D01*
X58846784Y-51598456D01*
X58682812Y-51666376D01*
X58533512Y-51696073D01*
X58508742Y-51701000D01*
X58331258Y-51701000D01*
X58306488Y-51696073D01*
X58157188Y-51666376D01*
X57993216Y-51598456D01*
X57845646Y-51499853D01*
X57720147Y-51374354D01*
X57621544Y-51226784D01*
X57553624Y-51062812D01*
X57519000Y-50888741D01*
X57519000Y-50711259D01*
X57553624Y-50537188D01*
X57621544Y-50373216D01*
X57720147Y-50225646D01*
X57845646Y-50100147D01*
X57993216Y-50001544D01*
X58157188Y-49933624D01*
X58306488Y-49903927D01*
X58331258Y-49899000D01*
X58508742Y-49899000D01*
X58533512Y-49903927D01*
G37*
G36*
X55993512Y-49903927D02*
G01*
X56142812Y-49933624D01*
X56306784Y-50001544D01*
X56454354Y-50100147D01*
X56579853Y-50225646D01*
X56678456Y-50373216D01*
X56746376Y-50537188D01*
X56781000Y-50711259D01*
X56781000Y-50888741D01*
X56746376Y-51062812D01*
X56678456Y-51226784D01*
X56579853Y-51374354D01*
X56454354Y-51499853D01*
X56306784Y-51598456D01*
X56142812Y-51666376D01*
X55993512Y-51696073D01*
X55968742Y-51701000D01*
X55791258Y-51701000D01*
X55766488Y-51696073D01*
X55617188Y-51666376D01*
X55453216Y-51598456D01*
X55305646Y-51499853D01*
X55180147Y-51374354D01*
X55081544Y-51226784D01*
X55013624Y-51062812D01*
X54979000Y-50888741D01*
X54979000Y-50711259D01*
X55013624Y-50537188D01*
X55081544Y-50373216D01*
X55180147Y-50225646D01*
X55305646Y-50100147D01*
X55453216Y-50001544D01*
X55617188Y-49933624D01*
X55766488Y-49903927D01*
X55791258Y-49899000D01*
X55968742Y-49899000D01*
X55993512Y-49903927D01*
G37*
G36*
X68224929Y-49976765D02*
G01*
X68246010Y-49983161D01*
X68265446Y-49993549D01*
X68282477Y-50007525D01*
X68296453Y-50024556D01*
X68306841Y-50043992D01*
X68313237Y-50065073D01*
X68316001Y-50093141D01*
X68316001Y-50556861D01*
X68313237Y-50584929D01*
X68306841Y-50606010D01*
X68296453Y-50625446D01*
X68282477Y-50642477D01*
X68265446Y-50656453D01*
X68246010Y-50666841D01*
X68224929Y-50673237D01*
X68196861Y-50676001D01*
X66383141Y-50676001D01*
X66355073Y-50673237D01*
X66333992Y-50666841D01*
X66314556Y-50656453D01*
X66297525Y-50642477D01*
X66283549Y-50625446D01*
X66273161Y-50606010D01*
X66266765Y-50584929D01*
X66264001Y-50556861D01*
X66264001Y-50093141D01*
X66266765Y-50065073D01*
X66273161Y-50043992D01*
X66283549Y-50024556D01*
X66297525Y-50007525D01*
X66314556Y-49993549D01*
X66333992Y-49983161D01*
X66355073Y-49976765D01*
X66383141Y-49974001D01*
X68196861Y-49974001D01*
X68224929Y-49976765D01*
G37*
G36*
X73174929Y-49976765D02*
G01*
X73196010Y-49983161D01*
X73215446Y-49993549D01*
X73232477Y-50007525D01*
X73246453Y-50024556D01*
X73256841Y-50043992D01*
X73263237Y-50065073D01*
X73266001Y-50093141D01*
X73266001Y-50556861D01*
X73263237Y-50584929D01*
X73256841Y-50606010D01*
X73246453Y-50625446D01*
X73232477Y-50642477D01*
X73215446Y-50656453D01*
X73196010Y-50666841D01*
X73174929Y-50673237D01*
X73146861Y-50676001D01*
X71333141Y-50676001D01*
X71305073Y-50673237D01*
X71283992Y-50666841D01*
X71264556Y-50656453D01*
X71247525Y-50642477D01*
X71233549Y-50625446D01*
X71223161Y-50606010D01*
X71216765Y-50584929D01*
X71214001Y-50556861D01*
X71214001Y-50093141D01*
X71216765Y-50065073D01*
X71223161Y-50043992D01*
X71233549Y-50024556D01*
X71247525Y-50007525D01*
X71264556Y-49993549D01*
X71283992Y-49983161D01*
X71305073Y-49976765D01*
X71333141Y-49974001D01*
X73146861Y-49974001D01*
X73174929Y-49976765D01*
G37*
G36*
X73174929Y-48706765D02*
G01*
X73196010Y-48713161D01*
X73215446Y-48723549D01*
X73232477Y-48737525D01*
X73246453Y-48754556D01*
X73256841Y-48773992D01*
X73263237Y-48795073D01*
X73266001Y-48823141D01*
X73266001Y-49286861D01*
X73263237Y-49314929D01*
X73256841Y-49336010D01*
X73246453Y-49355446D01*
X73232477Y-49372477D01*
X73215446Y-49386453D01*
X73196010Y-49396841D01*
X73174929Y-49403237D01*
X73146861Y-49406001D01*
X71333141Y-49406001D01*
X71305073Y-49403237D01*
X71283992Y-49396841D01*
X71264556Y-49386453D01*
X71247525Y-49372477D01*
X71233549Y-49355446D01*
X71223161Y-49336010D01*
X71216765Y-49314929D01*
X71214001Y-49286861D01*
X71214001Y-48823141D01*
X71216765Y-48795073D01*
X71223161Y-48773992D01*
X71233549Y-48754556D01*
X71247525Y-48737525D01*
X71264556Y-48723549D01*
X71283992Y-48713161D01*
X71305073Y-48706765D01*
X71333141Y-48704001D01*
X73146861Y-48704001D01*
X73174929Y-48706765D01*
G37*
G36*
X68224929Y-48706765D02*
G01*
X68246010Y-48713161D01*
X68265446Y-48723549D01*
X68282477Y-48737525D01*
X68296453Y-48754556D01*
X68306841Y-48773992D01*
X68313237Y-48795073D01*
X68316001Y-48823141D01*
X68316001Y-49286861D01*
X68313237Y-49314929D01*
X68306841Y-49336010D01*
X68296453Y-49355446D01*
X68282477Y-49372477D01*
X68265446Y-49386453D01*
X68246010Y-49396841D01*
X68224929Y-49403237D01*
X68196861Y-49406001D01*
X66383141Y-49406001D01*
X66355073Y-49403237D01*
X66333992Y-49396841D01*
X66314556Y-49386453D01*
X66297525Y-49372477D01*
X66283549Y-49355446D01*
X66273161Y-49336010D01*
X66266765Y-49314929D01*
X66264001Y-49286861D01*
X66264001Y-48823141D01*
X66266765Y-48795073D01*
X66273161Y-48773992D01*
X66283549Y-48754556D01*
X66297525Y-48737525D01*
X66314556Y-48723549D01*
X66333992Y-48713161D01*
X66355073Y-48706765D01*
X66383141Y-48704001D01*
X68196861Y-48704001D01*
X68224929Y-48706765D01*
G37*
G36*
X87261000Y-49161000D02*
G01*
X85459000Y-49161000D01*
X85459000Y-47359000D01*
X87261000Y-47359000D01*
X87261000Y-49161000D01*
G37*
G36*
X58533512Y-47363927D02*
G01*
X58682812Y-47393624D01*
X58846784Y-47461544D01*
X58994354Y-47560147D01*
X59119853Y-47685646D01*
X59218456Y-47833216D01*
X59286376Y-47997188D01*
X59321000Y-48171259D01*
X59321000Y-48348741D01*
X59286376Y-48522812D01*
X59218456Y-48686784D01*
X59119853Y-48834354D01*
X58994354Y-48959853D01*
X58846784Y-49058456D01*
X58682812Y-49126376D01*
X58533512Y-49156073D01*
X58508742Y-49161000D01*
X58331258Y-49161000D01*
X58306488Y-49156073D01*
X58157188Y-49126376D01*
X57993216Y-49058456D01*
X57845646Y-48959853D01*
X57720147Y-48834354D01*
X57621544Y-48686784D01*
X57553624Y-48522812D01*
X57519000Y-48348741D01*
X57519000Y-48171259D01*
X57553624Y-47997188D01*
X57621544Y-47833216D01*
X57720147Y-47685646D01*
X57845646Y-47560147D01*
X57993216Y-47461544D01*
X58157188Y-47393624D01*
X58306488Y-47363927D01*
X58331258Y-47359000D01*
X58508742Y-47359000D01*
X58533512Y-47363927D01*
G37*
G36*
X55993512Y-47363927D02*
G01*
X56142812Y-47393624D01*
X56306784Y-47461544D01*
X56454354Y-47560147D01*
X56579853Y-47685646D01*
X56678456Y-47833216D01*
X56746376Y-47997188D01*
X56781000Y-48171259D01*
X56781000Y-48348741D01*
X56746376Y-48522812D01*
X56678456Y-48686784D01*
X56579853Y-48834354D01*
X56454354Y-48959853D01*
X56306784Y-49058456D01*
X56142812Y-49126376D01*
X55993512Y-49156073D01*
X55968742Y-49161000D01*
X55791258Y-49161000D01*
X55766488Y-49156073D01*
X55617188Y-49126376D01*
X55453216Y-49058456D01*
X55305646Y-48959853D01*
X55180147Y-48834354D01*
X55081544Y-48686784D01*
X55013624Y-48522812D01*
X54979000Y-48348741D01*
X54979000Y-48171259D01*
X55013624Y-47997188D01*
X55081544Y-47833216D01*
X55180147Y-47685646D01*
X55305646Y-47560147D01*
X55453216Y-47461544D01*
X55617188Y-47393624D01*
X55766488Y-47363927D01*
X55791258Y-47359000D01*
X55968742Y-47359000D01*
X55993512Y-47363927D01*
G37*
G36*
X54241000Y-49161000D02*
G01*
X52439000Y-49161000D01*
X52439000Y-47359000D01*
X54241000Y-47359000D01*
X54241000Y-49161000D01*
G37*
G36*
X81393512Y-47363927D02*
G01*
X81542812Y-47393624D01*
X81706784Y-47461544D01*
X81854354Y-47560147D01*
X81979853Y-47685646D01*
X82078456Y-47833216D01*
X82146376Y-47997188D01*
X82181000Y-48171259D01*
X82181000Y-48348741D01*
X82146376Y-48522812D01*
X82078456Y-48686784D01*
X81979853Y-48834354D01*
X81854354Y-48959853D01*
X81706784Y-49058456D01*
X81542812Y-49126376D01*
X81393512Y-49156073D01*
X81368742Y-49161000D01*
X81191258Y-49161000D01*
X81166488Y-49156073D01*
X81017188Y-49126376D01*
X80853216Y-49058456D01*
X80705646Y-48959853D01*
X80580147Y-48834354D01*
X80481544Y-48686784D01*
X80413624Y-48522812D01*
X80379000Y-48348741D01*
X80379000Y-48171259D01*
X80413624Y-47997188D01*
X80481544Y-47833216D01*
X80580147Y-47685646D01*
X80705646Y-47560147D01*
X80853216Y-47461544D01*
X81017188Y-47393624D01*
X81166488Y-47363927D01*
X81191258Y-47359000D01*
X81368742Y-47359000D01*
X81393512Y-47363927D01*
G37*
G36*
X83933512Y-47363927D02*
G01*
X84082812Y-47393624D01*
X84246784Y-47461544D01*
X84394354Y-47560147D01*
X84519853Y-47685646D01*
X84618456Y-47833216D01*
X84686376Y-47997188D01*
X84721000Y-48171259D01*
X84721000Y-48348741D01*
X84686376Y-48522812D01*
X84618456Y-48686784D01*
X84519853Y-48834354D01*
X84394354Y-48959853D01*
X84246784Y-49058456D01*
X84082812Y-49126376D01*
X83933512Y-49156073D01*
X83908742Y-49161000D01*
X83731258Y-49161000D01*
X83706488Y-49156073D01*
X83557188Y-49126376D01*
X83393216Y-49058456D01*
X83245646Y-48959853D01*
X83120147Y-48834354D01*
X83021544Y-48686784D01*
X82953624Y-48522812D01*
X82919000Y-48348741D01*
X82919000Y-48171259D01*
X82953624Y-47997188D01*
X83021544Y-47833216D01*
X83120147Y-47685646D01*
X83245646Y-47560147D01*
X83393216Y-47461544D01*
X83557188Y-47393624D01*
X83706488Y-47363927D01*
X83731258Y-47359000D01*
X83908742Y-47359000D01*
X83933512Y-47363927D01*
G37*
G36*
X68224929Y-47436765D02*
G01*
X68246010Y-47443161D01*
X68265446Y-47453549D01*
X68282477Y-47467525D01*
X68296453Y-47484556D01*
X68306841Y-47503992D01*
X68313237Y-47525073D01*
X68316001Y-47553141D01*
X68316001Y-48016861D01*
X68313237Y-48044929D01*
X68306841Y-48066010D01*
X68296453Y-48085446D01*
X68282477Y-48102477D01*
X68265446Y-48116453D01*
X68246010Y-48126841D01*
X68224929Y-48133237D01*
X68196861Y-48136001D01*
X66383141Y-48136001D01*
X66355073Y-48133237D01*
X66333992Y-48126841D01*
X66314556Y-48116453D01*
X66297525Y-48102477D01*
X66283549Y-48085446D01*
X66273161Y-48066010D01*
X66266765Y-48044929D01*
X66264001Y-48016861D01*
X66264001Y-47553141D01*
X66266765Y-47525073D01*
X66273161Y-47503992D01*
X66283549Y-47484556D01*
X66297525Y-47467525D01*
X66314556Y-47453549D01*
X66333992Y-47443161D01*
X66355073Y-47436765D01*
X66383141Y-47434001D01*
X68196861Y-47434001D01*
X68224929Y-47436765D01*
G37*
G36*
X73174929Y-47436765D02*
G01*
X73196010Y-47443161D01*
X73215446Y-47453549D01*
X73232477Y-47467525D01*
X73246453Y-47484556D01*
X73256841Y-47503992D01*
X73263237Y-47525073D01*
X73266001Y-47553141D01*
X73266001Y-48016861D01*
X73263237Y-48044929D01*
X73256841Y-48066010D01*
X73246453Y-48085446D01*
X73232477Y-48102477D01*
X73215446Y-48116453D01*
X73196010Y-48126841D01*
X73174929Y-48133237D01*
X73146861Y-48136001D01*
X71333141Y-48136001D01*
X71305073Y-48133237D01*
X71283992Y-48126841D01*
X71264556Y-48116453D01*
X71247525Y-48102477D01*
X71233549Y-48085446D01*
X71223161Y-48066010D01*
X71216765Y-48044929D01*
X71214001Y-48016861D01*
X71214001Y-47553141D01*
X71216765Y-47525073D01*
X71223161Y-47503992D01*
X71233549Y-47484556D01*
X71247525Y-47467525D01*
X71264556Y-47453549D01*
X71283992Y-47443161D01*
X71305073Y-47436765D01*
X71333141Y-47434001D01*
X73146861Y-47434001D01*
X73174929Y-47436765D01*
G37*
G36*
X73174929Y-46166765D02*
G01*
X73196010Y-46173161D01*
X73215446Y-46183549D01*
X73232477Y-46197525D01*
X73246453Y-46214556D01*
X73256841Y-46233992D01*
X73263237Y-46255073D01*
X73266001Y-46283141D01*
X73266001Y-46746861D01*
X73263237Y-46774929D01*
X73256841Y-46796010D01*
X73246453Y-46815446D01*
X73232477Y-46832477D01*
X73215446Y-46846453D01*
X73196010Y-46856841D01*
X73174929Y-46863237D01*
X73146861Y-46866001D01*
X71333141Y-46866001D01*
X71305073Y-46863237D01*
X71283992Y-46856841D01*
X71264556Y-46846453D01*
X71247525Y-46832477D01*
X71233549Y-46815446D01*
X71223161Y-46796010D01*
X71216765Y-46774929D01*
X71214001Y-46746861D01*
X71214001Y-46283141D01*
X71216765Y-46255073D01*
X71223161Y-46233992D01*
X71233549Y-46214556D01*
X71247525Y-46197525D01*
X71264556Y-46183549D01*
X71283992Y-46173161D01*
X71305073Y-46166765D01*
X71333141Y-46164001D01*
X73146861Y-46164001D01*
X73174929Y-46166765D01*
G37*
G36*
X68224929Y-46166765D02*
G01*
X68246010Y-46173161D01*
X68265446Y-46183549D01*
X68282477Y-46197525D01*
X68296453Y-46214556D01*
X68306841Y-46233992D01*
X68313237Y-46255073D01*
X68316001Y-46283141D01*
X68316001Y-46746861D01*
X68313237Y-46774929D01*
X68306841Y-46796010D01*
X68296453Y-46815446D01*
X68282477Y-46832477D01*
X68265446Y-46846453D01*
X68246010Y-46856841D01*
X68224929Y-46863237D01*
X68196861Y-46866001D01*
X66383141Y-46866001D01*
X66355073Y-46863237D01*
X66333992Y-46856841D01*
X66314556Y-46846453D01*
X66297525Y-46832477D01*
X66283549Y-46815446D01*
X66273161Y-46796010D01*
X66266765Y-46774929D01*
X66264001Y-46746861D01*
X66264001Y-46283141D01*
X66266765Y-46255073D01*
X66273161Y-46233992D01*
X66283549Y-46214556D01*
X66297525Y-46197525D01*
X66314556Y-46183549D01*
X66333992Y-46173161D01*
X66355073Y-46166765D01*
X66383141Y-46164001D01*
X68196861Y-46164001D01*
X68224929Y-46166765D01*
G37*
G36*
X81393512Y-44823927D02*
G01*
X81542812Y-44853624D01*
X81706784Y-44921544D01*
X81854354Y-45020147D01*
X81979853Y-45145646D01*
X82078456Y-45293216D01*
X82146376Y-45457188D01*
X82181000Y-45631259D01*
X82181000Y-45808741D01*
X82146376Y-45982812D01*
X82078456Y-46146784D01*
X81979853Y-46294354D01*
X81854354Y-46419853D01*
X81706784Y-46518456D01*
X81542812Y-46586376D01*
X81393512Y-46616073D01*
X81368742Y-46621000D01*
X81191258Y-46621000D01*
X81166488Y-46616073D01*
X81017188Y-46586376D01*
X80853216Y-46518456D01*
X80705646Y-46419853D01*
X80580147Y-46294354D01*
X80481544Y-46146784D01*
X80413624Y-45982812D01*
X80379000Y-45808741D01*
X80379000Y-45631259D01*
X80413624Y-45457188D01*
X80481544Y-45293216D01*
X80580147Y-45145646D01*
X80705646Y-45020147D01*
X80853216Y-44921544D01*
X81017188Y-44853624D01*
X81166488Y-44823927D01*
X81191258Y-44819000D01*
X81368742Y-44819000D01*
X81393512Y-44823927D01*
G37*
G36*
X83933512Y-44823927D02*
G01*
X84082812Y-44853624D01*
X84246784Y-44921544D01*
X84394354Y-45020147D01*
X84519853Y-45145646D01*
X84618456Y-45293216D01*
X84686376Y-45457188D01*
X84721000Y-45631259D01*
X84721000Y-45808741D01*
X84686376Y-45982812D01*
X84618456Y-46146784D01*
X84519853Y-46294354D01*
X84394354Y-46419853D01*
X84246784Y-46518456D01*
X84082812Y-46586376D01*
X83933512Y-46616073D01*
X83908742Y-46621000D01*
X83731258Y-46621000D01*
X83706488Y-46616073D01*
X83557188Y-46586376D01*
X83393216Y-46518456D01*
X83245646Y-46419853D01*
X83120147Y-46294354D01*
X83021544Y-46146784D01*
X82953624Y-45982812D01*
X82919000Y-45808741D01*
X82919000Y-45631259D01*
X82953624Y-45457188D01*
X83021544Y-45293216D01*
X83120147Y-45145646D01*
X83245646Y-45020147D01*
X83393216Y-44921544D01*
X83557188Y-44853624D01*
X83706488Y-44823927D01*
X83731258Y-44819000D01*
X83908742Y-44819000D01*
X83933512Y-44823927D01*
G37*
G36*
X87261000Y-46621000D02*
G01*
X85459000Y-46621000D01*
X85459000Y-44819000D01*
X87261000Y-44819000D01*
X87261000Y-46621000D01*
G37*
G36*
X54241000Y-46621000D02*
G01*
X52439000Y-46621000D01*
X52439000Y-44819000D01*
X54241000Y-44819000D01*
X54241000Y-46621000D01*
G37*
G36*
X55993512Y-44823927D02*
G01*
X56142812Y-44853624D01*
X56306784Y-44921544D01*
X56454354Y-45020147D01*
X56579853Y-45145646D01*
X56678456Y-45293216D01*
X56746376Y-45457188D01*
X56781000Y-45631259D01*
X56781000Y-45808741D01*
X56746376Y-45982812D01*
X56678456Y-46146784D01*
X56579853Y-46294354D01*
X56454354Y-46419853D01*
X56306784Y-46518456D01*
X56142812Y-46586376D01*
X55993512Y-46616073D01*
X55968742Y-46621000D01*
X55791258Y-46621000D01*
X55766488Y-46616073D01*
X55617188Y-46586376D01*
X55453216Y-46518456D01*
X55305646Y-46419853D01*
X55180147Y-46294354D01*
X55081544Y-46146784D01*
X55013624Y-45982812D01*
X54979000Y-45808741D01*
X54979000Y-45631259D01*
X55013624Y-45457188D01*
X55081544Y-45293216D01*
X55180147Y-45145646D01*
X55305646Y-45020147D01*
X55453216Y-44921544D01*
X55617188Y-44853624D01*
X55766488Y-44823927D01*
X55791258Y-44819000D01*
X55968742Y-44819000D01*
X55993512Y-44823927D01*
G37*
G36*
X58533512Y-44823927D02*
G01*
X58682812Y-44853624D01*
X58846784Y-44921544D01*
X58994354Y-45020147D01*
X59119853Y-45145646D01*
X59218456Y-45293216D01*
X59286376Y-45457188D01*
X59321000Y-45631259D01*
X59321000Y-45808741D01*
X59286376Y-45982812D01*
X59218456Y-46146784D01*
X59119853Y-46294354D01*
X58994354Y-46419853D01*
X58846784Y-46518456D01*
X58682812Y-46586376D01*
X58533512Y-46616073D01*
X58508742Y-46621000D01*
X58331258Y-46621000D01*
X58306488Y-46616073D01*
X58157188Y-46586376D01*
X57993216Y-46518456D01*
X57845646Y-46419853D01*
X57720147Y-46294354D01*
X57621544Y-46146784D01*
X57553624Y-45982812D01*
X57519000Y-45808741D01*
X57519000Y-45631259D01*
X57553624Y-45457188D01*
X57621544Y-45293216D01*
X57720147Y-45145646D01*
X57845646Y-45020147D01*
X57993216Y-44921544D01*
X58157188Y-44853624D01*
X58306488Y-44823927D01*
X58331258Y-44819000D01*
X58508742Y-44819000D01*
X58533512Y-44823927D01*
G37*
G36*
X58533512Y-42283927D02*
G01*
X58682812Y-42313624D01*
X58846784Y-42381544D01*
X58994354Y-42480147D01*
X59119853Y-42605646D01*
X59218456Y-42753216D01*
X59286376Y-42917188D01*
X59321000Y-43091259D01*
X59321000Y-43268741D01*
X59286376Y-43442812D01*
X59218456Y-43606784D01*
X59119853Y-43754354D01*
X58994354Y-43879853D01*
X58846784Y-43978456D01*
X58682812Y-44046376D01*
X58533512Y-44076073D01*
X58508742Y-44081000D01*
X58331258Y-44081000D01*
X58306488Y-44076073D01*
X58157188Y-44046376D01*
X57993216Y-43978456D01*
X57845646Y-43879853D01*
X57720147Y-43754354D01*
X57621544Y-43606784D01*
X57553624Y-43442812D01*
X57519000Y-43268741D01*
X57519000Y-43091259D01*
X57553624Y-42917188D01*
X57621544Y-42753216D01*
X57720147Y-42605646D01*
X57845646Y-42480147D01*
X57993216Y-42381544D01*
X58157188Y-42313624D01*
X58306488Y-42283927D01*
X58331258Y-42279000D01*
X58508742Y-42279000D01*
X58533512Y-42283927D01*
G37*
G36*
X81393512Y-42283927D02*
G01*
X81542812Y-42313624D01*
X81706784Y-42381544D01*
X81854354Y-42480147D01*
X81979853Y-42605646D01*
X82078456Y-42753216D01*
X82146376Y-42917188D01*
X82181000Y-43091259D01*
X82181000Y-43268741D01*
X82146376Y-43442812D01*
X82078456Y-43606784D01*
X81979853Y-43754354D01*
X81854354Y-43879853D01*
X81706784Y-43978456D01*
X81542812Y-44046376D01*
X81393512Y-44076073D01*
X81368742Y-44081000D01*
X81191258Y-44081000D01*
X81166488Y-44076073D01*
X81017188Y-44046376D01*
X80853216Y-43978456D01*
X80705646Y-43879853D01*
X80580147Y-43754354D01*
X80481544Y-43606784D01*
X80413624Y-43442812D01*
X80379000Y-43268741D01*
X80379000Y-43091259D01*
X80413624Y-42917188D01*
X80481544Y-42753216D01*
X80580147Y-42605646D01*
X80705646Y-42480147D01*
X80853216Y-42381544D01*
X81017188Y-42313624D01*
X81166488Y-42283927D01*
X81191258Y-42279000D01*
X81368742Y-42279000D01*
X81393512Y-42283927D01*
G37*
G36*
X83933512Y-42283927D02*
G01*
X84082812Y-42313624D01*
X84246784Y-42381544D01*
X84394354Y-42480147D01*
X84519853Y-42605646D01*
X84618456Y-42753216D01*
X84686376Y-42917188D01*
X84721000Y-43091259D01*
X84721000Y-43268741D01*
X84686376Y-43442812D01*
X84618456Y-43606784D01*
X84519853Y-43754354D01*
X84394354Y-43879853D01*
X84246784Y-43978456D01*
X84082812Y-44046376D01*
X83933512Y-44076073D01*
X83908742Y-44081000D01*
X83731258Y-44081000D01*
X83706488Y-44076073D01*
X83557188Y-44046376D01*
X83393216Y-43978456D01*
X83245646Y-43879853D01*
X83120147Y-43754354D01*
X83021544Y-43606784D01*
X82953624Y-43442812D01*
X82919000Y-43268741D01*
X82919000Y-43091259D01*
X82953624Y-42917188D01*
X83021544Y-42753216D01*
X83120147Y-42605646D01*
X83245646Y-42480147D01*
X83393216Y-42381544D01*
X83557188Y-42313624D01*
X83706488Y-42283927D01*
X83731258Y-42279000D01*
X83908742Y-42279000D01*
X83933512Y-42283927D01*
G37*
G36*
X87261000Y-44081000D02*
G01*
X85459000Y-44081000D01*
X85459000Y-42279000D01*
X87261000Y-42279000D01*
X87261000Y-44081000D01*
G37*
G36*
X54241000Y-44081000D02*
G01*
X52439000Y-44081000D01*
X52439000Y-42279000D01*
X54241000Y-42279000D01*
X54241000Y-44081000D01*
G37*
G36*
X55993512Y-42283927D02*
G01*
X56142812Y-42313624D01*
X56306784Y-42381544D01*
X56454354Y-42480147D01*
X56579853Y-42605646D01*
X56678456Y-42753216D01*
X56746376Y-42917188D01*
X56781000Y-43091259D01*
X56781000Y-43268741D01*
X56746376Y-43442812D01*
X56678456Y-43606784D01*
X56579853Y-43754354D01*
X56454354Y-43879853D01*
X56306784Y-43978456D01*
X56142812Y-44046376D01*
X55993512Y-44076073D01*
X55968742Y-44081000D01*
X55791258Y-44081000D01*
X55766488Y-44076073D01*
X55617188Y-44046376D01*
X55453216Y-43978456D01*
X55305646Y-43879853D01*
X55180147Y-43754354D01*
X55081544Y-43606784D01*
X55013624Y-43442812D01*
X54979000Y-43268741D01*
X54979000Y-43091259D01*
X55013624Y-42917188D01*
X55081544Y-42753216D01*
X55180147Y-42605646D01*
X55305646Y-42480147D01*
X55453216Y-42381544D01*
X55617188Y-42313624D01*
X55766488Y-42283927D01*
X55791258Y-42279000D01*
X55968742Y-42279000D01*
X55993512Y-42283927D01*
G37*
M02*
