G04 #@! TF.GenerationSoftware,KiCad,Pcbnew,5.1.6-c6e7f7d~87~ubuntu18.04.1*
G04 #@! TF.CreationDate,2020-09-18T13:49:57+09:00*
G04 #@! TF.ProjectId,drone_battery_series_circuit,64726f6e-655f-4626-9174-746572795f73,rev?*
G04 #@! TF.SameCoordinates,PX12d5c70PY13c9eb0*
G04 #@! TF.FileFunction,Copper,L2,Bot*
G04 #@! TF.FilePolarity,Positive*
%FSLAX46Y46*%
G04 Gerber Fmt 4.6, Leading zero omitted, Abs format (unit mm)*
G04 Created by KiCad (PCBNEW 5.1.6-c6e7f7d~87~ubuntu18.04.1) date 2020-09-18 13:49:57*
%MOMM*%
%LPD*%
G01*
G04 APERTURE LIST*
G04 #@! TA.AperFunction,ComponentPad*
%ADD10C,13.000000*%
G04 #@! TD*
G04 #@! TA.AperFunction,ComponentPad*
%ADD11C,3.000000*%
G04 #@! TD*
G04 #@! TA.AperFunction,ComponentPad*
%ADD12C,5.000000*%
G04 #@! TD*
G04 #@! TA.AperFunction,Conductor*
%ADD13C,0.254000*%
G04 #@! TD*
G04 APERTURE END LIST*
D10*
X48250000Y-8250000D03*
X14250000Y-8250000D03*
D11*
X32700000Y-34700000D03*
X51550000Y-34650000D03*
D12*
X47550000Y-25250000D03*
X36650000Y-25250000D03*
D11*
X9850000Y-34700000D03*
X28700000Y-34650000D03*
D12*
X24700000Y-25250000D03*
X13800000Y-25250000D03*
D13*
G36*
X42123000Y-36590000D02*
G01*
X33714313Y-36590000D01*
X34060983Y-36358363D01*
X34358363Y-36060983D01*
X34592012Y-35711302D01*
X34752953Y-35322756D01*
X34835000Y-34910279D01*
X34835000Y-34489721D01*
X34752953Y-34077244D01*
X34592012Y-33688698D01*
X34358363Y-33339017D01*
X34060983Y-33041637D01*
X33711302Y-32807988D01*
X33322756Y-32647047D01*
X32910279Y-32565000D01*
X32489721Y-32565000D01*
X32077244Y-32647047D01*
X31688698Y-32807988D01*
X31339017Y-33041637D01*
X31041637Y-33339017D01*
X30807988Y-33688698D01*
X30710355Y-33924404D01*
X30592012Y-33638698D01*
X30358363Y-33289017D01*
X30060983Y-32991637D01*
X29711302Y-32757988D01*
X29322756Y-32597047D01*
X28910279Y-32515000D01*
X28489721Y-32515000D01*
X28077244Y-32597047D01*
X27688698Y-32757988D01*
X27339017Y-32991637D01*
X27041637Y-33289017D01*
X26807988Y-33638698D01*
X26647047Y-34027244D01*
X26565000Y-34439721D01*
X26565000Y-34860279D01*
X26647047Y-35272756D01*
X26807988Y-35661302D01*
X27041637Y-36010983D01*
X27339017Y-36308363D01*
X27688698Y-36542012D01*
X27804551Y-36590000D01*
X18877000Y-36590000D01*
X18877000Y-16377000D01*
X42123000Y-16377000D01*
X42123000Y-36590000D01*
G37*
X42123000Y-36590000D02*
X33714313Y-36590000D01*
X34060983Y-36358363D01*
X34358363Y-36060983D01*
X34592012Y-35711302D01*
X34752953Y-35322756D01*
X34835000Y-34910279D01*
X34835000Y-34489721D01*
X34752953Y-34077244D01*
X34592012Y-33688698D01*
X34358363Y-33339017D01*
X34060983Y-33041637D01*
X33711302Y-32807988D01*
X33322756Y-32647047D01*
X32910279Y-32565000D01*
X32489721Y-32565000D01*
X32077244Y-32647047D01*
X31688698Y-32807988D01*
X31339017Y-33041637D01*
X31041637Y-33339017D01*
X30807988Y-33688698D01*
X30710355Y-33924404D01*
X30592012Y-33638698D01*
X30358363Y-33289017D01*
X30060983Y-32991637D01*
X29711302Y-32757988D01*
X29322756Y-32597047D01*
X28910279Y-32515000D01*
X28489721Y-32515000D01*
X28077244Y-32597047D01*
X27688698Y-32757988D01*
X27339017Y-32991637D01*
X27041637Y-33289017D01*
X26807988Y-33638698D01*
X26647047Y-34027244D01*
X26565000Y-34439721D01*
X26565000Y-34860279D01*
X26647047Y-35272756D01*
X26807988Y-35661302D01*
X27041637Y-36010983D01*
X27339017Y-36308363D01*
X27688698Y-36542012D01*
X27804551Y-36590000D01*
X18877000Y-36590000D01*
X18877000Y-16377000D01*
X42123000Y-16377000D01*
X42123000Y-36590000D01*
G36*
X59509659Y-938625D02*
G01*
X59759429Y-1014035D01*
X59989792Y-1136522D01*
X60191980Y-1301422D01*
X60358286Y-1502450D01*
X60482378Y-1731954D01*
X60559531Y-1981195D01*
X60590001Y-2271098D01*
X60590000Y-35217721D01*
X60561375Y-35509660D01*
X60485965Y-35759429D01*
X60363477Y-35989794D01*
X60198579Y-36191979D01*
X59997546Y-36358288D01*
X59768046Y-36482378D01*
X59518805Y-36559531D01*
X59228911Y-36590000D01*
X52445449Y-36590000D01*
X52561302Y-36542012D01*
X52910983Y-36308363D01*
X53208363Y-36010983D01*
X53442012Y-35661302D01*
X53602953Y-35272756D01*
X53685000Y-34860279D01*
X53685000Y-34439721D01*
X53602953Y-34027244D01*
X53442012Y-33638698D01*
X53208363Y-33289017D01*
X52949218Y-33029872D01*
X55015000Y-33029872D01*
X55015000Y-33470128D01*
X55100890Y-33901925D01*
X55269369Y-34308669D01*
X55513962Y-34674729D01*
X55825271Y-34986038D01*
X56191331Y-35230631D01*
X56598075Y-35399110D01*
X57029872Y-35485000D01*
X57470128Y-35485000D01*
X57901925Y-35399110D01*
X58308669Y-35230631D01*
X58674729Y-34986038D01*
X58986038Y-34674729D01*
X59230631Y-34308669D01*
X59399110Y-33901925D01*
X59485000Y-33470128D01*
X59485000Y-33029872D01*
X59399110Y-32598075D01*
X59230631Y-32191331D01*
X58986038Y-31825271D01*
X58674729Y-31513962D01*
X58308669Y-31269369D01*
X57901925Y-31100890D01*
X57470128Y-31015000D01*
X57029872Y-31015000D01*
X56598075Y-31100890D01*
X56191331Y-31269369D01*
X55825271Y-31513962D01*
X55513962Y-31825271D01*
X55269369Y-32191331D01*
X55100890Y-32598075D01*
X55015000Y-33029872D01*
X52949218Y-33029872D01*
X52910983Y-32991637D01*
X52561302Y-32757988D01*
X52172756Y-32597047D01*
X51760279Y-32515000D01*
X51339721Y-32515000D01*
X50927244Y-32597047D01*
X50538698Y-32757988D01*
X50189017Y-32991637D01*
X49891637Y-33289017D01*
X49657988Y-33638698D01*
X49497047Y-34027244D01*
X49415000Y-34439721D01*
X49415000Y-34860279D01*
X49497047Y-35272756D01*
X49657988Y-35661302D01*
X49891637Y-36010983D01*
X50189017Y-36308363D01*
X50538698Y-36542012D01*
X50654551Y-36590000D01*
X42885000Y-36590000D01*
X42885000Y-16250000D01*
X42877000Y-16168773D01*
X42877000Y-15750000D01*
X42874560Y-15725224D01*
X42867333Y-15701399D01*
X42855597Y-15679443D01*
X42839803Y-15660197D01*
X42820557Y-15644403D01*
X42798601Y-15632667D01*
X42774776Y-15625440D01*
X42750000Y-15623000D01*
X42331227Y-15623000D01*
X42250000Y-15615000D01*
X32135000Y-15615000D01*
X32135000Y-4029872D01*
X55015000Y-4029872D01*
X55015000Y-4470128D01*
X55100890Y-4901925D01*
X55269369Y-5308669D01*
X55513962Y-5674729D01*
X55825271Y-5986038D01*
X56191331Y-6230631D01*
X56598075Y-6399110D01*
X57029872Y-6485000D01*
X57470128Y-6485000D01*
X57901925Y-6399110D01*
X58308669Y-6230631D01*
X58674729Y-5986038D01*
X58986038Y-5674729D01*
X59230631Y-5308669D01*
X59399110Y-4901925D01*
X59485000Y-4470128D01*
X59485000Y-4029872D01*
X59399110Y-3598075D01*
X59230631Y-3191331D01*
X58986038Y-2825271D01*
X58674729Y-2513962D01*
X58308669Y-2269369D01*
X57901925Y-2100890D01*
X57470128Y-2015000D01*
X57029872Y-2015000D01*
X56598075Y-2100890D01*
X56191331Y-2269369D01*
X55825271Y-2513962D01*
X55513962Y-2825271D01*
X55269369Y-3191331D01*
X55100890Y-3598075D01*
X55015000Y-4029872D01*
X32135000Y-4029872D01*
X32135000Y-910000D01*
X59217721Y-910000D01*
X59509659Y-938625D01*
G37*
X59509659Y-938625D02*
X59759429Y-1014035D01*
X59989792Y-1136522D01*
X60191980Y-1301422D01*
X60358286Y-1502450D01*
X60482378Y-1731954D01*
X60559531Y-1981195D01*
X60590001Y-2271098D01*
X60590000Y-35217721D01*
X60561375Y-35509660D01*
X60485965Y-35759429D01*
X60363477Y-35989794D01*
X60198579Y-36191979D01*
X59997546Y-36358288D01*
X59768046Y-36482378D01*
X59518805Y-36559531D01*
X59228911Y-36590000D01*
X52445449Y-36590000D01*
X52561302Y-36542012D01*
X52910983Y-36308363D01*
X53208363Y-36010983D01*
X53442012Y-35661302D01*
X53602953Y-35272756D01*
X53685000Y-34860279D01*
X53685000Y-34439721D01*
X53602953Y-34027244D01*
X53442012Y-33638698D01*
X53208363Y-33289017D01*
X52949218Y-33029872D01*
X55015000Y-33029872D01*
X55015000Y-33470128D01*
X55100890Y-33901925D01*
X55269369Y-34308669D01*
X55513962Y-34674729D01*
X55825271Y-34986038D01*
X56191331Y-35230631D01*
X56598075Y-35399110D01*
X57029872Y-35485000D01*
X57470128Y-35485000D01*
X57901925Y-35399110D01*
X58308669Y-35230631D01*
X58674729Y-34986038D01*
X58986038Y-34674729D01*
X59230631Y-34308669D01*
X59399110Y-33901925D01*
X59485000Y-33470128D01*
X59485000Y-33029872D01*
X59399110Y-32598075D01*
X59230631Y-32191331D01*
X58986038Y-31825271D01*
X58674729Y-31513962D01*
X58308669Y-31269369D01*
X57901925Y-31100890D01*
X57470128Y-31015000D01*
X57029872Y-31015000D01*
X56598075Y-31100890D01*
X56191331Y-31269369D01*
X55825271Y-31513962D01*
X55513962Y-31825271D01*
X55269369Y-32191331D01*
X55100890Y-32598075D01*
X55015000Y-33029872D01*
X52949218Y-33029872D01*
X52910983Y-32991637D01*
X52561302Y-32757988D01*
X52172756Y-32597047D01*
X51760279Y-32515000D01*
X51339721Y-32515000D01*
X50927244Y-32597047D01*
X50538698Y-32757988D01*
X50189017Y-32991637D01*
X49891637Y-33289017D01*
X49657988Y-33638698D01*
X49497047Y-34027244D01*
X49415000Y-34439721D01*
X49415000Y-34860279D01*
X49497047Y-35272756D01*
X49657988Y-35661302D01*
X49891637Y-36010983D01*
X50189017Y-36308363D01*
X50538698Y-36542012D01*
X50654551Y-36590000D01*
X42885000Y-36590000D01*
X42885000Y-16250000D01*
X42877000Y-16168773D01*
X42877000Y-15750000D01*
X42874560Y-15725224D01*
X42867333Y-15701399D01*
X42855597Y-15679443D01*
X42839803Y-15660197D01*
X42820557Y-15644403D01*
X42798601Y-15632667D01*
X42774776Y-15625440D01*
X42750000Y-15623000D01*
X42331227Y-15623000D01*
X42250000Y-15615000D01*
X32135000Y-15615000D01*
X32135000Y-4029872D01*
X55015000Y-4029872D01*
X55015000Y-4470128D01*
X55100890Y-4901925D01*
X55269369Y-5308669D01*
X55513962Y-5674729D01*
X55825271Y-5986038D01*
X56191331Y-6230631D01*
X56598075Y-6399110D01*
X57029872Y-6485000D01*
X57470128Y-6485000D01*
X57901925Y-6399110D01*
X58308669Y-6230631D01*
X58674729Y-5986038D01*
X58986038Y-5674729D01*
X59230631Y-5308669D01*
X59399110Y-4901925D01*
X59485000Y-4470128D01*
X59485000Y-4029872D01*
X59399110Y-3598075D01*
X59230631Y-3191331D01*
X58986038Y-2825271D01*
X58674729Y-2513962D01*
X58308669Y-2269369D01*
X57901925Y-2100890D01*
X57470128Y-2015000D01*
X57029872Y-2015000D01*
X56598075Y-2100890D01*
X56191331Y-2269369D01*
X55825271Y-2513962D01*
X55513962Y-2825271D01*
X55269369Y-3191331D01*
X55100890Y-3598075D01*
X55015000Y-4029872D01*
X32135000Y-4029872D01*
X32135000Y-910000D01*
X59217721Y-910000D01*
X59509659Y-938625D01*
G36*
X31373000Y-15615000D02*
G01*
X18750000Y-15615000D01*
X18626118Y-15627201D01*
X18506996Y-15663336D01*
X18397213Y-15722017D01*
X18300987Y-15800987D01*
X18222017Y-15897213D01*
X18163336Y-16006996D01*
X18127201Y-16126118D01*
X18115000Y-16250000D01*
X18115000Y-36590000D01*
X10864313Y-36590000D01*
X11210983Y-36358363D01*
X11508363Y-36060983D01*
X11742012Y-35711302D01*
X11902953Y-35322756D01*
X11985000Y-34910279D01*
X11985000Y-34489721D01*
X11902953Y-34077244D01*
X11742012Y-33688698D01*
X11508363Y-33339017D01*
X11210983Y-33041637D01*
X10861302Y-32807988D01*
X10472756Y-32647047D01*
X10060279Y-32565000D01*
X9639721Y-32565000D01*
X9227244Y-32647047D01*
X8838698Y-32807988D01*
X8489017Y-33041637D01*
X8191637Y-33339017D01*
X7957988Y-33688698D01*
X7797047Y-34077244D01*
X7715000Y-34489721D01*
X7715000Y-34910279D01*
X7797047Y-35322756D01*
X7957988Y-35711302D01*
X8191637Y-36060983D01*
X8489017Y-36358363D01*
X8835687Y-36590000D01*
X2282279Y-36590000D01*
X1990340Y-36561375D01*
X1740571Y-36485965D01*
X1510206Y-36363477D01*
X1308021Y-36198579D01*
X1141712Y-35997546D01*
X1017622Y-35768046D01*
X940469Y-35518805D01*
X910000Y-35228911D01*
X910000Y-33029872D01*
X2015000Y-33029872D01*
X2015000Y-33470128D01*
X2100890Y-33901925D01*
X2269369Y-34308669D01*
X2513962Y-34674729D01*
X2825271Y-34986038D01*
X3191331Y-35230631D01*
X3598075Y-35399110D01*
X4029872Y-35485000D01*
X4470128Y-35485000D01*
X4901925Y-35399110D01*
X5308669Y-35230631D01*
X5674729Y-34986038D01*
X5986038Y-34674729D01*
X6230631Y-34308669D01*
X6399110Y-33901925D01*
X6485000Y-33470128D01*
X6485000Y-33029872D01*
X6399110Y-32598075D01*
X6230631Y-32191331D01*
X5986038Y-31825271D01*
X5674729Y-31513962D01*
X5308669Y-31269369D01*
X4901925Y-31100890D01*
X4470128Y-31015000D01*
X4029872Y-31015000D01*
X3598075Y-31100890D01*
X3191331Y-31269369D01*
X2825271Y-31513962D01*
X2513962Y-31825271D01*
X2269369Y-32191331D01*
X2100890Y-32598075D01*
X2015000Y-33029872D01*
X910000Y-33029872D01*
X910000Y-4029872D01*
X2015000Y-4029872D01*
X2015000Y-4470128D01*
X2100890Y-4901925D01*
X2269369Y-5308669D01*
X2513962Y-5674729D01*
X2825271Y-5986038D01*
X3191331Y-6230631D01*
X3598075Y-6399110D01*
X4029872Y-6485000D01*
X4470128Y-6485000D01*
X4901925Y-6399110D01*
X5308669Y-6230631D01*
X5674729Y-5986038D01*
X5986038Y-5674729D01*
X6230631Y-5308669D01*
X6399110Y-4901925D01*
X6485000Y-4470128D01*
X6485000Y-4029872D01*
X6399110Y-3598075D01*
X6230631Y-3191331D01*
X5986038Y-2825271D01*
X5674729Y-2513962D01*
X5308669Y-2269369D01*
X4901925Y-2100890D01*
X4470128Y-2015000D01*
X4029872Y-2015000D01*
X3598075Y-2100890D01*
X3191331Y-2269369D01*
X2825271Y-2513962D01*
X2513962Y-2825271D01*
X2269369Y-3191331D01*
X2100890Y-3598075D01*
X2015000Y-4029872D01*
X910000Y-4029872D01*
X910000Y-2282279D01*
X938625Y-1990341D01*
X1014035Y-1740571D01*
X1136522Y-1510208D01*
X1301422Y-1308020D01*
X1502450Y-1141714D01*
X1731954Y-1017622D01*
X1981195Y-940469D01*
X2271088Y-910000D01*
X31373000Y-910000D01*
X31373000Y-15615000D01*
G37*
X31373000Y-15615000D02*
X18750000Y-15615000D01*
X18626118Y-15627201D01*
X18506996Y-15663336D01*
X18397213Y-15722017D01*
X18300987Y-15800987D01*
X18222017Y-15897213D01*
X18163336Y-16006996D01*
X18127201Y-16126118D01*
X18115000Y-16250000D01*
X18115000Y-36590000D01*
X10864313Y-36590000D01*
X11210983Y-36358363D01*
X11508363Y-36060983D01*
X11742012Y-35711302D01*
X11902953Y-35322756D01*
X11985000Y-34910279D01*
X11985000Y-34489721D01*
X11902953Y-34077244D01*
X11742012Y-33688698D01*
X11508363Y-33339017D01*
X11210983Y-33041637D01*
X10861302Y-32807988D01*
X10472756Y-32647047D01*
X10060279Y-32565000D01*
X9639721Y-32565000D01*
X9227244Y-32647047D01*
X8838698Y-32807988D01*
X8489017Y-33041637D01*
X8191637Y-33339017D01*
X7957988Y-33688698D01*
X7797047Y-34077244D01*
X7715000Y-34489721D01*
X7715000Y-34910279D01*
X7797047Y-35322756D01*
X7957988Y-35711302D01*
X8191637Y-36060983D01*
X8489017Y-36358363D01*
X8835687Y-36590000D01*
X2282279Y-36590000D01*
X1990340Y-36561375D01*
X1740571Y-36485965D01*
X1510206Y-36363477D01*
X1308021Y-36198579D01*
X1141712Y-35997546D01*
X1017622Y-35768046D01*
X940469Y-35518805D01*
X910000Y-35228911D01*
X910000Y-33029872D01*
X2015000Y-33029872D01*
X2015000Y-33470128D01*
X2100890Y-33901925D01*
X2269369Y-34308669D01*
X2513962Y-34674729D01*
X2825271Y-34986038D01*
X3191331Y-35230631D01*
X3598075Y-35399110D01*
X4029872Y-35485000D01*
X4470128Y-35485000D01*
X4901925Y-35399110D01*
X5308669Y-35230631D01*
X5674729Y-34986038D01*
X5986038Y-34674729D01*
X6230631Y-34308669D01*
X6399110Y-33901925D01*
X6485000Y-33470128D01*
X6485000Y-33029872D01*
X6399110Y-32598075D01*
X6230631Y-32191331D01*
X5986038Y-31825271D01*
X5674729Y-31513962D01*
X5308669Y-31269369D01*
X4901925Y-31100890D01*
X4470128Y-31015000D01*
X4029872Y-31015000D01*
X3598075Y-31100890D01*
X3191331Y-31269369D01*
X2825271Y-31513962D01*
X2513962Y-31825271D01*
X2269369Y-32191331D01*
X2100890Y-32598075D01*
X2015000Y-33029872D01*
X910000Y-33029872D01*
X910000Y-4029872D01*
X2015000Y-4029872D01*
X2015000Y-4470128D01*
X2100890Y-4901925D01*
X2269369Y-5308669D01*
X2513962Y-5674729D01*
X2825271Y-5986038D01*
X3191331Y-6230631D01*
X3598075Y-6399110D01*
X4029872Y-6485000D01*
X4470128Y-6485000D01*
X4901925Y-6399110D01*
X5308669Y-6230631D01*
X5674729Y-5986038D01*
X5986038Y-5674729D01*
X6230631Y-5308669D01*
X6399110Y-4901925D01*
X6485000Y-4470128D01*
X6485000Y-4029872D01*
X6399110Y-3598075D01*
X6230631Y-3191331D01*
X5986038Y-2825271D01*
X5674729Y-2513962D01*
X5308669Y-2269369D01*
X4901925Y-2100890D01*
X4470128Y-2015000D01*
X4029872Y-2015000D01*
X3598075Y-2100890D01*
X3191331Y-2269369D01*
X2825271Y-2513962D01*
X2513962Y-2825271D01*
X2269369Y-3191331D01*
X2100890Y-3598075D01*
X2015000Y-4029872D01*
X910000Y-4029872D01*
X910000Y-2282279D01*
X938625Y-1990341D01*
X1014035Y-1740571D01*
X1136522Y-1510208D01*
X1301422Y-1308020D01*
X1502450Y-1141714D01*
X1731954Y-1017622D01*
X1981195Y-940469D01*
X2271088Y-910000D01*
X31373000Y-910000D01*
X31373000Y-15615000D01*
M02*
