G04 #@! TF.GenerationSoftware,KiCad,Pcbnew,5.1.6-c6e7f7d~87~ubuntu18.04.1*
G04 #@! TF.CreationDate,2020-09-18T13:49:57+09:00*
G04 #@! TF.ProjectId,drone_battery_series_circuit,64726f6e-655f-4626-9174-746572795f73,rev?*
G04 #@! TF.SameCoordinates,PX12d5c70PY13c9eb0*
G04 #@! TF.FileFunction,Legend,Top*
G04 #@! TF.FilePolarity,Positive*
%FSLAX46Y46*%
G04 Gerber Fmt 4.6, Leading zero omitted, Abs format (unit mm)*
G04 Created by KiCad (PCBNEW 5.1.6-c6e7f7d~87~ubuntu18.04.1) date 2020-09-18 13:49:57*
%MOMM*%
%LPD*%
G01*
G04 APERTURE LIST*
%ADD10C,0.150000*%
G04 APERTURE END LIST*
D10*
X47916666Y-15702380D02*
X47916666Y-16416666D01*
X47869047Y-16559523D01*
X47773809Y-16654761D01*
X47630952Y-16702380D01*
X47535714Y-16702380D01*
X48535714Y-16130952D02*
X48440476Y-16083333D01*
X48392857Y-16035714D01*
X48345238Y-15940476D01*
X48345238Y-15892857D01*
X48392857Y-15797619D01*
X48440476Y-15750000D01*
X48535714Y-15702380D01*
X48726190Y-15702380D01*
X48821428Y-15750000D01*
X48869047Y-15797619D01*
X48916666Y-15892857D01*
X48916666Y-15940476D01*
X48869047Y-16035714D01*
X48821428Y-16083333D01*
X48726190Y-16130952D01*
X48535714Y-16130952D01*
X48440476Y-16178571D01*
X48392857Y-16226190D01*
X48345238Y-16321428D01*
X48345238Y-16511904D01*
X48392857Y-16607142D01*
X48440476Y-16654761D01*
X48535714Y-16702380D01*
X48726190Y-16702380D01*
X48821428Y-16654761D01*
X48869047Y-16607142D01*
X48916666Y-16511904D01*
X48916666Y-16321428D01*
X48869047Y-16226190D01*
X48821428Y-16178571D01*
X48726190Y-16130952D01*
X13416666Y-15952380D02*
X13416666Y-16666666D01*
X13369047Y-16809523D01*
X13273809Y-16904761D01*
X13130952Y-16952380D01*
X13035714Y-16952380D01*
X13797619Y-15952380D02*
X14416666Y-15952380D01*
X14083333Y-16333333D01*
X14226190Y-16333333D01*
X14321428Y-16380952D01*
X14369047Y-16428571D01*
X14416666Y-16523809D01*
X14416666Y-16761904D01*
X14369047Y-16857142D01*
X14321428Y-16904761D01*
X14226190Y-16952380D01*
X13940476Y-16952380D01*
X13845238Y-16904761D01*
X13797619Y-16857142D01*
X56916666Y-29002380D02*
X56916666Y-29716666D01*
X56869047Y-29859523D01*
X56773809Y-29954761D01*
X56630952Y-30002380D01*
X56535714Y-30002380D01*
X57297619Y-29002380D02*
X57964285Y-29002380D01*
X57535714Y-30002380D01*
X56916666Y-6952380D02*
X56916666Y-7666666D01*
X56869047Y-7809523D01*
X56773809Y-7904761D01*
X56630952Y-7952380D01*
X56535714Y-7952380D01*
X57821428Y-6952380D02*
X57630952Y-6952380D01*
X57535714Y-7000000D01*
X57488095Y-7047619D01*
X57392857Y-7190476D01*
X57345238Y-7380952D01*
X57345238Y-7761904D01*
X57392857Y-7857142D01*
X57440476Y-7904761D01*
X57535714Y-7952380D01*
X57726190Y-7952380D01*
X57821428Y-7904761D01*
X57869047Y-7857142D01*
X57916666Y-7761904D01*
X57916666Y-7523809D01*
X57869047Y-7428571D01*
X57821428Y-7380952D01*
X57726190Y-7333333D01*
X57535714Y-7333333D01*
X57440476Y-7380952D01*
X57392857Y-7428571D01*
X57345238Y-7523809D01*
X3916666Y-29002380D02*
X3916666Y-29716666D01*
X3869047Y-29859523D01*
X3773809Y-29954761D01*
X3630952Y-30002380D01*
X3535714Y-30002380D01*
X4869047Y-29002380D02*
X4392857Y-29002380D01*
X4345238Y-29478571D01*
X4392857Y-29430952D01*
X4488095Y-29383333D01*
X4726190Y-29383333D01*
X4821428Y-29430952D01*
X4869047Y-29478571D01*
X4916666Y-29573809D01*
X4916666Y-29811904D01*
X4869047Y-29907142D01*
X4821428Y-29954761D01*
X4726190Y-30002380D01*
X4488095Y-30002380D01*
X4392857Y-29954761D01*
X4345238Y-29907142D01*
X3916666Y-7202380D02*
X3916666Y-7916666D01*
X3869047Y-8059523D01*
X3773809Y-8154761D01*
X3630952Y-8202380D01*
X3535714Y-8202380D01*
X4821428Y-7535714D02*
X4821428Y-8202380D01*
X4583333Y-7154761D02*
X4345238Y-7869047D01*
X4964285Y-7869047D01*
X43666666Y-21452380D02*
X43666666Y-22166666D01*
X43619047Y-22309523D01*
X43523809Y-22404761D01*
X43380952Y-22452380D01*
X43285714Y-22452380D01*
X44095238Y-21547619D02*
X44142857Y-21500000D01*
X44238095Y-21452380D01*
X44476190Y-21452380D01*
X44571428Y-21500000D01*
X44619047Y-21547619D01*
X44666666Y-21642857D01*
X44666666Y-21738095D01*
X44619047Y-21880952D01*
X44047619Y-22452380D01*
X44666666Y-22452380D01*
X50338095Y-25292857D02*
X51861904Y-25292857D01*
X32038095Y-25292857D02*
X33561904Y-25292857D01*
X32800000Y-26054761D02*
X32800000Y-24530952D01*
X16666666Y-21202380D02*
X16666666Y-21916666D01*
X16619047Y-22059523D01*
X16523809Y-22154761D01*
X16380952Y-22202380D01*
X16285714Y-22202380D01*
X17666666Y-22202380D02*
X17095238Y-22202380D01*
X17380952Y-22202380D02*
X17380952Y-21202380D01*
X17285714Y-21345238D01*
X17190476Y-21440476D01*
X17095238Y-21488095D01*
X27488095Y-25292857D02*
X29011904Y-25292857D01*
X9188095Y-25292857D02*
X10711904Y-25292857D01*
X9950000Y-26054761D02*
X9950000Y-24530952D01*
M02*
