G04 #@! TF.GenerationSoftware,KiCad,Pcbnew,5.1.6-c6e7f7d~87~ubuntu18.04.1*
G04 #@! TF.CreationDate,2020-09-18T13:49:57+09:00*
G04 #@! TF.ProjectId,drone_battery_series_circuit,64726f6e-655f-4626-9174-746572795f73,rev?*
G04 #@! TF.SameCoordinates,PX12d5c70PY13c9eb0*
G04 #@! TF.FileFunction,Soldermask,Bot*
G04 #@! TF.FilePolarity,Negative*
%FSLAX46Y46*%
G04 Gerber Fmt 4.6, Leading zero omitted, Abs format (unit mm)*
G04 Created by KiCad (PCBNEW 5.1.6-c6e7f7d~87~ubuntu18.04.1) date 2020-09-18 13:49:57*
%MOMM*%
%LPD*%
G01*
G04 APERTURE LIST*
%ADD10C,0.100000*%
G04 APERTURE END LIST*
D10*
G36*
X10316703Y-33161486D02*
G01*
X10607883Y-33282097D01*
X10869940Y-33457198D01*
X11092802Y-33680060D01*
X11267903Y-33942117D01*
X11388514Y-34233297D01*
X11450000Y-34542412D01*
X11450000Y-34857588D01*
X11388514Y-35166703D01*
X11267903Y-35457883D01*
X11092802Y-35719940D01*
X10869940Y-35942802D01*
X10607883Y-36117903D01*
X10316703Y-36238514D01*
X10007588Y-36300000D01*
X9692412Y-36300000D01*
X9383297Y-36238514D01*
X9092117Y-36117903D01*
X8830060Y-35942802D01*
X8607198Y-35719940D01*
X8432097Y-35457883D01*
X8311486Y-35166703D01*
X8250000Y-34857588D01*
X8250000Y-34542412D01*
X8311486Y-34233297D01*
X8432097Y-33942117D01*
X8607198Y-33680060D01*
X8830060Y-33457198D01*
X9092117Y-33282097D01*
X9383297Y-33161486D01*
X9692412Y-33100000D01*
X10007588Y-33100000D01*
X10316703Y-33161486D01*
G37*
G36*
X33166703Y-33161486D02*
G01*
X33457883Y-33282097D01*
X33719940Y-33457198D01*
X33942802Y-33680060D01*
X34117903Y-33942117D01*
X34238514Y-34233297D01*
X34300000Y-34542412D01*
X34300000Y-34857588D01*
X34238514Y-35166703D01*
X34117903Y-35457883D01*
X33942802Y-35719940D01*
X33719940Y-35942802D01*
X33457883Y-36117903D01*
X33166703Y-36238514D01*
X32857588Y-36300000D01*
X32542412Y-36300000D01*
X32233297Y-36238514D01*
X31942117Y-36117903D01*
X31680060Y-35942802D01*
X31457198Y-35719940D01*
X31282097Y-35457883D01*
X31161486Y-35166703D01*
X31100000Y-34857588D01*
X31100000Y-34542412D01*
X31161486Y-34233297D01*
X31282097Y-33942117D01*
X31457198Y-33680060D01*
X31680060Y-33457198D01*
X31942117Y-33282097D01*
X32233297Y-33161486D01*
X32542412Y-33100000D01*
X32857588Y-33100000D01*
X33166703Y-33161486D01*
G37*
G36*
X52016703Y-33111486D02*
G01*
X52307883Y-33232097D01*
X52569940Y-33407198D01*
X52792802Y-33630060D01*
X52967903Y-33892117D01*
X53088514Y-34183297D01*
X53150000Y-34492412D01*
X53150000Y-34807588D01*
X53088514Y-35116703D01*
X52967903Y-35407883D01*
X52792802Y-35669940D01*
X52569940Y-35892802D01*
X52307883Y-36067903D01*
X52016703Y-36188514D01*
X51707588Y-36250000D01*
X51392412Y-36250000D01*
X51083297Y-36188514D01*
X50792117Y-36067903D01*
X50530060Y-35892802D01*
X50307198Y-35669940D01*
X50132097Y-35407883D01*
X50011486Y-35116703D01*
X49950000Y-34807588D01*
X49950000Y-34492412D01*
X50011486Y-34183297D01*
X50132097Y-33892117D01*
X50307198Y-33630060D01*
X50530060Y-33407198D01*
X50792117Y-33232097D01*
X51083297Y-33111486D01*
X51392412Y-33050000D01*
X51707588Y-33050000D01*
X52016703Y-33111486D01*
G37*
G36*
X29166703Y-33111486D02*
G01*
X29457883Y-33232097D01*
X29719940Y-33407198D01*
X29942802Y-33630060D01*
X30117903Y-33892117D01*
X30238514Y-34183297D01*
X30300000Y-34492412D01*
X30300000Y-34807588D01*
X30238514Y-35116703D01*
X30117903Y-35407883D01*
X29942802Y-35669940D01*
X29719940Y-35892802D01*
X29457883Y-36067903D01*
X29166703Y-36188514D01*
X28857588Y-36250000D01*
X28542412Y-36250000D01*
X28233297Y-36188514D01*
X27942117Y-36067903D01*
X27680060Y-35892802D01*
X27457198Y-35669940D01*
X27282097Y-35407883D01*
X27161486Y-35116703D01*
X27100000Y-34807588D01*
X27100000Y-34492412D01*
X27161486Y-34183297D01*
X27282097Y-33892117D01*
X27457198Y-33630060D01*
X27680060Y-33407198D01*
X27942117Y-33232097D01*
X28233297Y-33111486D01*
X28542412Y-33050000D01*
X28857588Y-33050000D01*
X29166703Y-33111486D01*
G37*
G36*
X57581653Y-31582665D02*
G01*
X57745872Y-31615330D01*
X58055252Y-31743479D01*
X58333687Y-31929523D01*
X58570477Y-32166313D01*
X58756521Y-32444748D01*
X58884670Y-32754128D01*
X58884670Y-32754130D01*
X58950000Y-33082563D01*
X58950000Y-33417437D01*
X58917335Y-33581653D01*
X58884670Y-33745872D01*
X58756521Y-34055252D01*
X58570477Y-34333687D01*
X58333687Y-34570477D01*
X58055252Y-34756521D01*
X57745872Y-34884670D01*
X57581654Y-34917335D01*
X57417437Y-34950000D01*
X57082563Y-34950000D01*
X56918346Y-34917335D01*
X56754128Y-34884670D01*
X56444748Y-34756521D01*
X56166313Y-34570477D01*
X55929523Y-34333687D01*
X55743479Y-34055252D01*
X55615330Y-33745872D01*
X55582665Y-33581653D01*
X55550000Y-33417437D01*
X55550000Y-33082563D01*
X55615330Y-32754130D01*
X55615330Y-32754128D01*
X55743479Y-32444748D01*
X55929523Y-32166313D01*
X56166313Y-31929523D01*
X56444748Y-31743479D01*
X56754128Y-31615330D01*
X56918347Y-31582665D01*
X57082563Y-31550000D01*
X57417437Y-31550000D01*
X57581653Y-31582665D01*
G37*
G36*
X4581653Y-31582665D02*
G01*
X4745872Y-31615330D01*
X5055252Y-31743479D01*
X5333687Y-31929523D01*
X5570477Y-32166313D01*
X5756521Y-32444748D01*
X5884670Y-32754128D01*
X5884670Y-32754130D01*
X5950000Y-33082563D01*
X5950000Y-33417437D01*
X5917335Y-33581653D01*
X5884670Y-33745872D01*
X5756521Y-34055252D01*
X5570477Y-34333687D01*
X5333687Y-34570477D01*
X5055252Y-34756521D01*
X4745872Y-34884670D01*
X4581654Y-34917335D01*
X4417437Y-34950000D01*
X4082563Y-34950000D01*
X3918346Y-34917335D01*
X3754128Y-34884670D01*
X3444748Y-34756521D01*
X3166313Y-34570477D01*
X2929523Y-34333687D01*
X2743479Y-34055252D01*
X2615330Y-33745872D01*
X2582665Y-33581654D01*
X2550000Y-33417437D01*
X2550000Y-33082563D01*
X2615330Y-32754130D01*
X2615330Y-32754128D01*
X2743479Y-32444748D01*
X2929523Y-32166313D01*
X3166313Y-31929523D01*
X3444748Y-31743479D01*
X3754128Y-31615330D01*
X3918347Y-31582665D01*
X4082563Y-31550000D01*
X4417437Y-31550000D01*
X4581653Y-31582665D01*
G37*
G36*
X14558391Y-22749916D02*
G01*
X15031560Y-22945909D01*
X15031562Y-22945910D01*
X15457403Y-23230448D01*
X15819552Y-23592597D01*
X16104091Y-24018440D01*
X16300084Y-24491609D01*
X16400000Y-24993921D01*
X16400000Y-25506079D01*
X16300084Y-26008391D01*
X16104091Y-26481560D01*
X16104090Y-26481562D01*
X15819552Y-26907403D01*
X15457403Y-27269552D01*
X15031562Y-27554090D01*
X15031561Y-27554091D01*
X15031560Y-27554091D01*
X14558391Y-27750084D01*
X14056079Y-27850000D01*
X13543921Y-27850000D01*
X13041609Y-27750084D01*
X12568440Y-27554091D01*
X12568439Y-27554091D01*
X12568438Y-27554090D01*
X12142597Y-27269552D01*
X11780448Y-26907403D01*
X11495910Y-26481562D01*
X11495909Y-26481560D01*
X11299916Y-26008391D01*
X11200000Y-25506079D01*
X11200000Y-24993921D01*
X11299916Y-24491609D01*
X11495909Y-24018440D01*
X11780448Y-23592597D01*
X12142597Y-23230448D01*
X12568438Y-22945910D01*
X12568440Y-22945909D01*
X13041609Y-22749916D01*
X13543921Y-22650000D01*
X14056079Y-22650000D01*
X14558391Y-22749916D01*
G37*
G36*
X25458391Y-22749916D02*
G01*
X25931560Y-22945909D01*
X25931562Y-22945910D01*
X26357403Y-23230448D01*
X26719552Y-23592597D01*
X27004091Y-24018440D01*
X27200084Y-24491609D01*
X27300000Y-24993921D01*
X27300000Y-25506079D01*
X27200084Y-26008391D01*
X27004091Y-26481560D01*
X27004090Y-26481562D01*
X26719552Y-26907403D01*
X26357403Y-27269552D01*
X25931562Y-27554090D01*
X25931561Y-27554091D01*
X25931560Y-27554091D01*
X25458391Y-27750084D01*
X24956079Y-27850000D01*
X24443921Y-27850000D01*
X23941609Y-27750084D01*
X23468440Y-27554091D01*
X23468439Y-27554091D01*
X23468438Y-27554090D01*
X23042597Y-27269552D01*
X22680448Y-26907403D01*
X22395910Y-26481562D01*
X22395909Y-26481560D01*
X22199916Y-26008391D01*
X22100000Y-25506079D01*
X22100000Y-24993921D01*
X22199916Y-24491609D01*
X22395909Y-24018440D01*
X22680448Y-23592597D01*
X23042597Y-23230448D01*
X23468438Y-22945910D01*
X23468440Y-22945909D01*
X23941609Y-22749916D01*
X24443921Y-22650000D01*
X24956079Y-22650000D01*
X25458391Y-22749916D01*
G37*
G36*
X37408391Y-22749916D02*
G01*
X37881560Y-22945909D01*
X37881562Y-22945910D01*
X38307403Y-23230448D01*
X38669552Y-23592597D01*
X38954091Y-24018440D01*
X39150084Y-24491609D01*
X39250000Y-24993921D01*
X39250000Y-25506079D01*
X39150084Y-26008391D01*
X38954091Y-26481560D01*
X38954090Y-26481562D01*
X38669552Y-26907403D01*
X38307403Y-27269552D01*
X37881562Y-27554090D01*
X37881561Y-27554091D01*
X37881560Y-27554091D01*
X37408391Y-27750084D01*
X36906079Y-27850000D01*
X36393921Y-27850000D01*
X35891609Y-27750084D01*
X35418440Y-27554091D01*
X35418439Y-27554091D01*
X35418438Y-27554090D01*
X34992597Y-27269552D01*
X34630448Y-26907403D01*
X34345910Y-26481562D01*
X34345909Y-26481560D01*
X34149916Y-26008391D01*
X34050000Y-25506079D01*
X34050000Y-24993921D01*
X34149916Y-24491609D01*
X34345909Y-24018440D01*
X34630448Y-23592597D01*
X34992597Y-23230448D01*
X35418438Y-22945910D01*
X35418440Y-22945909D01*
X35891609Y-22749916D01*
X36393921Y-22650000D01*
X36906079Y-22650000D01*
X37408391Y-22749916D01*
G37*
G36*
X48308391Y-22749916D02*
G01*
X48781560Y-22945909D01*
X48781562Y-22945910D01*
X49207403Y-23230448D01*
X49569552Y-23592597D01*
X49854091Y-24018440D01*
X50050084Y-24491609D01*
X50150000Y-24993921D01*
X50150000Y-25506079D01*
X50050084Y-26008391D01*
X49854091Y-26481560D01*
X49854090Y-26481562D01*
X49569552Y-26907403D01*
X49207403Y-27269552D01*
X48781562Y-27554090D01*
X48781561Y-27554091D01*
X48781560Y-27554091D01*
X48308391Y-27750084D01*
X47806079Y-27850000D01*
X47293921Y-27850000D01*
X46791609Y-27750084D01*
X46318440Y-27554091D01*
X46318439Y-27554091D01*
X46318438Y-27554090D01*
X45892597Y-27269552D01*
X45530448Y-26907403D01*
X45245910Y-26481562D01*
X45245909Y-26481560D01*
X45049916Y-26008391D01*
X44950000Y-25506079D01*
X44950000Y-24993921D01*
X45049916Y-24491609D01*
X45245909Y-24018440D01*
X45530448Y-23592597D01*
X45892597Y-23230448D01*
X46318438Y-22945910D01*
X46318440Y-22945909D01*
X46791609Y-22749916D01*
X47293921Y-22650000D01*
X47806079Y-22650000D01*
X48308391Y-22749916D01*
G37*
G36*
X15750114Y-1819089D02*
G01*
X16175149Y-1903634D01*
X17376273Y-2401155D01*
X18457255Y-3123445D01*
X19376555Y-4042745D01*
X20098845Y-5123727D01*
X20596366Y-6324851D01*
X20850000Y-7599957D01*
X20850000Y-8900043D01*
X20596366Y-10175149D01*
X20098845Y-11376273D01*
X19376555Y-12457255D01*
X18457255Y-13376555D01*
X17376273Y-14098845D01*
X16175149Y-14596366D01*
X15750114Y-14680911D01*
X14900045Y-14850000D01*
X13599955Y-14850000D01*
X12749886Y-14680911D01*
X12324851Y-14596366D01*
X11123727Y-14098845D01*
X10042745Y-13376555D01*
X9123445Y-12457255D01*
X8401155Y-11376273D01*
X7903634Y-10175149D01*
X7650000Y-8900043D01*
X7650000Y-7599957D01*
X7903634Y-6324851D01*
X8401155Y-5123727D01*
X9123445Y-4042745D01*
X10042745Y-3123445D01*
X11123727Y-2401155D01*
X12324851Y-1903634D01*
X12749886Y-1819089D01*
X13599955Y-1650000D01*
X14900045Y-1650000D01*
X15750114Y-1819089D01*
G37*
G36*
X49750114Y-1819089D02*
G01*
X50175149Y-1903634D01*
X51376273Y-2401155D01*
X52457255Y-3123445D01*
X53376555Y-4042745D01*
X54098845Y-5123727D01*
X54596366Y-6324851D01*
X54850000Y-7599957D01*
X54850000Y-8900043D01*
X54596366Y-10175149D01*
X54098845Y-11376273D01*
X53376555Y-12457255D01*
X52457255Y-13376555D01*
X51376273Y-14098845D01*
X50175149Y-14596366D01*
X49750114Y-14680911D01*
X48900045Y-14850000D01*
X47599955Y-14850000D01*
X46749886Y-14680911D01*
X46324851Y-14596366D01*
X45123727Y-14098845D01*
X44042745Y-13376555D01*
X43123445Y-12457255D01*
X42401155Y-11376273D01*
X41903634Y-10175149D01*
X41650000Y-8900043D01*
X41650000Y-7599957D01*
X41903634Y-6324851D01*
X42401155Y-5123727D01*
X43123445Y-4042745D01*
X44042745Y-3123445D01*
X45123727Y-2401155D01*
X46324851Y-1903634D01*
X46749886Y-1819089D01*
X47599955Y-1650000D01*
X48900045Y-1650000D01*
X49750114Y-1819089D01*
G37*
G36*
X57581653Y-2582665D02*
G01*
X57745872Y-2615330D01*
X58055252Y-2743479D01*
X58333687Y-2929523D01*
X58570477Y-3166313D01*
X58756521Y-3444748D01*
X58884670Y-3754128D01*
X58884670Y-3754130D01*
X58942080Y-4042745D01*
X58950000Y-4082565D01*
X58950000Y-4417435D01*
X58884670Y-4745872D01*
X58756521Y-5055252D01*
X58570477Y-5333687D01*
X58333687Y-5570477D01*
X58055252Y-5756521D01*
X57745872Y-5884670D01*
X57581653Y-5917335D01*
X57417437Y-5950000D01*
X57082563Y-5950000D01*
X56918347Y-5917335D01*
X56754128Y-5884670D01*
X56444748Y-5756521D01*
X56166313Y-5570477D01*
X55929523Y-5333687D01*
X55743479Y-5055252D01*
X55615330Y-4745872D01*
X55550000Y-4417435D01*
X55550000Y-4082565D01*
X55557921Y-4042745D01*
X55615330Y-3754130D01*
X55615330Y-3754128D01*
X55743479Y-3444748D01*
X55929523Y-3166313D01*
X56166313Y-2929523D01*
X56444748Y-2743479D01*
X56754128Y-2615330D01*
X56918347Y-2582665D01*
X57082563Y-2550000D01*
X57417437Y-2550000D01*
X57581653Y-2582665D01*
G37*
G36*
X4581653Y-2582665D02*
G01*
X4745872Y-2615330D01*
X5055252Y-2743479D01*
X5333687Y-2929523D01*
X5570477Y-3166313D01*
X5756521Y-3444748D01*
X5884670Y-3754128D01*
X5884670Y-3754130D01*
X5942080Y-4042745D01*
X5950000Y-4082565D01*
X5950000Y-4417435D01*
X5884670Y-4745872D01*
X5756521Y-5055252D01*
X5570477Y-5333687D01*
X5333687Y-5570477D01*
X5055252Y-5756521D01*
X4745872Y-5884670D01*
X4581653Y-5917335D01*
X4417437Y-5950000D01*
X4082563Y-5950000D01*
X3918347Y-5917335D01*
X3754128Y-5884670D01*
X3444748Y-5756521D01*
X3166313Y-5570477D01*
X2929523Y-5333687D01*
X2743479Y-5055252D01*
X2615330Y-4745872D01*
X2550000Y-4417435D01*
X2550000Y-4082565D01*
X2557921Y-4042745D01*
X2615330Y-3754130D01*
X2615330Y-3754128D01*
X2743479Y-3444748D01*
X2929523Y-3166313D01*
X3166313Y-2929523D01*
X3444748Y-2743479D01*
X3754128Y-2615330D01*
X3918347Y-2582665D01*
X4082563Y-2550000D01*
X4417437Y-2550000D01*
X4581653Y-2582665D01*
G37*
M02*
